<svg width="416" height="359" viewBox="0 0 416 359" fill="none" xmlns="http://www.w3.org/2000/svg">
<path d="M93.5175 329.541C165.132 367.762 281.244 367.762 352.859 329.541C424.474 291.319 424.484 229.331 352.859 191.109C281.234 152.888 165.132 152.878 93.5175 191.109C21.9028 229.341 21.9028 291.309 93.5175 329.541Z" fill="#EBEBEB"/>
<path d="M373.923 234.706L363.477 228.632C363.477 228.632 360.916 206.252 362.617 188.923C365.016 164.559 380.746 135.275 399.502 142.138C418.258 149.001 390.888 173.871 384.815 194.521C378.741 215.17 373.923 234.706 373.923 234.706Z" fill="#90CAF9"/>
<path opacity="0.1" d="M373.923 234.706L363.477 228.632C363.477 228.632 360.916 206.252 362.617 188.923C365.016 164.559 380.746 135.275 399.502 142.138C418.258 149.001 390.888 173.871 384.815 194.521C378.741 215.17 373.923 234.706 373.923 234.706Z" fill="black"/>
<path d="M368.487 231.962C368.39 231.964 368.295 231.929 368.221 231.866C368.146 231.803 368.097 231.715 368.083 231.618C364.53 204.288 374.257 162.98 393.894 147.31C393.935 147.278 393.981 147.253 394.031 147.239C394.081 147.224 394.134 147.219 394.185 147.225C394.237 147.231 394.287 147.246 394.333 147.271C394.378 147.297 394.419 147.33 394.451 147.371C394.518 147.454 394.549 147.561 394.537 147.667C394.526 147.773 394.473 147.871 394.39 147.938C374.966 163.445 365.36 204.43 368.882 231.507C368.897 231.613 368.869 231.72 368.804 231.806C368.74 231.891 368.644 231.947 368.538 231.962H368.487Z" fill="white"/>
<path d="M379.5 239.028L372.071 234.726C372.071 234.726 370.805 219.37 378.336 200.715C384.885 184.52 401.152 170.996 409.331 173.831C417.509 176.665 417.307 182.465 413.319 188.548C409.331 194.632 385.068 209.137 379.5 239.028Z" fill="#90CAF9"/>
<path d="M374.895 239.423C374.842 239.42 374.79 239.407 374.743 239.384C374.695 239.361 374.653 239.329 374.618 239.289C374.583 239.25 374.556 239.203 374.54 239.153C374.523 239.103 374.516 239.05 374.52 238.998C376.97 200.776 396.303 181.979 407.924 179.114C408.028 179.09 408.139 179.106 408.231 179.161C408.324 179.216 408.391 179.304 408.42 179.408C408.444 179.511 408.427 179.62 408.372 179.711C408.318 179.802 408.229 179.868 408.126 179.894C395.888 182.931 377.628 203.276 375.34 239.048C375.337 239.102 375.322 239.155 375.297 239.204C375.273 239.252 375.239 239.295 375.197 239.33C375.156 239.365 375.107 239.391 375.055 239.407C375.004 239.423 374.949 239.428 374.895 239.423Z" fill="white"/>
<path d="M73.0503 237.682C73.0503 237.682 74.437 215.241 61.3996 199.855C48.3622 184.469 31.3872 184.53 25.7694 187.394C20.1516 190.259 16.376 198.448 26.0427 204.309C35.7094 210.169 56.2676 221.901 59.6889 232.367L73.0503 237.682Z" fill="#90CAF9"/>
<path opacity="0.1" d="M73.0503 237.682C73.0503 237.682 74.437 215.241 61.3996 199.855C48.3622 184.469 31.3872 184.53 25.7694 187.394C20.1516 190.259 16.376 198.448 26.0427 204.309C35.7094 210.169 56.2676 221.901 59.6889 232.367L73.0503 237.682Z" fill="black"/>
<path d="M66.9162 232.064C66.7909 232.062 66.6705 232.015 66.5774 231.931C66.4843 231.847 66.4248 231.733 66.4101 231.608C63.7277 206.778 38.908 193.022 29.0186 191.463C28.9522 191.453 28.8883 191.431 28.8307 191.396C28.7731 191.361 28.7229 191.316 28.683 191.262C28.643 191.207 28.6141 191.146 28.5979 191.081C28.5817 191.016 28.5785 190.948 28.5884 190.881C28.5984 190.815 28.6214 190.751 28.656 190.694C28.6907 190.636 28.7363 190.586 28.7903 190.546C28.8444 190.506 28.9058 190.477 28.971 190.461C29.0362 190.444 29.104 190.441 29.1705 190.451C39.2927 192.04 64.6691 206.11 67.4223 231.497C67.4293 231.563 67.423 231.631 67.4039 231.695C67.3847 231.759 67.353 231.818 67.3107 231.87C67.2683 231.922 67.2161 231.965 67.1571 231.996C67.0981 232.028 67.0334 232.047 66.9668 232.054L66.9162 232.064Z" fill="white"/>
<path d="M62.0879 226.365C58.8184 218.915 55.1238 215.575 44.4955 217.356C33.8671 219.138 35.3855 218.864 22.3784 215.534C16.8922 214.137 10.7278 213.915 5.4642 216.283C1.02055 218.308 -2.29954 222.357 2.0024 226.669C6.84082 231.487 14.058 233.137 19.4025 237.378C20.6149 238.235 21.5788 239.398 22.1962 240.749C23.6032 244.332 20.7892 248.371 21.6091 252.126C22.429 255.881 26.3767 257.886 30.0814 258.129C33.7862 258.371 37.4403 257.258 41.1349 256.833C44.8295 256.408 48.9796 256.833 51.5304 259.576C54.2634 262.481 54.3343 267.127 56.875 270.214C60.6809 274.84 70.0338 276.126 75.0949 273.251L88.3449 265.609C97.1006 253.806 83.2838 244.453 76.0464 235.293C72.534 230.829 64.0516 230.849 62.0879 226.365Z" fill="#90CAF9"/>
<path d="M80.1358 258.483C80.0496 258.485 79.9645 258.463 79.8896 258.42C79.8147 258.377 79.7529 258.315 79.7107 258.24C64.5982 233.754 23.4514 221.365 8.89561 220.352C8.76311 220.342 8.63999 220.28 8.55287 220.179C8.46575 220.079 8.42161 219.948 8.42999 219.816C8.44036 219.682 8.50209 219.558 8.60216 219.47C8.70223 219.381 8.83284 219.334 8.96647 219.34C23.7145 220.352 65.2561 232.924 80.5711 257.734C80.6389 257.85 80.6588 257.987 80.6267 258.118C80.5946 258.248 80.5129 258.361 80.399 258.432C80.3162 258.469 80.2262 258.486 80.1358 258.483Z" fill="white"/>
<path d="M32.2679 246.943C32.189 246.945 32.111 246.927 32.0404 246.892C31.9699 246.857 31.909 246.805 31.863 246.741C31.7825 246.634 31.7479 246.499 31.7669 246.366C31.7859 246.233 31.8568 246.113 31.9642 246.032C32.4906 245.638 45.0421 236.426 57.2698 236.244C57.3358 236.243 57.4013 236.255 57.4627 236.279C57.524 236.303 57.5799 236.34 57.6271 236.386C57.6742 236.432 57.7116 236.487 57.7372 236.548C57.7627 236.609 57.7759 236.674 57.7759 236.74C57.7772 236.807 57.7655 236.873 57.7413 236.935C57.7171 236.997 57.6809 237.053 57.6348 237.101C57.5888 237.149 57.5337 237.187 57.4728 237.214C57.4119 237.241 57.3464 237.255 57.2799 237.256C45.4065 237.429 32.7234 246.751 32.5918 246.842C32.5004 246.915 32.3848 246.952 32.2679 246.943Z" fill="white"/>
<path d="M79.1945 267.087C79.3027 268.559 79.7558 269.984 80.5172 271.249C81.2786 272.513 82.327 273.58 83.5774 274.364L206.39 345.271C207.749 345.96 209.25 346.319 210.773 346.319C212.296 346.319 213.798 345.96 215.156 345.271L383.185 248.249C384.509 247.55 385.618 246.503 386.391 245.22C387.165 243.938 387.573 242.469 387.573 240.971C387.573 239.474 387.165 238.004 386.391 236.722C385.618 235.44 384.509 234.392 383.185 233.693L260.382 162.838C259.024 162.149 257.522 161.79 255.999 161.79C254.476 161.79 252.975 162.149 251.616 162.838L83.5774 259.829C82.3296 260.611 81.2829 261.675 80.5216 262.936C79.7603 264.196 79.3057 265.618 79.1945 267.087Z" fill="#37474F"/>
<path d="M129.866 233.086L83.5774 259.829C82.253 260.528 81.1444 261.575 80.3712 262.858C79.5979 264.14 79.1893 265.609 79.1893 267.107C79.1893 268.605 79.5979 270.074 80.3712 271.356C81.1444 272.639 82.253 273.686 83.5774 274.385L206.39 345.291C207.741 345.997 209.25 346.345 210.773 346.303V233.086H129.866Z" fill="#263238"/>
<path d="M75.0747 259.971C73.8548 259.139 72.8473 258.033 72.1335 256.74C71.4197 255.448 71.0195 254.006 70.9651 252.531V105.971C71.0466 104.45 71.486 102.97 72.2476 101.651C73.0092 100.331 74.0715 99.2107 75.348 98.3796L243.377 1.3581C244.645 0.562544 246.106 0.127609 247.603 0.100031C249.1 0.0724532 250.576 0.453271 251.873 1.20157C253.17 1.94988 254.238 3.03738 254.963 4.34723C255.689 5.65708 256.043 7.13976 255.989 8.63597V155.206C255.906 156.726 255.466 158.206 254.704 159.525C253.943 160.844 252.882 161.965 251.606 162.797L83.5774 259.829C82.2706 260.518 80.8201 260.89 79.343 260.915C77.8658 260.939 76.4037 260.616 75.0747 259.971Z" fill="#455A64"/>
<path d="M91.5335 112.783L72.2507 101.649C71.4828 102.963 71.0613 104.45 71.0259 105.971V252.531C71.0803 254.006 71.4805 255.448 72.1943 256.74C72.9082 258.033 73.9156 259.139 75.1355 259.971C76.4648 260.611 77.9259 260.93 79.4011 260.902C80.8763 260.874 82.3242 260.499 83.6281 259.809L102.8 248.745L91.5335 112.783Z" fill="#263238"/>
<path d="M79.1945 110.729V257.278C79.1945 260.072 81.1582 261.206 83.5774 259.809L251.606 162.797C252.882 161.965 253.943 160.844 254.705 159.525C255.466 158.206 255.906 156.726 255.989 155.206V8.64618C255.989 5.85245 254.025 4.71876 251.606 6.11563L83.5774 103.137C82.3009 103.968 81.2386 105.089 80.477 106.408C79.7154 107.727 79.276 109.208 79.1945 110.729Z" fill="#37474F"/>
<path d="M83.5774 264.89L206.39 335.746C207.749 336.435 209.25 336.794 210.773 336.794C212.296 336.794 213.798 336.435 215.156 335.746L383.185 238.724C385.614 237.327 385.614 235.06 383.185 233.663L260.382 162.807C259.024 162.118 257.522 161.759 255.999 161.759C254.476 161.759 252.975 162.118 251.616 162.807L83.5774 259.829C81.1481 261.205 81.1481 263.473 83.5774 264.89Z" fill="#455A64"/>
<path d="M85.9359 111.265L249.258 16.9768C250.705 16.1366 251.89 16.8148 251.89 18.4951V145.357C251.839 146.269 251.574 147.157 251.117 147.948C250.66 148.739 250.023 149.412 249.258 149.912L85.9359 244.2C84.4783 245.04 83.3041 244.362 83.3041 242.682V115.82C83.3527 114.907 83.6165 114.019 84.0739 113.227C84.5313 112.436 85.1693 111.763 85.9359 111.265Z" fill="white"/>
<path d="M97.8295 261.074L253.803 170.986C254.482 170.642 255.233 170.463 255.994 170.463C256.756 170.463 257.506 170.642 258.186 170.986L266.172 175.592C266.437 175.682 266.666 175.852 266.829 176.079C266.991 176.306 267.079 176.578 267.079 176.857C267.079 177.136 266.991 177.409 266.829 177.636C266.666 177.862 266.437 178.033 266.172 178.122L110.168 268.2C109.489 268.544 108.738 268.724 107.977 268.724C107.216 268.724 106.465 268.544 105.786 268.2L97.8295 263.605C97.5651 263.515 97.3354 263.345 97.1728 263.118C97.0101 262.891 96.9227 262.619 96.9227 262.339C96.9227 262.06 97.0101 261.788 97.1728 261.561C97.3354 261.334 97.5651 261.164 97.8295 261.074Z" fill="#263238"/>
<path d="M118.398 272.988L274.361 182.9C275.042 182.556 275.794 182.376 276.558 182.376C277.321 182.376 278.073 182.556 278.754 182.9L327.816 211.242C328.081 211.332 328.311 211.502 328.473 211.729C328.636 211.956 328.723 212.228 328.723 212.508C328.723 212.787 328.636 213.059 328.473 213.286C328.311 213.513 328.081 213.683 327.816 213.773L172.025 303.678C171.344 304.023 170.592 304.202 169.829 304.202C169.066 304.202 168.313 304.023 167.632 303.678L118.398 275.468C118.146 275.372 117.929 275.203 117.777 274.981C117.624 274.76 117.542 274.497 117.542 274.228C117.542 273.959 117.624 273.696 117.777 273.474C117.929 273.253 118.146 273.083 118.398 272.988Z" fill="#263238"/>
<path d="M258.206 223.389L263.095 220.565C263.297 220.444 263.287 220.251 263.095 220.12L257.447 216.86C257.326 216.798 257.193 216.766 257.057 216.766C256.921 216.766 256.788 216.798 256.667 216.86L251.788 219.684C251.576 219.806 251.586 219.998 251.788 220.13L257.437 223.389C257.556 223.45 257.688 223.481 257.821 223.481C257.955 223.481 258.087 223.45 258.206 223.389ZM248.57 212.255L243.691 215.079C243.478 215.19 243.488 215.393 243.691 215.524L249.339 218.784C249.459 218.846 249.593 218.878 249.729 218.878C249.864 218.878 249.998 218.846 250.118 218.784L255.007 215.959C255.21 215.838 255.2 215.636 255.007 215.514L249.349 212.255C249.228 212.193 249.095 212.16 248.959 212.16C248.824 212.16 248.69 212.193 248.57 212.255ZM232.799 221.365L224.529 226.132C224.327 226.254 224.337 226.456 224.529 226.588L230.178 229.847C230.298 229.909 230.432 229.942 230.567 229.942C230.703 229.942 230.836 229.909 230.957 229.847L239.217 225.08C239.429 224.958 239.409 224.756 239.217 224.634L233.568 221.365C233.45 221.303 233.318 221.27 233.184 221.27C233.05 221.27 232.918 221.303 232.799 221.365ZM241.433 216.374L236.554 219.199C236.342 219.32 236.352 219.522 236.554 219.644L242.203 222.903C242.323 222.965 242.457 222.998 242.592 222.998C242.728 222.998 242.862 222.965 242.982 222.903L247.871 220.079C248.074 219.958 248.063 219.765 247.871 219.634L242.213 216.304C242.092 216.241 241.959 216.209 241.823 216.209C241.688 216.209 241.554 216.241 241.433 216.304V216.374ZM222.272 227.438L217.393 230.252C217.181 230.373 217.201 230.576 217.393 230.708L223.041 233.967C223.161 234.027 223.292 234.058 223.426 234.058C223.56 234.058 223.691 234.027 223.811 233.967L228.7 231.143C228.902 231.021 228.892 230.819 228.7 230.697L223.051 227.438C222.931 227.376 222.797 227.343 222.662 227.343C222.526 227.343 222.393 227.376 222.272 227.438ZM215.186 231.558L210.308 234.382C210.095 234.493 210.115 234.696 210.308 234.827L215.956 238.087C216.076 238.149 216.21 238.181 216.345 238.181C216.481 238.181 216.615 238.149 216.735 238.087L221.624 235.263C221.827 235.141 221.817 234.939 221.624 234.817L215.915 231.487C215.795 231.425 215.661 231.392 215.526 231.392C215.39 231.392 215.256 231.425 215.136 231.487L215.186 231.558ZM237.405 244.818L242.284 241.994C242.496 241.872 242.476 241.68 242.284 241.548L236.635 238.289C236.517 238.227 236.385 238.195 236.251 238.195C236.117 238.195 235.985 238.227 235.866 238.289L230.977 241.113C230.775 241.235 230.785 241.427 230.977 241.559L236.625 244.818C236.743 244.864 236.869 244.884 236.995 244.875C237.122 244.866 237.244 244.829 237.354 244.767L237.405 244.818ZM230.258 248.938L235.148 246.114C235.35 246.002 235.34 245.8 235.148 245.668L229.499 242.409C229.379 242.347 229.245 242.314 229.11 242.314C228.974 242.314 228.84 242.347 228.72 242.409L223.841 245.233C223.628 245.354 223.649 245.557 223.841 245.678L229.489 248.938C229.605 248.984 229.73 249.003 229.854 248.994C229.979 248.986 230.1 248.949 230.208 248.887L230.258 248.938ZM223.122 253.057L228.011 250.243C228.214 250.122 228.204 249.919 228.011 249.788L222.363 246.529C222.242 246.469 222.109 246.438 221.973 246.438C221.838 246.438 221.705 246.469 221.584 246.529L216.705 249.353C216.492 249.474 216.513 249.677 216.705 249.798L222.343 253.057C222.461 253.104 222.587 253.123 222.713 253.114C222.839 253.106 222.962 253.069 223.072 253.007L223.122 253.057ZM216.037 257.177L220.926 254.363C221.128 254.242 221.118 254.039 220.926 253.908L215.278 250.648C215.157 250.586 215.023 250.554 214.888 250.554C214.752 250.554 214.619 250.586 214.498 250.648L209.619 253.462C209.407 253.584 209.417 253.786 209.619 253.918L215.267 257.177C215.488 257.249 215.728 257.231 215.936 257.126L216.037 257.177ZM251.171 227.58L256.06 224.756C256.262 224.644 256.252 224.442 256.06 224.31L250.412 221.051C250.291 220.991 250.157 220.96 250.022 220.96C249.887 220.96 249.754 220.991 249.632 221.051L244.754 223.875C244.541 223.996 244.551 224.199 244.754 224.32L250.402 227.58C250.511 227.617 250.626 227.632 250.741 227.623C250.856 227.614 250.968 227.582 251.07 227.529L251.171 227.58ZM244.592 240.739L255.483 234.443C255.686 234.331 255.675 234.129 255.483 233.997L241.767 226.082C241.647 226.02 241.513 225.987 241.378 225.987C241.242 225.987 241.109 226.02 240.988 226.082L235.36 229.341C235.148 229.452 235.168 229.655 235.36 229.786L242.628 233.977C242.851 234.109 242.861 234.311 242.628 234.432L238.042 236.923C237.84 237.034 237.85 237.236 238.042 237.368L243.711 240.597C243.827 240.667 243.959 240.708 244.094 240.717C244.23 240.726 244.366 240.702 244.49 240.648L244.592 240.739ZM208.101 235.678L203.222 238.502C203.009 238.623 203.02 238.815 203.222 238.947L208.87 242.206C208.991 242.268 209.124 242.301 209.26 242.301C209.396 242.301 209.529 242.268 209.65 242.206L214.539 239.382C214.741 239.261 214.731 239.068 214.539 238.937L208.89 235.678C208.761 235.587 208.61 235.535 208.452 235.526C208.295 235.517 208.138 235.552 208 235.627L208.101 235.678ZM201.015 239.797L195.975 242.621C195.772 242.743 195.782 242.945 195.975 243.067L201.623 246.326C201.743 246.388 201.877 246.421 202.012 246.421C202.148 246.421 202.282 246.388 202.402 246.326L207.291 243.502C207.494 243.391 207.483 243.188 207.291 243.057L201.602 239.767C201.489 239.708 201.363 239.676 201.235 239.672C201.107 239.669 200.98 239.694 200.864 239.747L201.015 239.797ZM165.162 285.955C165.283 286.017 165.417 286.049 165.552 286.049C165.688 286.049 165.821 286.017 165.942 285.955L170.831 283.13C171.033 283.019 171.023 282.817 170.831 282.685L165.162 279.446C165.042 279.384 164.908 279.351 164.773 279.351C164.637 279.351 164.504 279.384 164.383 279.446L159.504 282.27C159.292 282.392 159.302 282.594 159.504 282.715L165.162 285.955ZM143.734 272.715L138.845 275.539C138.642 275.66 138.652 275.853 138.845 275.984L144.493 279.244C144.613 279.306 144.747 279.338 144.883 279.338C145.018 279.338 145.152 279.306 145.272 279.244L150.161 276.419C150.364 276.298 150.354 276.106 150.161 275.974L144.513 272.715C144.397 272.658 144.268 272.628 144.139 272.628C144.009 272.628 143.881 272.658 143.764 272.715H143.734ZM155.222 282.381C155.343 282.444 155.477 282.476 155.612 282.476C155.748 282.476 155.881 282.444 156.002 282.381L160.881 279.557C161.093 279.446 161.073 279.244 160.881 279.112L155.243 275.853C155.122 275.79 154.989 275.758 154.853 275.758C154.717 275.758 154.584 275.79 154.463 275.853L149.574 278.677C149.372 278.798 149.382 279.001 149.574 279.122L155.222 282.381ZM177.765 288.455L182.654 285.631C182.856 285.509 182.846 285.317 182.654 285.185L177.005 281.926C176.885 281.864 176.751 281.831 176.616 281.831C176.48 281.831 176.347 281.864 176.226 281.926L171.347 284.75C171.135 284.861 171.155 285.064 171.347 285.195L176.985 288.455C177.109 288.524 177.247 288.561 177.389 288.562C177.53 288.564 177.67 288.531 177.795 288.465L177.765 288.455ZM169.849 292.504C169.97 292.566 170.103 292.598 170.239 292.598C170.374 292.598 170.508 292.566 170.628 292.504L175.518 289.68C175.72 289.568 175.71 289.366 175.518 289.234L169.869 285.975C169.749 285.913 169.615 285.88 169.48 285.88C169.344 285.88 169.21 285.913 169.09 285.975L164.211 288.799C163.998 288.92 164.009 289.123 164.211 289.244L169.849 292.504ZM150.87 268.534L145.991 271.358C145.778 271.47 145.789 271.672 145.991 271.804L151.639 275.063C151.76 275.125 151.893 275.158 152.029 275.158C152.164 275.158 152.298 275.125 152.419 275.063L157.308 272.239C157.51 272.118 157.5 271.915 157.308 271.794L151.659 268.534C151.537 268.485 151.404 268.464 151.273 268.475C151.141 268.485 151.013 268.527 150.9 268.595L150.87 268.534ZM186.561 247.936L181.672 250.749C181.469 250.871 181.479 251.073 181.672 251.195L187.32 254.464C187.441 254.524 187.575 254.555 187.71 254.555C187.845 254.555 187.978 254.524 188.099 254.464L192.978 251.65C193.191 251.529 193.181 251.326 192.978 251.195L187.33 247.936C187.21 247.889 187.082 247.871 186.954 247.881C186.826 247.892 186.702 247.931 186.591 247.996L186.561 247.936ZM158.077 264.475L153.198 267.289C152.985 267.411 152.996 267.613 153.198 267.745L158.846 271.004C158.967 271.064 159.101 271.095 159.236 271.095C159.371 271.095 159.504 271.064 159.626 271.004L164.515 268.18C164.717 268.058 164.707 267.856 164.515 267.735L158.866 264.465C158.743 264.405 158.608 264.375 158.47 264.377C158.333 264.378 158.199 264.412 158.077 264.475ZM193.768 243.866L188.838 246.67C188.636 246.792 188.646 246.994 188.838 247.116L194.487 250.375C194.607 250.437 194.741 250.47 194.876 250.47C195.012 250.47 195.145 250.437 195.266 250.375L200.145 247.561C200.357 247.44 200.347 247.237 200.145 247.105L194.517 243.887C194.396 243.822 194.262 243.787 194.125 243.783C193.987 243.78 193.851 243.808 193.727 243.866H193.768ZM179.496 252.116L174.607 254.93C174.404 255.051 174.414 255.254 174.607 255.385L180.255 258.645C180.376 258.705 180.509 258.736 180.644 258.736C180.78 258.736 180.913 258.705 181.034 258.645L185.913 255.831C186.126 255.709 186.105 255.507 185.913 255.375L180.275 252.116C180.149 252.049 180.008 252.015 179.865 252.015C179.722 252.015 179.581 252.049 179.455 252.116H179.496ZM172.349 256.236L167.47 259.05C167.258 259.171 167.278 259.374 167.47 259.505L173.119 262.765C173.24 262.824 173.373 262.855 173.508 262.855C173.643 262.855 173.777 262.824 173.898 262.765L178.777 259.951C178.979 259.829 178.969 259.627 178.777 259.495L173.129 256.236C173.002 256.169 172.862 256.134 172.719 256.134C172.576 256.134 172.435 256.169 172.309 256.236H172.349ZM165.162 260.355L160.284 263.169C160.071 263.291 160.091 263.493 160.284 263.625L165.922 266.884C166.042 266.946 166.176 266.979 166.311 266.979C166.447 266.979 166.581 266.946 166.701 266.884L171.59 264.07C171.793 263.949 171.782 263.746 171.59 263.615L165.942 260.355C165.821 260.296 165.687 260.265 165.552 260.265C165.417 260.265 165.284 260.296 165.162 260.355ZM201.653 265.417L206.532 262.603C206.745 262.481 206.734 262.279 206.532 262.147L200.874 258.817C200.752 258.757 200.619 258.726 200.484 258.726C200.349 258.726 200.215 258.757 200.094 258.817L195.205 261.631C195.003 261.752 195.013 261.955 195.205 262.086L200.853 265.346C200.976 265.416 201.114 265.455 201.256 265.458C201.397 265.462 201.537 265.43 201.663 265.366L201.653 265.417ZM264.36 203.145L259.471 205.969C259.269 206.09 259.279 206.283 259.471 206.414L265.119 209.674C265.24 209.736 265.374 209.768 265.509 209.768C265.645 209.768 265.778 209.736 265.899 209.674L270.778 206.849C270.99 206.728 270.98 206.536 270.778 206.404L265.13 203.145C265.01 203.084 264.879 203.053 264.745 203.053C264.611 203.053 264.479 203.084 264.36 203.145ZM255.716 208.135L250.837 210.959C250.624 211.07 250.645 211.273 250.837 211.404L256.475 214.664C256.596 214.724 256.73 214.755 256.865 214.755C257 214.755 257.133 214.724 257.254 214.664L262.143 211.84C262.346 211.718 262.336 211.516 262.143 211.394L256.495 208.135C256.378 208.063 256.244 208.021 256.107 208.012C255.969 208.003 255.832 208.028 255.706 208.084L255.716 208.135ZM271.496 199.025L266.618 201.849C266.405 201.96 266.415 202.163 266.618 202.294L272.266 205.554C272.386 205.616 272.52 205.648 272.655 205.648C272.791 205.648 272.925 205.616 273.045 205.554L277.934 202.73C278.137 202.608 278.126 202.406 277.934 202.284L272.286 199.025C272.162 198.944 272.02 198.897 271.873 198.888C271.725 198.88 271.578 198.909 271.446 198.974L271.496 199.025ZM234.55 237.125L239.439 234.301C239.642 234.179 239.632 233.977 239.439 233.856L233.791 230.596C233.671 230.534 233.537 230.502 233.401 230.502C233.266 230.502 233.132 230.534 233.012 230.596L228.133 233.42C227.92 233.532 227.93 233.734 228.133 233.866L233.781 237.125C233.903 237.176 234.035 237.198 234.167 237.189C234.298 237.181 234.426 237.141 234.54 237.074L234.55 237.125ZM279.412 194.925C279.291 194.863 279.158 194.831 279.022 194.831C278.887 194.831 278.753 194.863 278.633 194.925L273.754 197.75C273.541 197.861 273.551 198.063 273.754 198.195L279.402 201.454C279.523 201.514 279.656 201.545 279.792 201.545C279.927 201.545 280.06 201.514 280.181 201.454L285.07 198.63C285.273 198.509 285.263 198.306 285.07 198.185L279.412 194.925ZM208.799 261.246L213.688 258.432C213.891 258.311 213.881 258.108 213.688 257.977L208.01 254.768C207.889 254.706 207.756 254.673 207.62 254.673C207.485 254.673 207.351 254.706 207.23 254.768L202.352 257.582C202.139 257.703 202.149 257.906 202.352 258.037L208 261.297C208.128 261.352 208.267 261.377 208.406 261.368C208.545 261.359 208.68 261.317 208.799 261.246ZM296.326 210.716L301.215 207.892C301.418 207.781 301.408 207.578 301.215 207.447L295.537 204.157C295.416 204.095 295.283 204.062 295.147 204.062C295.011 204.062 294.878 204.095 294.757 204.157L289.878 206.981C289.666 207.102 289.676 207.305 289.878 207.426L295.527 210.686C295.647 210.756 295.783 210.796 295.923 210.801C296.062 210.806 296.201 210.777 296.326 210.716ZM281.143 210.18L286.032 207.356C286.234 207.234 286.224 207.042 286.032 206.91L280.384 203.651C280.263 203.589 280.13 203.556 279.994 203.556C279.858 203.556 279.725 203.589 279.604 203.651L274.725 206.475C274.513 206.596 274.523 206.789 274.725 206.92L280.374 210.18C280.486 210.245 280.612 210.283 280.742 210.292C280.872 210.301 281.002 210.28 281.123 210.23L281.143 210.18ZM287.49 199.531C287.369 199.469 287.235 199.437 287.1 199.437C286.964 199.437 286.831 199.469 286.71 199.531L281.831 202.355C281.619 202.467 281.629 202.669 281.831 202.801L287.479 206.06C287.6 206.122 287.734 206.154 287.869 206.154C288.005 206.154 288.138 206.122 288.259 206.06L293.148 203.236C293.35 203.114 293.34 202.912 293.148 202.79L287.49 199.531ZM288.998 198.661L302.703 206.576C302.824 206.638 302.957 206.671 303.093 206.671C303.229 206.671 303.362 206.638 303.483 206.576L308.372 203.752C308.574 203.631 308.564 203.438 308.372 203.307L294.656 195.391C294.536 195.329 294.402 195.297 294.266 195.297C294.131 195.297 293.997 195.329 293.877 195.391L288.998 198.215C288.735 198.327 288.755 198.529 288.977 198.661H288.998ZM272.438 207.771L267.549 210.595C267.346 210.716 267.356 210.919 267.549 211.04L273.197 214.299C273.317 214.362 273.451 214.394 273.587 214.394C273.722 214.394 273.856 214.362 273.976 214.299L278.855 211.475C279.068 211.364 279.058 211.162 278.855 211.03L273.207 207.771C273.092 207.71 272.965 207.677 272.835 207.673C272.705 207.67 272.576 207.696 272.458 207.75L272.438 207.771ZM218.719 238.785L213.81 241.609C213.607 241.731 213.618 241.933 213.81 242.055L219.458 245.314C219.579 245.376 219.712 245.408 219.848 245.408C219.983 245.408 220.117 245.376 220.237 245.314L225.116 242.49C225.329 242.378 225.319 242.176 225.116 242.044L219.468 238.785C219.351 238.721 219.22 238.686 219.086 238.683C218.952 238.679 218.82 238.707 218.699 238.765L218.719 238.785ZM288.431 214.836C288.551 214.898 288.685 214.93 288.821 214.93C288.956 214.93 289.09 214.898 289.21 214.836L294.099 212.012C294.302 211.9 294.292 211.698 294.099 211.566L288.451 208.307C288.33 208.247 288.197 208.216 288.061 208.216C287.926 208.216 287.793 208.247 287.672 208.307L282.793 211.131C282.58 211.253 282.59 211.455 282.793 211.576L288.431 214.836ZM225.855 234.665L220.976 237.489C220.764 237.611 220.774 237.803 220.976 237.935L226.625 241.194C226.745 241.256 226.879 241.289 227.014 241.289C227.15 241.289 227.284 241.256 227.404 241.194L232.293 238.37C232.495 238.249 232.485 238.056 232.293 237.925L226.645 234.665C226.522 234.595 226.384 234.556 226.243 234.553C226.101 234.549 225.961 234.581 225.835 234.645L225.855 234.665ZM172.349 281.855C172.47 281.917 172.603 281.95 172.739 281.95C172.875 281.95 173.008 281.917 173.129 281.855L178.018 279.031C178.22 278.91 178.21 278.717 178.018 278.586L172.369 275.326C172.249 275.264 172.115 275.232 171.98 275.232C171.844 275.232 171.711 275.264 171.59 275.326L166.711 278.15C166.499 278.272 166.519 278.464 166.711 278.596L172.349 281.855ZM161.62 271.733L156.731 274.557C156.528 274.678 156.538 274.871 156.731 275.002L162.379 278.262C162.499 278.324 162.633 278.356 162.769 278.356C162.904 278.356 163.038 278.324 163.158 278.262L168.037 275.438C168.25 275.316 168.24 275.124 168.037 274.992L162.389 271.733C162.267 271.669 162.132 271.636 161.994 271.636C161.857 271.636 161.721 271.669 161.599 271.733H161.62ZM180.275 277.735L185.154 274.911C185.356 274.79 185.346 274.587 185.154 274.466L179.506 271.206C179.385 271.144 179.252 271.112 179.116 271.112C178.98 271.112 178.847 271.144 178.726 271.206L173.797 274C173.594 274.112 173.604 274.314 173.797 274.446L179.445 277.705C179.567 277.777 179.705 277.818 179.846 277.823C179.987 277.828 180.128 277.798 180.255 277.735H180.275ZM187.411 273.616L192.29 270.791C192.503 270.67 192.482 270.468 192.29 270.346L186.652 267.087C186.531 267.025 186.398 266.992 186.262 266.992C186.127 266.992 185.993 267.025 185.873 267.087L180.984 269.901C180.781 270.022 180.791 270.225 180.984 270.356L186.632 273.616C186.756 273.679 186.893 273.712 187.032 273.712C187.171 273.712 187.308 273.679 187.431 273.616H187.411ZM194.497 269.486L199.376 266.672C199.588 266.55 199.578 266.348 199.376 266.226L193.727 262.957C193.606 262.897 193.473 262.866 193.338 262.866C193.203 262.866 193.069 262.897 192.948 262.957L188.059 265.771C187.856 265.892 187.867 266.095 188.059 266.226L193.707 269.486C193.831 269.553 193.971 269.588 194.112 269.588C194.253 269.588 194.393 269.553 194.517 269.486H194.497ZM168.705 267.613L163.816 270.437C163.614 270.549 163.624 270.751 163.816 270.883L169.464 274.142C169.585 274.204 169.719 274.237 169.854 274.237C169.99 274.237 170.123 274.204 170.244 274.142L175.133 271.318C175.335 271.196 175.325 270.994 175.133 270.872L169.485 267.613C169.368 267.556 169.24 267.526 169.11 267.526C168.98 267.526 168.852 267.556 168.736 267.613H168.705ZM175.841 263.493L170.963 266.307C170.75 266.429 170.76 266.631 170.963 266.763L176.611 270.022C176.732 270.082 176.865 270.113 177 270.113C177.136 270.113 177.269 270.082 177.39 270.022L182.37 267.218C182.573 267.097 182.563 266.894 182.37 266.773L176.722 263.514C176.595 263.436 176.449 263.393 176.3 263.39C176.15 263.386 176.003 263.422 175.872 263.493H175.841ZM204.396 247.014L199.578 249.828C199.376 249.95 199.386 250.152 199.578 250.284L205.226 253.543C205.347 253.603 205.481 253.634 205.616 253.634C205.751 253.634 205.884 253.603 206.006 253.543L210.885 250.729C211.097 250.608 211.077 250.405 210.885 250.274L205.246 247.014C205.121 246.945 204.98 246.909 204.837 246.909C204.693 246.909 204.552 246.945 204.427 247.014H204.396ZM197.25 251.134L192.371 253.948C192.169 254.07 192.179 254.272 192.371 254.404L198.019 257.663C198.14 257.723 198.274 257.754 198.409 257.754C198.544 257.754 198.677 257.723 198.799 257.663L203.678 254.849C203.89 254.728 203.87 254.525 203.678 254.393L198.029 251.134C197.912 251.079 197.784 251.051 197.655 251.051C197.525 251.051 197.397 251.079 197.28 251.134H197.25ZM211.532 242.885L206.664 245.709C206.461 245.83 206.471 246.033 206.664 246.154L212.312 249.423C212.433 249.483 212.566 249.514 212.701 249.514C212.837 249.514 212.97 249.483 213.091 249.423L217.97 246.599C218.183 246.488 218.173 246.286 217.97 246.154L212.322 242.895C212.204 242.836 212.075 242.805 211.943 242.804C211.812 242.802 211.682 242.829 211.563 242.885H211.532ZM182.978 259.374L178.099 262.188C177.886 262.309 177.896 262.512 178.099 262.643L183.747 265.902C183.868 265.962 184.001 265.993 184.137 265.993C184.272 265.993 184.405 265.962 184.526 265.902L189.415 263.078C189.618 262.957 189.608 262.754 189.415 262.633L183.767 259.364C183.648 259.308 183.518 259.281 183.386 259.283C183.255 259.284 183.126 259.315 183.008 259.374H182.978ZM190.114 255.254L185.235 258.068C185.022 258.189 185.043 258.392 185.235 258.523L190.883 261.783C191.002 261.845 191.134 261.877 191.268 261.877C191.402 261.877 191.534 261.845 191.652 261.783L196.541 258.969C196.744 258.847 196.734 258.645 196.541 258.513L190.893 255.254C190.776 255.199 190.648 255.17 190.519 255.17C190.389 255.17 190.261 255.199 190.144 255.254H190.114ZM184.911 284.345L189.79 281.521C189.992 281.4 189.982 281.197 189.79 281.076L184.142 277.816C184.021 277.754 183.888 277.722 183.752 277.722C183.616 277.722 183.483 277.754 183.362 277.816L178.483 280.64C178.271 280.752 178.291 280.954 178.483 281.086L184.132 284.345C184.256 284.412 184.395 284.448 184.536 284.448C184.678 284.448 184.817 284.412 184.941 284.345H184.911ZM143.056 280.074L137.407 276.814C137.287 276.752 137.153 276.72 137.018 276.72C136.882 276.72 136.748 276.752 136.628 276.814L131.759 279.659C131.557 279.78 131.567 279.972 131.759 280.104L137.407 283.363C137.528 283.425 137.661 283.458 137.797 283.458C137.933 283.458 138.066 283.425 138.187 283.363L143.066 280.539C143.288 280.448 143.278 280.246 143.056 280.074ZM153.745 283.211L148.096 279.952C147.977 279.892 147.845 279.861 147.712 279.861C147.578 279.861 147.447 279.892 147.327 279.952L139.857 284.315C139.654 284.436 139.665 284.639 139.857 284.76L145.505 288.02C145.626 288.082 145.759 288.114 145.895 288.114C146.03 288.114 146.164 288.082 146.285 288.02L153.795 283.687C154.028 283.586 153.967 283.384 153.745 283.252V283.211ZM134.391 273.767L128.722 270.549C128.602 270.486 128.468 270.454 128.333 270.454C128.197 270.454 128.064 270.486 127.943 270.549L121.951 274C121.748 274.122 121.758 274.324 121.951 274.456L127.599 277.715C127.719 277.777 127.853 277.81 127.989 277.81C128.124 277.81 128.258 277.777 128.378 277.715L134.381 274.253C134.624 274.142 134.614 273.939 134.391 273.808V273.767ZM138.997 271.105C139.117 271.167 139.251 271.2 139.386 271.2C139.522 271.2 139.655 271.167 139.776 271.105L144.655 268.281C144.867 268.17 144.857 267.967 144.655 267.836L139.007 264.576C138.886 264.514 138.753 264.482 138.617 264.482C138.481 264.482 138.348 264.514 138.227 264.576L133.338 267.401C133.136 267.522 133.146 267.724 133.338 267.846L138.997 271.105ZM163.695 286.785L158.077 283.566C157.956 283.506 157.822 283.475 157.687 283.475C157.552 283.475 157.419 283.506 157.298 283.566L147.904 288.991C147.702 289.113 147.712 289.315 147.904 289.437L153.552 292.706C153.673 292.766 153.807 292.797 153.942 292.797C154.077 292.797 154.211 292.766 154.332 292.706L163.725 287.281C163.928 287.159 163.917 286.957 163.695 286.825V286.785ZM168.381 293.394L162.733 290.196C162.613 290.134 162.479 290.101 162.343 290.101C162.208 290.101 162.074 290.134 161.954 290.196L155.941 293.668C155.739 293.789 155.749 293.992 155.941 294.123L161.589 297.383C161.711 297.442 161.844 297.473 161.979 297.473C162.114 297.473 162.248 297.442 162.369 297.383L168.381 293.911C168.614 293.769 168.604 293.566 168.381 293.435V293.394ZM192.067 240.465C192.188 240.527 192.321 240.56 192.457 240.56C192.593 240.56 192.726 240.527 192.847 240.465L197.726 237.651C197.938 237.53 197.918 237.327 197.726 237.196L192.077 233.937C191.956 233.877 191.823 233.846 191.688 233.846C191.553 233.846 191.419 233.877 191.298 233.937L186.419 236.801C186.217 236.923 186.227 237.125 186.419 237.246L192.067 240.465ZM177.785 248.715C177.906 248.775 178.039 248.806 178.175 248.806C178.31 248.806 178.443 248.775 178.564 248.715L183.453 245.901C183.656 245.779 183.646 245.577 183.453 245.445L177.805 242.186C177.684 242.126 177.551 242.095 177.415 242.095C177.28 242.095 177.147 242.126 177.026 242.186L172.147 245C171.934 245.122 171.954 245.324 172.147 245.456L177.785 248.715ZM146.133 267.026C146.253 267.088 146.387 267.121 146.522 267.121C146.658 267.121 146.792 267.088 146.912 267.026L151.791 264.202C152.004 264.08 151.993 263.888 151.791 263.757L146.143 260.497C146.022 260.435 145.889 260.403 145.753 260.403C145.618 260.403 145.484 260.435 145.363 260.497L140.474 263.321C140.272 263.443 140.282 263.635 140.474 263.767L146.133 267.026ZM184.931 244.646C185.051 244.705 185.182 244.737 185.316 244.737C185.449 244.737 185.581 244.705 185.7 244.646L190.589 241.832C190.792 241.71 190.782 241.508 190.589 241.376L184.941 238.117C184.821 238.055 184.687 238.022 184.552 238.022C184.416 238.022 184.282 238.055 184.162 238.117L179.283 240.931C179.07 241.052 179.091 241.255 179.283 241.386L184.931 244.646ZM170.649 252.885C170.769 252.947 170.903 252.98 171.038 252.98C171.174 252.98 171.308 252.947 171.428 252.885L176.317 250.071C176.52 249.95 176.509 249.747 176.317 249.616L170.669 246.356C170.548 246.297 170.414 246.266 170.279 246.266C170.144 246.266 170.011 246.297 169.89 246.356L165.011 249.17C164.798 249.292 164.808 249.494 165.011 249.626L170.649 252.885ZM172.299 293.971C172.177 293.912 172.044 293.88 171.909 293.88C171.774 293.88 171.64 293.912 171.519 293.971L164.009 298.294C163.806 298.415 163.816 298.617 164.009 298.749L169.657 302.008C169.777 302.071 169.911 302.103 170.046 302.103C170.182 302.103 170.316 302.071 170.436 302.008L177.947 297.676C178.159 297.555 178.139 297.352 177.947 297.221L172.299 293.971ZM160.405 258.817C160.526 258.877 160.66 258.908 160.795 258.908C160.93 258.908 161.063 258.877 161.184 258.817L166.073 255.993C166.276 255.871 166.266 255.669 166.073 255.547L160.425 252.288C160.305 252.226 160.171 252.193 160.036 252.193C159.9 252.193 159.766 252.226 159.646 252.288L154.767 255.112C154.554 255.224 154.565 255.426 154.767 255.558L160.405 258.817ZM153.269 262.866C153.389 262.928 153.523 262.96 153.659 262.96C153.794 262.96 153.928 262.928 154.048 262.866L158.937 260.042C159.14 259.92 159.13 259.718 158.937 259.596L153.289 256.337C153.169 256.275 153.035 256.242 152.899 256.242C152.764 256.242 152.63 256.275 152.51 256.337L147.631 259.161C147.418 259.272 147.428 259.475 147.631 259.606L153.269 262.866ZM304.535 217.619C304.415 217.557 304.281 217.525 304.146 217.525C304.01 217.525 303.876 217.557 303.756 217.619L291.69 224.543C291.488 224.665 291.498 224.867 291.69 224.999L297.338 228.258C297.46 228.318 297.593 228.349 297.728 228.349C297.863 228.349 297.997 228.318 298.118 228.258L310.204 221.365C310.416 221.243 310.406 221.041 310.204 220.909L304.535 217.619ZM288.755 226.729C288.634 226.667 288.501 226.635 288.365 226.635C288.229 226.635 288.096 226.667 287.975 226.729L283.096 229.543C282.884 229.665 282.894 229.867 283.096 229.999L288.745 233.258C288.866 233.318 288.999 233.349 289.134 233.349C289.27 233.349 289.403 233.318 289.524 233.258L294.413 230.444C294.616 230.323 294.605 230.12 294.413 229.989L288.755 226.729ZM192.077 280.225L196.956 277.401C197.169 277.28 197.149 277.077 196.956 276.956L191.318 273.686C191.197 273.627 191.064 273.596 190.929 273.596C190.793 273.596 190.66 273.627 190.539 273.686L185.65 276.5C185.447 276.622 185.458 276.824 185.65 276.956L191.298 280.215C191.418 280.277 191.551 280.31 191.687 280.311C191.822 280.313 191.955 280.284 192.077 280.225ZM274.482 234.969C274.361 234.909 274.228 234.878 274.093 234.878C273.958 234.878 273.824 234.909 273.703 234.969L268.814 237.783C268.612 237.904 268.622 238.107 268.814 238.238L274.462 241.498C274.583 241.56 274.716 241.592 274.852 241.592C274.987 241.592 275.121 241.56 275.242 241.498L280.121 238.684C280.333 238.562 280.323 238.36 280.121 238.228L274.482 234.969ZM311.671 213.5C311.55 213.44 311.417 213.409 311.282 213.409C311.147 213.409 311.013 213.44 310.892 213.5L306.013 216.304C305.801 216.425 305.811 216.627 306.013 216.749L311.661 220.018C311.783 220.078 311.916 220.109 312.051 220.109C312.186 220.109 312.32 220.078 312.441 220.018L317.33 217.204C317.532 217.083 317.522 216.881 317.33 216.749L311.671 213.5ZM324.456 212.639L310.74 204.724C310.62 204.662 310.486 204.629 310.351 204.629C310.215 204.629 310.081 204.662 309.961 204.724L305.082 207.548C304.869 207.669 304.88 207.872 305.082 207.993L318.798 215.909C318.918 215.971 319.052 216.003 319.187 216.003C319.323 216.003 319.456 215.971 319.577 215.909L324.466 213.085C324.689 212.973 324.679 212.771 324.456 212.639ZM247.81 250.375C247.69 250.313 247.556 250.28 247.421 250.28C247.285 250.28 247.152 250.313 247.031 250.375L241.018 253.847C240.816 253.968 240.826 254.171 241.018 254.292L246.667 257.552C246.787 257.614 246.921 257.646 247.056 257.646C247.192 257.646 247.326 257.614 247.446 257.552L253.459 254.08C253.661 253.958 253.651 253.756 253.459 253.634L247.81 250.375ZM265.838 239.959C265.718 239.897 265.584 239.865 265.448 239.865C265.313 239.865 265.179 239.897 265.059 239.959L257.548 244.292C257.346 244.413 257.356 244.615 257.548 244.737L263.196 248.006C263.317 248.066 263.451 248.097 263.586 248.097C263.721 248.097 263.854 248.066 263.976 248.006L271.486 243.674C271.689 243.553 271.679 243.35 271.486 243.219L265.838 239.959ZM231.281 259.91C231.16 259.85 231.026 259.819 230.891 259.819C230.756 259.819 230.623 259.85 230.501 259.91L190.306 283.11C190.104 283.232 190.114 283.434 190.306 283.566L195.954 286.825C196.075 286.885 196.209 286.916 196.344 286.916C196.479 286.916 196.612 286.885 196.734 286.825L236.929 263.615C237.131 263.493 237.121 263.291 236.929 263.159L231.281 259.91ZM188.828 284.426C188.708 284.364 188.574 284.332 188.439 284.332C188.303 284.332 188.169 284.364 188.049 284.426L182.046 287.898C181.834 288.02 181.844 288.222 182.046 288.343L187.695 291.603C187.815 291.665 187.949 291.697 188.084 291.697C188.22 291.697 188.353 291.665 188.474 291.603L194.517 288.171C194.719 288.05 194.709 287.847 194.517 287.726L188.828 284.426ZM239.541 255.143C239.419 255.083 239.286 255.052 239.151 255.052C239.016 255.052 238.882 255.083 238.761 255.143L232.759 258.614C232.546 258.736 232.556 258.938 232.759 259.07L238.407 262.329C238.528 262.389 238.661 262.42 238.797 262.42C238.932 262.42 239.065 262.389 239.186 262.329L245.199 258.857C245.411 258.746 245.391 258.544 245.199 258.412L239.541 255.143ZM180.569 289.184C180.447 289.124 180.314 289.093 180.179 289.093C180.044 289.093 179.91 289.124 179.789 289.184L173.776 292.655C173.574 292.777 173.584 292.979 173.776 293.111L179.425 296.37C179.546 296.43 179.679 296.461 179.814 296.461C179.95 296.461 180.083 296.43 180.204 296.37L186.207 292.909C186.419 292.787 186.409 292.585 186.207 292.453L180.569 289.184ZM256.07 245.587C255.949 245.527 255.816 245.496 255.68 245.496C255.545 245.496 255.412 245.527 255.291 245.587L249.288 249.049C249.076 249.17 249.086 249.373 249.288 249.504L254.936 252.764C255.058 252.824 255.191 252.855 255.326 252.855C255.461 252.855 255.595 252.824 255.716 252.764L261.728 249.292C261.941 249.17 261.921 248.968 261.728 248.836L256.07 245.587ZM281.619 230.839C281.498 230.777 281.365 230.745 281.229 230.745C281.093 230.745 280.96 230.777 280.839 230.839L275.96 233.653C275.748 233.775 275.758 233.977 275.96 234.109L281.609 237.368C281.73 237.428 281.863 237.459 281.998 237.459C282.133 237.459 282.267 237.428 282.388 237.368L287.277 234.554C287.479 234.432 287.469 234.23 287.277 234.098L281.619 230.839ZM297.257 219.482L302.136 216.668C302.349 216.547 302.339 216.344 302.136 216.212L296.488 212.953C296.367 212.893 296.234 212.862 296.098 212.862C295.963 212.862 295.83 212.893 295.709 212.953L290.82 215.777C290.617 215.899 290.627 216.101 290.82 216.223L296.468 219.492C296.59 219.554 296.726 219.586 296.863 219.586C297 219.586 297.135 219.554 297.257 219.492V219.482ZM265.372 219.34L270.261 216.516C270.464 216.395 270.454 216.192 270.261 216.071L264.613 212.811C264.493 212.749 264.359 212.717 264.224 212.717C264.088 212.717 263.954 212.749 263.834 212.811L258.955 215.636C258.742 215.757 258.763 215.949 258.955 216.081L264.593 219.34C264.714 219.402 264.847 219.435 264.983 219.435C265.118 219.435 265.252 219.402 265.372 219.34ZM249.177 247.308L263.449 239.068C263.652 238.947 263.642 238.745 263.449 238.613L257.801 235.354C257.68 235.294 257.547 235.263 257.411 235.263C257.276 235.263 257.143 235.294 257.022 235.354L242.749 243.603C242.547 243.715 242.557 243.917 242.749 244.049L248.398 247.308C248.522 247.362 248.658 247.386 248.793 247.377C248.929 247.369 249.06 247.327 249.177 247.257V247.308ZM289.342 223.652C289.463 223.712 289.596 223.743 289.732 223.743C289.867 223.743 290 223.712 290.121 223.652L295 220.838C295.213 220.717 295.203 220.514 295 220.383L289.352 217.123C289.232 217.061 289.098 217.029 288.962 217.029C288.827 217.029 288.693 217.061 288.573 217.123L283.684 219.937C283.481 220.059 283.491 220.261 283.684 220.393L289.342 223.652ZM282.054 219.006L286.933 216.192C287.145 216.071 287.135 215.868 286.933 215.737L281.285 212.477C281.163 212.418 281.03 212.386 280.895 212.386C280.76 212.386 280.626 212.418 280.505 212.477L275.616 215.301C275.414 215.423 275.424 215.625 275.616 215.747L281.264 219.016C281.392 219.069 281.529 219.09 281.666 219.08C281.803 219.069 281.936 219.027 282.054 218.956V219.006ZM242.041 251.397L246.92 248.573C247.132 248.452 247.112 248.259 246.92 248.128L241.271 244.868C241.151 244.806 241.017 244.774 240.882 244.774C240.746 244.774 240.613 244.806 240.492 244.868L235.583 247.682C235.37 247.804 235.39 247.996 235.583 248.128L241.231 251.387C241.362 251.462 241.511 251.501 241.663 251.499C241.814 251.497 241.962 251.455 242.091 251.377L242.041 251.397ZM273.561 232.732C273.683 232.792 273.816 232.823 273.951 232.823C274.086 232.823 274.22 232.792 274.341 232.732L279.23 229.918C279.432 229.797 279.422 229.594 279.23 229.462L273.582 226.203C273.46 226.143 273.327 226.112 273.192 226.112C273.057 226.112 272.923 226.143 272.802 226.203L267.923 229.027C267.711 229.149 267.721 229.351 267.923 229.473L273.561 232.732ZM206.35 271.976L211.229 269.162C211.441 269.04 211.431 268.838 211.229 268.706L205.58 265.447C205.459 265.387 205.326 265.356 205.191 265.356C205.056 265.356 204.922 265.387 204.801 265.447L199.912 268.261C199.71 268.382 199.72 268.585 199.912 268.716L205.56 271.976C205.683 272.037 205.818 272.069 205.955 272.069C206.092 272.069 206.227 272.037 206.35 271.976ZM213.486 267.856L218.375 265.042C218.577 264.921 218.567 264.718 218.375 264.587L212.737 261.327C212.616 261.265 212.483 261.233 212.347 261.233C212.212 261.233 212.078 261.265 211.957 261.327L207.068 264.141C206.866 264.263 206.876 264.465 207.068 264.597L212.717 267.856C212.837 267.914 212.968 267.944 213.101 267.944C213.235 267.944 213.366 267.914 213.486 267.856ZM199.214 276.096L204.093 273.282C204.305 273.16 204.295 272.958 204.093 272.826L198.454 269.567C198.333 269.507 198.2 269.476 198.065 269.476C197.93 269.476 197.796 269.507 197.675 269.567L192.786 272.381C192.584 272.502 192.594 272.705 192.786 272.836L198.434 276.096C198.555 276.158 198.688 276.19 198.824 276.19C198.96 276.19 199.093 276.158 199.214 276.096ZM227.758 259.617L232.647 256.803C232.85 256.681 232.84 256.479 232.647 256.347L226.999 253.088C226.878 253.028 226.745 252.997 226.609 252.997C226.474 252.997 226.341 253.028 226.22 253.088L221.341 255.912C221.128 256.033 221.138 256.236 221.341 256.357L226.989 259.617C227.108 259.677 227.24 259.709 227.374 259.709C227.507 259.709 227.639 259.677 227.758 259.617ZM220.673 263.736L225.562 260.922C225.764 260.801 225.754 260.598 225.562 260.467L219.822 257.207C219.702 257.145 219.568 257.113 219.433 257.113C219.297 257.113 219.164 257.145 219.043 257.207L214.164 260.021C213.952 260.143 213.962 260.345 214.164 260.467L219.812 263.736C219.937 263.801 220.076 263.835 220.217 263.835C220.358 263.835 220.497 263.801 220.622 263.736H220.673ZM234.945 255.497L239.834 252.673C240.037 252.561 240.026 252.359 239.834 252.227L234.186 248.968C234.065 248.906 233.932 248.873 233.796 248.873C233.661 248.873 233.527 248.906 233.407 248.968L228.447 251.731C228.234 251.853 228.254 252.055 228.447 252.177L234.085 255.436C234.204 255.513 234.34 255.559 234.482 255.569C234.623 255.58 234.765 255.555 234.894 255.497H234.945ZM267.599 194.531C267.72 194.593 267.853 194.625 267.989 194.625C268.125 194.625 268.258 194.593 268.379 194.531L273.268 191.707C273.47 191.595 273.46 191.393 273.268 191.261L271.77 190.391C271.649 190.331 271.515 190.3 271.38 190.3C271.245 190.3 271.111 190.331 270.99 190.391L266.101 193.205C265.899 193.326 265.909 193.529 266.101 193.66L267.599 194.531ZM232.485 217.204C232.606 217.267 232.739 217.299 232.875 217.299C233.011 217.299 233.144 217.267 233.265 217.204L238.144 214.39C238.356 214.269 238.346 214.067 238.144 213.935L232.495 210.676C232.374 210.616 232.241 210.585 232.106 210.585C231.971 210.585 231.837 210.616 231.716 210.676L226.827 213.49C226.625 213.611 226.635 213.814 226.827 213.945L232.485 217.204ZM246.758 208.965C246.879 209.025 247.012 209.056 247.147 209.056C247.283 209.056 247.416 209.025 247.537 208.965L252.426 206.151C252.629 206.03 252.618 205.827 252.426 205.695L246.778 202.436C246.657 202.374 246.524 202.342 246.388 202.342C246.253 202.342 246.119 202.374 245.999 202.436L241.079 205.25C240.867 205.372 240.877 205.574 241.079 205.706L246.758 208.965ZM223.77 222.235C223.891 222.295 224.025 222.326 224.16 222.326C224.295 222.326 224.428 222.295 224.55 222.235L229.428 219.411C229.641 219.29 229.631 219.087 229.428 218.966L223.78 215.696C223.659 215.636 223.526 215.605 223.391 215.605C223.255 215.605 223.122 215.636 223.001 215.696L218.112 218.51C217.909 218.632 217.919 218.834 218.112 218.966L223.77 222.235ZM239.622 213.125C239.743 213.185 239.876 213.216 240.011 213.216C240.146 213.216 240.28 213.185 240.401 213.125L245.29 210.311C245.492 210.19 245.482 209.987 245.29 209.856L239.642 206.596C239.521 206.537 239.387 206.505 239.252 206.505C239.117 206.505 238.984 206.537 238.862 206.596L233.983 209.41C233.771 209.532 233.781 209.734 233.983 209.866L239.622 213.125ZM209.447 230.475C209.568 230.537 209.701 230.569 209.837 230.569C209.972 230.569 210.106 230.537 210.227 230.475L215.106 227.651C215.318 227.529 215.298 227.327 215.106 227.205L209.467 223.946C209.347 223.884 209.213 223.851 209.078 223.851C208.942 223.851 208.809 223.884 208.688 223.946L203.799 226.77C203.597 226.881 203.607 227.084 203.799 227.215L209.447 230.475ZM216.583 226.355C216.705 226.415 216.838 226.446 216.973 226.446C217.108 226.446 217.242 226.415 217.363 226.355L222.242 223.531C222.454 223.409 222.444 223.207 222.242 223.085L216.604 219.826C216.483 219.764 216.349 219.732 216.214 219.732C216.078 219.732 215.945 219.764 215.824 219.826L210.935 222.65C210.733 222.762 210.743 222.964 210.935 223.096L216.583 226.355ZM253.276 202.78C253.398 202.84 253.531 202.871 253.666 202.871C253.801 202.871 253.935 202.84 254.056 202.78L258.945 199.966C259.147 199.845 259.137 199.642 258.945 199.511L257.437 198.64C257.315 198.58 257.182 198.549 257.047 198.549C256.912 198.549 256.778 198.58 256.657 198.64L251.778 201.454C251.566 201.576 251.586 201.778 251.778 201.91L253.276 202.78ZM274.695 190.411C274.814 190.473 274.946 190.505 275.08 190.505C275.214 190.505 275.346 190.473 275.464 190.411L280.353 187.587C280.556 187.465 280.546 187.273 280.353 187.141L278.855 186.271C278.735 186.209 278.601 186.176 278.466 186.176C278.33 186.176 278.196 186.209 278.076 186.271L273.187 189.085C272.984 189.206 272.994 189.409 273.187 189.54L274.695 190.411ZM286.548 197.264C286.669 197.324 286.803 197.355 286.938 197.355C287.073 197.355 287.206 197.324 287.328 197.264L292.217 194.44C292.419 194.318 292.409 194.116 292.217 193.994L286.568 190.725C286.447 190.665 286.314 190.634 286.179 190.634C286.044 190.634 285.91 190.665 285.789 190.725L280.91 193.539C280.698 193.66 280.718 193.863 280.91 193.994L286.548 197.264ZM304.394 215.372L309.283 212.548C309.485 212.437 309.475 212.234 309.283 212.103L303.634 208.844C303.513 208.784 303.38 208.753 303.245 208.753C303.11 208.753 302.976 208.784 302.855 208.844L297.976 211.668C297.764 211.789 297.774 211.992 297.976 212.113L303.624 215.372C303.744 215.433 303.875 215.464 304.009 215.464C304.143 215.464 304.274 215.433 304.394 215.372ZM260.413 198.661C260.534 198.72 260.667 198.751 260.802 198.751C260.937 198.751 261.071 198.72 261.192 198.661L266.081 195.847C266.283 195.725 266.273 195.523 266.081 195.391L264.573 194.521C264.452 194.461 264.318 194.43 264.183 194.43C264.048 194.43 263.915 194.461 263.793 194.521L258.914 197.335C258.712 197.456 258.722 197.658 258.914 197.79L260.413 198.661ZM202.311 234.594C202.432 234.657 202.565 234.689 202.701 234.689C202.836 234.689 202.97 234.657 203.09 234.594L207.969 231.77C208.172 231.649 208.162 231.457 207.969 231.325L202.321 228.066C202.201 228.003 202.067 227.971 201.931 227.971C201.796 227.971 201.662 228.003 201.542 228.066L196.663 230.89C196.46 231.011 196.471 231.203 196.663 231.335L202.311 234.594Z" fill="#455A64"/>
<path d="M231.331 278.96L284.777 248.097L317.674 267.087L264.219 297.949L231.331 278.96Z" fill="#263238"/>
<path d="M112.527 123.442L271.81 31.4817C274.918 29.68 277.469 31.1578 277.469 34.7512V158.111C277.418 159.023 277.153 159.911 276.696 160.702C276.238 161.493 275.602 162.166 274.837 162.666L111.515 256.964C110.067 257.794 108.883 257.116 108.883 255.446V129.748C108.956 128.486 109.323 127.257 109.956 126.162C110.589 125.067 111.469 124.136 112.527 123.442Z" fill="#F5F5F5"/>
<path d="M277.519 37.7069V34.7512C277.519 31.1578 274.968 29.6901 271.861 31.4817L112.527 123.442C111.469 124.136 110.589 125.067 109.956 126.162C109.323 127.257 108.956 128.486 108.883 129.748V135.042L277.519 37.7069Z" fill="#90CAF9"/>
<path d="M253.752 44.4383C253.183 44.8084 252.71 45.3074 252.371 45.8949C252.031 46.4823 251.835 47.1416 251.799 47.8191C251.799 49.0641 252.669 49.5702 253.752 48.9427C254.319 48.5736 254.79 48.0759 255.128 47.4902C255.465 46.9044 255.66 46.2472 255.696 45.572C255.696 44.3269 254.825 43.8208 253.752 44.4383Z" fill="white"/>
<path d="M261.486 39.9744C260.919 40.3457 260.447 40.8452 260.11 41.4326C259.772 42.02 259.578 42.6787 259.542 43.3552C259.542 44.6003 260.413 45.0963 261.486 44.4788C262.054 44.1087 262.527 43.6097 262.867 43.0222C263.206 42.4347 263.402 41.7755 263.439 41.098C263.439 39.853 262.569 39.3469 261.486 39.9744Z" fill="white"/>
<path d="M269.229 35.5003C268.662 35.8722 268.19 36.3716 267.851 36.9587C267.512 37.5458 267.315 38.2042 267.275 38.8811C267.275 40.1261 268.156 40.6322 269.229 40.0047C269.797 39.6362 270.27 39.1388 270.609 38.5531C270.949 37.9674 271.145 37.3099 271.183 36.634C271.183 35.3889 270.302 34.8828 269.229 35.5003Z" fill="white"/>
<path d="M148.215 195.438L142.018 191.86L126.839 218.15L133.037 221.728L148.215 195.438Z" fill="#37474F"/>
<path d="M148.227 195.431L145.133 193.644L129.955 219.934L133.049 221.72L148.227 195.431Z" fill="#263238"/>
<path d="M110.199 269.486C107.375 274.395 94.0033 266.601 96.8173 261.763L131.688 207.376C131.782 207.229 131.929 207.123 132.099 207.082C132.269 207.04 132.448 207.066 132.599 207.153L139.604 211.202C139.755 211.287 139.867 211.428 139.916 211.594C139.965 211.76 139.947 211.939 139.867 212.093L110.199 269.486Z" fill="#90CAF9"/>
<path opacity="0.1" d="M110.199 269.486L139.857 212.093C139.937 211.939 139.955 211.76 139.905 211.594C139.856 211.428 139.745 211.287 139.594 211.202L136.405 209.36L102.405 269.8C105.502 271.328 108.923 271.702 110.199 269.486Z" fill="black"/>
<path d="M212.737 141.45C212.737 141.035 212.737 140.63 212.676 140.225C212.615 139.82 212.676 139.425 212.585 139.031C212.494 138.636 212.585 138.504 212.504 138.241C212.433 137.553 212.332 136.875 212.221 136.217C212.17 135.923 212.119 135.619 212.059 135.326C211.998 135.032 211.947 134.769 211.887 134.496C211.715 133.747 211.532 133.018 211.32 132.32C211.208 131.985 211.107 131.651 210.996 131.307C210.974 131.258 210.958 131.207 210.945 131.155C210.824 130.832 210.712 130.518 210.591 130.214C210.47 129.91 210.308 129.506 210.146 129.202C209.984 128.898 209.923 128.706 209.791 128.463C209.718 128.281 209.63 128.105 209.528 127.937C209.427 127.724 209.316 127.511 209.194 127.309C209.073 127.107 209.143 127.208 209.113 127.167C209.083 127.127 208.901 126.803 208.789 126.621C208.678 126.438 208.637 126.388 208.567 126.277C208.048 125.459 207.466 124.684 206.826 123.959L206.502 123.594L206.228 123.311C206.117 123.189 205.995 123.078 205.874 122.956C205.556 122.622 205.218 122.308 204.862 122.015C204.69 121.863 204.508 121.722 204.325 121.59L203.769 121.185C203.479 120.973 203.179 120.777 202.868 120.598L202.625 120.446H202.574L188.231 112.166L188.15 112.116C185.398 110.581 182.292 109.796 179.141 109.838C174.445 109.838 169.14 111.377 163.523 114.616C144.23 125.75 128.581 152.857 128.581 175.147C128.581 186.281 132.468 194.075 138.754 197.739H138.814L153.168 206.009H153.228L153.4 206.1C153.67 206.259 153.947 206.405 154.23 206.536C154.575 206.708 154.929 206.86 155.243 207.001C155.556 207.143 155.88 207.254 156.204 207.356L156.721 207.507C156.901 207.577 157.088 207.631 157.277 207.669C157.464 207.726 157.653 207.773 157.844 207.811C157.98 207.851 158.119 207.881 158.259 207.902C158.502 207.953 158.765 208.003 159.018 208.034C159.075 208.043 159.133 208.043 159.19 208.034C159.494 208.088 159.798 208.128 160.101 208.155C165.304 208.702 171.357 207.234 177.835 203.499C197.139 192.365 212.787 165.247 212.787 142.968C212.737 142.502 212.737 141.976 212.737 141.45ZM189.324 125.689C190.082 128.459 190.454 131.321 190.428 134.192C190.428 153.849 176.044 178.73 159.049 188.589C156.564 190.066 153.882 191.18 151.082 191.899C150.329 189.125 149.957 186.261 149.979 183.386C149.979 163.729 164.363 138.848 181.358 128.989C183.833 127.518 186.505 126.407 189.294 125.689H189.324Z" fill="#90CAF9"/>
<path opacity="0.1" d="M152.581 205.726L138.642 197.689C132.356 194.014 128.469 186.2 128.469 175.106C128.469 165.166 131.587 154.274 136.739 144.274L151.093 152.533C145.93 162.534 142.823 173.426 142.823 183.366C142.823 194.257 146.527 201.96 152.581 205.726Z" fill="black"/>
<path opacity="0.4" d="M212.737 141.45C212.737 141.035 212.737 140.63 212.676 140.225C212.615 139.82 212.676 139.425 212.585 139.031C212.494 138.636 212.585 138.504 212.504 138.241C212.433 137.553 212.332 136.875 212.221 136.217C212.17 135.923 212.119 135.619 212.059 135.326C211.998 135.032 211.947 134.769 211.887 134.496C211.715 133.747 211.532 133.018 211.32 132.32C211.208 131.985 211.107 131.651 210.996 131.307C210.974 131.258 210.958 131.207 210.945 131.155C210.824 130.832 210.712 130.518 210.591 130.214C210.47 129.91 210.308 129.506 210.146 129.202C209.984 128.898 209.923 128.706 209.791 128.463C209.718 128.281 209.63 128.105 209.528 127.937C209.427 127.724 209.316 127.511 209.194 127.309C209.073 127.107 209.143 127.208 209.113 127.167C209.083 127.127 208.901 126.803 208.789 126.621C208.678 126.439 208.637 126.388 208.567 126.277C208.048 125.459 207.466 124.684 206.826 123.959L206.502 123.594L206.228 123.311C206.117 123.189 205.995 123.078 205.874 122.956C205.556 122.622 205.218 122.308 204.862 122.015C204.69 121.863 204.508 121.722 204.325 121.59L203.769 121.185C203.479 120.973 203.179 120.777 202.868 120.598C196.521 116.741 187.684 117.197 177.856 122.855C158.553 133.99 142.904 161.097 142.904 183.386C142.904 194.672 146.953 202.558 153.38 206.141C153.649 206.3 153.926 206.445 154.21 206.576C154.554 206.748 154.909 206.9 155.222 207.042C155.536 207.183 155.86 207.295 156.184 207.396L156.7 207.548C156.881 207.617 157.067 207.671 157.257 207.71C157.443 207.767 157.633 207.814 157.824 207.852C157.96 207.892 158.099 207.922 158.239 207.943C158.482 207.993 158.745 208.044 158.998 208.074C159.055 208.084 159.113 208.084 159.17 208.074C159.474 208.128 159.777 208.169 160.081 208.196C165.284 208.742 171.337 207.275 177.815 203.539C197.118 192.405 212.767 165.288 212.767 143.009C212.737 142.502 212.737 141.976 212.737 141.45ZM174.272 197.436C169.94 199.936 165.77 201.252 162.207 201.252C155.516 201.252 152.439 196.687 151.072 191.899C150.319 189.125 149.947 186.261 149.969 183.386C149.969 163.729 164.353 138.848 181.348 128.989C183.832 127.515 186.515 126.404 189.314 125.689C190.639 125.361 191.998 125.188 193.363 125.173C204.427 125.173 205.611 137.664 205.611 143.039C205.651 162.656 191.268 187.607 174.272 197.436Z" fill="white"/>
<path opacity="0.1" d="M205.651 143.039C205.651 162.696 191.278 187.577 174.273 197.436C169.94 199.936 165.77 201.252 162.207 201.252C155.516 201.252 152.439 196.687 151.072 191.899C153.872 191.18 156.554 190.066 159.039 188.589C176.064 178.76 190.417 153.849 190.417 134.192C190.444 131.32 190.072 128.459 189.314 125.689C190.639 125.361 191.998 125.188 193.363 125.173C204.457 125.203 205.651 137.664 205.651 143.039Z" fill="black"/>
<path opacity="0.7" d="M199.578 139.607C199.578 159.265 185.204 184.145 168.199 194.004C163.867 196.504 159.696 197.82 156.133 197.82C155.425 197.822 154.717 197.765 154.018 197.648C152.65 195.958 151.653 193.999 151.093 191.899C150.339 189.125 149.968 186.261 149.989 183.386C149.989 163.729 164.373 138.848 181.368 128.989C183.853 127.515 186.535 126.404 189.334 125.689C190.659 125.361 192.018 125.188 193.383 125.173C194.095 125.171 194.806 125.229 195.509 125.345C199.011 129.465 199.578 136.075 199.578 139.607Z" fill="white"/>
<path d="M224.043 119.13V141.541C224.043 143.221 225.228 143.899 226.675 143.059L373.549 58.2654C374.314 57.7655 374.95 57.0928 375.407 56.3016C375.865 55.5103 376.129 54.6227 376.18 53.7104V31.2694C376.18 29.5891 374.996 28.9109 373.549 29.7511L226.675 114.545C225.907 115.048 225.268 115.726 224.811 116.523C224.353 117.319 224.091 118.213 224.043 119.13Z" fill="#E6E6E6"/>
<path d="M226.675 114.545L252.831 99.4525V127.936L226.675 143.029C225.228 143.869 224.043 143.191 224.043 141.51V119.13C224.091 118.213 224.353 117.319 224.811 116.523C225.268 115.726 225.907 115.048 226.675 114.545Z" fill="#90CAF9"/>
<path d="M244.177 111.883C242.527 110.931 240.441 111.083 238.306 112.318C236.276 113.618 234.587 115.386 233.381 117.473C232.175 119.559 231.486 121.905 231.372 124.313C231.301 125.873 231.793 127.407 232.759 128.635L229.945 133.453C229.761 133.798 229.717 134.199 229.82 134.576C229.924 134.952 230.168 135.275 230.501 135.477C230.733 135.608 230.995 135.677 231.261 135.68C231.527 135.68 231.789 135.61 232.02 135.477C232.251 135.343 232.443 135.152 232.577 134.921L235.36 130.103C235.661 130.159 235.965 130.189 236.271 130.194C237.514 130.171 238.729 129.822 239.794 129.181C241.82 127.878 243.505 126.11 244.709 124.023C245.914 121.937 246.602 119.593 246.717 117.187C246.748 114.727 245.837 112.844 244.177 111.883ZM238.306 126.56C237.95 126.942 237.475 127.193 236.959 127.271C236.442 127.348 235.915 127.249 235.462 126.988C235.01 126.727 234.659 126.32 234.468 125.834C234.277 125.348 234.256 124.812 234.409 124.313C234.527 122.44 235.077 120.62 236.017 118.995C236.956 117.371 238.259 115.986 239.824 114.95C240.431 114.563 241.129 114.343 241.848 114.312C242.145 114.301 242.439 114.371 242.699 114.514C243.08 114.84 243.372 115.257 243.549 115.726C243.726 116.195 243.782 116.701 243.711 117.197C243.594 119.069 243.045 120.888 242.107 122.513C241.17 124.137 239.868 125.522 238.306 126.56Z" fill="white"/>
</svg>
