<svg width="420" height="383" viewBox="0 0 420 383" fill="none" xmlns="http://www.w3.org/2000/svg">
<path d="M61.5074 349.879C143.512 392.725 276.488 392.725 358.493 349.879C440.498 307.033 440.507 237.571 358.493 194.725C276.478 151.879 143.512 151.879 61.5074 194.725C-20.4976 237.571 -20.5073 307.033 61.5074 349.879Z" fill="#F5F5F5"/>
<path d="M274.088 339.043C298.818 339.043 318.865 329.489 318.865 317.703C318.865 305.917 298.818 296.363 274.088 296.363C249.359 296.363 229.311 305.917 229.311 317.703C229.311 329.489 249.359 339.043 274.088 339.043Z" fill="#EBEBEB"/>
<path d="M353.411 290.375C372.49 290.375 387.957 283.004 387.957 273.911C387.957 264.819 372.49 257.448 353.411 257.448C334.332 257.448 318.865 264.819 318.865 273.911C318.865 283.004 334.332 290.375 353.411 290.375Z" fill="#EBEBEB"/>
<path d="M107.191 269.298C105.241 258.999 98.1014 244.32 89.3918 236.137C81.0138 228.276 68.5785 225.535 63.6239 229.164C58.6692 232.792 61.917 240.633 71.5337 250.191C82.389 260.969 103.232 290.872 107.191 307.813V269.298Z" fill="#90CAF9"/>
<g opacity="0.2">
<path opacity="0.2" d="M107.191 269.298C105.241 258.999 98.1014 244.32 89.3918 236.137C81.0138 228.276 68.5785 225.535 63.6239 229.164C58.6692 232.792 61.917 240.633 71.5337 250.191C82.389 260.969 103.232 290.872 107.191 307.813V269.298Z" fill="black"/>
</g>
<path d="M107.191 294.081C107.069 294.079 106.952 294.032 106.862 293.95C106.772 293.867 106.716 293.754 106.704 293.632C104.246 267.689 86.105 238.527 68.6663 232.45C68.5445 232.406 68.4448 232.316 68.3884 232.2C68.3319 232.083 68.3231 231.949 68.3639 231.826C68.4081 231.705 68.4981 231.605 68.6146 231.548C68.7312 231.492 68.8652 231.483 68.9881 231.524C87.0706 237.815 105.163 266.801 107.699 293.545C107.71 293.674 107.67 293.802 107.588 293.902C107.506 294.002 107.388 294.066 107.26 294.081H107.191Z" fill="white"/>
<path d="M107.191 320.268C107.191 320.268 103.817 322.96 92.5616 321.907C81.3064 320.854 75.5033 312.807 75.5033 309.354C75.5033 305.902 85.8514 305.307 88.0947 296.744C85.8128 299.189 82.7773 300.8 79.4728 301.318C73.6209 302.42 68.9199 300.547 67.5837 289.887C70.4679 290.309 73.4104 290.065 76.186 289.175C80.8188 287.683 81.9209 285.137 80.7115 284.591C79.5021 284.045 73.0455 284.591 68.9101 283.021C64.7747 281.451 67.9348 259.915 70.6462 258.384C73.3576 256.853 86.183 260.462 88.6799 262.393C90.9036 264.109 94.0246 267.084 92.5812 273.375C94.291 271.776 95.6237 269.817 96.4824 267.64C97.6918 264.714 98.5696 265.397 100.384 266.518C101.473 267.133 102.419 267.972 103.157 268.982C103.895 269.991 104.41 271.146 104.665 272.37C105.104 275.101 104.392 284.523 100.55 287.585C100.55 287.585 104.236 288.053 107.25 281.831C107.25 281.831 113.102 284.191 114.428 288.014C115.755 291.838 117.198 310.554 107.191 320.268Z" fill="#90CAF9"/>
<path d="M108.186 322.395C108.067 322.393 107.952 322.349 107.863 322.271C107.773 322.192 107.715 322.084 107.699 321.965C105.124 300.889 89.0993 273.199 73.3868 262.802C73.2782 262.73 73.2028 262.617 73.1772 262.489C73.1516 262.361 73.1779 262.228 73.2503 262.12C73.3227 262.011 73.4353 261.936 73.5634 261.91C73.6914 261.884 73.8244 261.911 73.933 261.983C89.8405 272.565 106.119 300.538 108.664 321.848C108.681 321.976 108.646 322.106 108.567 322.208C108.489 322.311 108.373 322.378 108.245 322.395H108.186Z" fill="white"/>
<path d="M109.171 325.34C108.589 324.937 108.109 324.403 107.771 323.782C107.432 323.16 107.243 322.468 107.22 321.761V88.7466C107.26 88.0134 107.472 87.2999 107.84 86.6644C108.208 86.0288 108.721 85.4891 109.336 85.0892L255.635 0.606896C256.246 0.223349 256.95 0.0137507 257.672 0.000653781C258.394 -0.0124432 259.105 0.171454 259.73 0.532563C260.355 0.893671 260.87 1.41833 261.219 2.05009C261.568 2.68185 261.738 3.39681 261.711 4.11805L113.267 325.262C112.638 325.596 111.94 325.778 111.228 325.791C110.516 325.805 109.811 325.65 109.171 325.34Z" fill="#E0E0E0"/>
<path d="M111.151 93.1746L170.578 54.2886L166.618 51.9966L109.308 85.0892C108.692 85.4891 108.179 86.0288 107.811 86.6644C107.444 87.2999 107.231 88.0134 107.191 88.7467V90.8826L111.151 93.1746Z" fill="#37474F"/>
<path opacity="0.2" d="M111.151 93.1746L170.578 54.2886L166.618 51.9966L109.308 85.0892C108.692 85.4891 108.179 86.0288 107.811 86.6644C107.444 87.2999 107.231 88.0134 107.191 88.7467V90.8826L111.151 93.1746Z" fill="#37474F"/>
<path d="M130.999 100.031L107.806 86.6887C107.428 87.3178 107.216 88.0327 107.191 88.7662V321.741C107.166 322.461 107.338 323.175 107.687 323.805C108.037 324.436 108.552 324.959 109.177 325.319C109.801 325.679 110.512 325.862 111.233 325.848C111.953 325.835 112.657 325.625 113.268 325.242L130.999 315.05V100.031Z" fill="#263238"/>
<path opacity="0.4" d="M130.999 100.031L107.806 86.6887C107.428 87.3178 107.216 88.0327 107.191 88.7662V321.741C107.166 322.461 107.338 323.175 107.687 323.805C108.037 324.436 108.552 324.959 109.177 325.319C109.801 325.679 110.512 325.862 111.233 325.848C111.953 325.835 112.657 325.625 113.268 325.242L130.999 315.05V100.031Z" fill="#263238"/>
<path d="M113.268 325.262L259.566 240.78C260.182 240.38 260.694 239.84 261.062 239.204C261.43 238.569 261.642 237.855 261.682 237.122V4.11801C261.682 2.77206 260.707 2.22588 259.566 2.89886L113.268 87.3811C112.652 87.781 112.139 88.3207 111.771 88.9563C111.404 89.5919 111.191 90.3054 111.151 91.0386V324.043C111.151 325.389 112.097 325.935 113.268 325.262Z" fill="#455A64"/>
<path opacity="0.1" d="M113.268 325.262L259.566 240.78C260.182 240.38 260.694 239.84 261.062 239.204C261.43 238.569 261.642 237.855 261.682 237.122V4.11801C261.682 2.77206 260.707 2.22588 259.566 2.89886L113.268 87.3811C112.652 87.781 112.139 88.3207 111.771 88.9563C111.404 89.5919 111.191 90.3054 111.151 91.0386V324.043C111.151 325.389 112.097 325.935 113.268 325.262Z" fill="#455A64"/>
<path d="M123.304 144.857L158.415 124.57C160.746 123.224 162.638 124.18 162.638 126.706C162.534 128.124 162.098 129.498 161.364 130.717C160.63 131.935 159.62 132.963 158.415 133.719L123.304 154.005C120.963 155.351 119.081 154.395 119.081 151.869C119.183 150.451 119.618 149.076 120.352 147.857C121.086 146.639 122.097 145.611 123.304 144.857Z" fill="#90CAF9"/>
<path d="M123.304 159.253L146.546 145.832C148.877 144.486 150.769 145.442 150.769 147.968C150.665 149.386 150.228 150.76 149.494 151.979C148.761 153.197 147.751 154.225 146.546 154.981L123.304 168.401C120.963 169.747 119.081 168.791 119.081 166.265C119.183 164.846 119.618 163.472 120.352 162.253C121.086 161.034 122.097 160.006 123.304 159.253Z" fill="#90CAF9"/>
<path d="M120.768 183.889L125.313 181.266C126.288 180.729 127 181.168 127 182.241V187.488C126.969 188.074 126.799 188.644 126.506 189.153C126.213 189.661 125.804 190.093 125.313 190.414L120.768 192.999C119.793 193.545 119.081 193.106 119.081 192.023V186.776C119.119 186.197 119.291 185.635 119.584 185.134C119.877 184.633 120.282 184.207 120.768 183.889Z" fill="#90CAF9"/>
<path opacity="0.2" d="M120.768 183.889L125.313 181.266C126.288 180.729 127 181.168 127 182.241V187.488C126.969 188.074 126.799 188.644 126.506 189.153C126.213 189.661 125.804 190.093 125.313 190.414L120.768 192.999C119.793 193.545 119.081 193.106 119.081 192.023V186.776C119.119 186.197 119.291 185.635 119.584 185.134C119.877 184.633 120.282 184.207 120.768 183.889Z" fill="black"/>
<path d="M120.768 202.196L125.313 199.572C126.288 199.026 127 199.465 127 200.548V205.795C126.966 206.38 126.796 206.95 126.503 207.458C126.21 207.966 125.803 208.398 125.313 208.721L120.768 211.344C119.793 211.881 119.081 211.442 119.081 210.369V205.122C119.111 204.536 119.279 203.965 119.573 203.456C119.866 202.948 120.276 202.516 120.768 202.196Z" fill="#90CAF9"/>
<g opacity="0.2">
<path opacity="0.2" d="M120.768 202.196L125.313 199.572C126.288 199.026 127 199.465 127 200.548V205.795C126.966 206.38 126.796 206.95 126.503 207.458C126.21 207.966 125.803 208.398 125.313 208.721L120.768 211.344C119.793 211.881 119.081 211.442 119.081 210.369V205.122C119.111 204.536 119.279 203.965 119.573 203.456C119.866 202.948 120.276 202.516 120.768 202.196Z" fill="black"/>
</g>
<path d="M133.076 197.378L160.541 181.509C161.712 180.836 162.658 181.314 162.658 182.582C162.605 183.291 162.386 183.977 162.018 184.586C161.65 185.194 161.144 185.707 160.541 186.084L133.076 201.952C131.906 202.625 130.96 202.147 130.96 200.879C131.013 200.17 131.232 199.484 131.6 198.876C131.968 198.267 132.473 197.754 133.076 197.378Z" fill="#90CAF9"/>
<path opacity="0.2" d="M133.076 197.378L160.541 181.509C161.712 180.836 162.658 181.314 162.658 182.582C162.605 183.291 162.386 183.977 162.018 184.586C161.65 185.194 161.144 185.707 160.541 186.084L133.076 201.952C131.906 202.625 130.96 202.147 130.96 200.879C131.013 200.17 131.232 199.484 131.6 198.876C131.968 198.267 132.473 197.754 133.076 197.378Z" fill="black"/>
<path d="M120.768 220.493L125.313 217.869C126.288 217.323 127 217.762 127 218.845V224.092C126.967 224.678 126.797 225.247 126.504 225.755C126.211 226.263 125.803 226.696 125.313 227.018L120.768 229.642C119.793 230.178 119.081 229.739 119.081 228.666V223.419C119.111 222.833 119.279 222.262 119.573 221.753C119.866 221.245 120.276 220.813 120.768 220.493Z" fill="#E0E0E0"/>
<path d="M133.076 215.675L160.541 199.826C161.712 199.153 162.658 199.631 162.658 200.899C162.606 201.608 162.388 202.295 162.02 202.904C161.652 203.512 161.146 204.025 160.541 204.4L133.076 220.269C131.906 220.942 130.96 220.464 130.96 219.196C131.01 218.484 131.228 217.793 131.596 217.181C131.964 216.569 132.471 216.053 133.076 215.675Z" fill="#F0F0F0"/>
<path d="M120.768 238.839L125.313 236.215C126.288 235.669 127 236.108 127 237.19V242.438C126.967 243.023 126.797 243.593 126.504 244.101C126.211 244.609 125.803 245.042 125.313 245.364L120.768 247.987C119.793 248.524 119.081 248.085 119.081 247.012V241.765C119.111 241.178 119.279 240.608 119.573 240.099C119.866 239.59 120.276 239.159 120.768 238.839Z" fill="#E0E0E0"/>
<path d="M133.076 234.021L160.541 218.162C161.712 217.479 162.658 217.967 162.658 219.225C162.606 219.936 162.388 220.624 162.02 221.234C161.652 221.844 161.146 222.359 160.541 222.736L133.076 238.595C131.906 239.268 130.96 238.79 130.96 237.522C131.013 236.813 131.232 236.127 131.6 235.519C131.968 234.91 132.473 234.397 133.076 234.021Z" fill="#F0F0F0"/>
<path d="M120.768 257.136L125.313 254.512C126.288 253.966 127 254.405 127 255.488V260.735C126.967 261.32 126.797 261.89 126.504 262.398C126.211 262.906 125.803 263.339 125.313 263.661L120.768 266.284C119.793 266.821 119.081 266.382 119.081 265.309V260.062C119.111 259.475 119.279 258.905 119.573 258.396C119.866 257.887 120.276 257.456 120.768 257.136Z" fill="#E0E0E0"/>
<path d="M133.076 252.318L160.541 236.459C161.712 235.776 162.658 236.264 162.658 237.522C162.606 238.233 162.388 238.921 162.02 239.531C161.652 240.141 161.146 240.656 160.541 241.033L133.076 256.892C131.906 257.565 130.96 257.087 130.96 255.819C131.013 255.11 131.232 254.424 131.6 253.816C131.968 253.207 132.473 252.694 133.076 252.318Z" fill="#F0F0F0"/>
<path d="M121.187 275.14L140.694 263.856C141.864 263.183 142.81 263.661 142.81 264.929C142.757 265.637 142.538 266.324 142.17 266.932C141.803 267.54 141.297 268.054 140.694 268.43L121.187 279.715C120.027 280.387 119.081 279.91 119.081 278.651C119.132 277.942 119.349 277.254 119.715 276.645C120.081 276.035 120.585 275.519 121.187 275.14Z" fill="#90CAF9"/>
<path d="M121.187 284.289L160.542 261.574C161.712 260.901 162.658 261.378 162.658 262.637C162.606 263.347 162.388 264.036 162.02 264.646C161.652 265.256 161.146 265.77 160.542 266.148L121.187 288.863C120.027 289.536 119.081 289.058 119.081 287.8C119.132 287.09 119.349 286.403 119.715 285.793C120.081 285.183 120.585 284.668 121.187 284.289Z" fill="#90CAF9"/>
<path opacity="0.8" d="M121.187 284.289L160.542 261.574C161.712 260.901 162.658 261.378 162.658 262.637C162.606 263.347 162.388 264.036 162.02 264.646C161.652 265.256 161.146 265.77 160.542 266.148L121.187 288.863C120.027 289.536 119.081 289.058 119.081 287.8C119.132 287.09 119.349 286.403 119.715 285.793C120.081 285.183 120.585 284.668 121.187 284.289Z" fill="white"/>
<path d="M121.187 284.289L148.662 268.43C149.823 267.757 150.769 268.235 150.769 269.503C150.716 270.211 150.498 270.896 150.132 271.504C149.766 272.112 149.263 272.626 148.662 273.004L121.187 288.863C120.027 289.536 119.081 289.058 119.081 287.8C119.132 287.09 119.349 286.403 119.715 285.793C120.081 285.183 120.585 284.668 121.187 284.289Z" fill="#90CAF9"/>
<path d="M121.187 293.457L140.694 282.172C141.864 281.499 142.81 281.977 142.81 283.245C142.757 283.954 142.538 284.64 142.17 285.249C141.803 285.857 141.297 286.37 140.694 286.746L121.187 298.031C120.027 298.704 119.081 298.226 119.081 296.968C119.132 296.258 119.349 295.571 119.715 294.961C120.081 294.351 120.585 293.836 121.187 293.457Z" fill="#90CAF9"/>
<path d="M133.076 179.071L160.541 163.212C161.712 162.539 162.658 163.017 162.658 164.285C162.605 164.994 162.386 165.68 162.018 166.289C161.65 166.897 161.144 167.41 160.541 167.787L133.076 183.645C131.906 184.318 130.96 183.84 130.96 182.582C131.012 181.872 131.23 181.183 131.598 180.573C131.966 179.963 132.472 179.448 133.076 179.071Z" fill="#90CAF9"/>
<path opacity="0.2" d="M133.076 179.071L160.541 163.212C161.712 162.539 162.658 163.017 162.658 164.285C162.605 164.994 162.386 165.68 162.018 166.289C161.65 166.897 161.144 167.41 160.541 167.787L133.076 183.645C131.906 184.318 130.96 183.84 130.96 182.582C131.012 181.872 131.23 181.183 131.598 180.573C131.966 179.963 132.472 179.448 133.076 179.071Z" fill="black"/>
<path d="M121.187 293.457L140.694 282.172C141.864 281.499 142.81 281.977 142.81 283.245C142.757 283.954 142.538 284.64 142.17 285.249C141.803 285.857 141.297 286.37 140.694 286.746L121.187 298.031C120.027 298.704 119.081 298.226 119.081 296.968C119.132 296.258 119.349 295.571 119.715 294.961C120.081 294.351 120.585 293.836 121.187 293.457Z" fill="#90CAF9"/>
<path d="M121.187 302.576L160.542 279.861C161.712 279.188 162.658 279.666 162.658 280.924C162.606 281.634 162.388 282.323 162.02 282.933C161.652 283.543 161.146 284.058 160.542 284.435L121.187 307.111C120.027 307.794 119.081 307.306 119.081 306.048C119.138 305.346 119.358 304.666 119.724 304.063C120.089 303.46 120.59 302.951 121.187 302.576Z" fill="#90CAF9"/>
<path opacity="0.8" d="M121.187 302.576L160.542 279.861C161.712 279.188 162.658 279.666 162.658 280.924C162.606 281.634 162.388 282.323 162.02 282.933C161.652 283.543 161.146 284.058 160.542 284.435L121.187 307.111C120.027 307.794 119.081 307.306 119.081 306.048C119.138 305.346 119.358 304.666 119.724 304.063C120.089 303.46 120.59 302.951 121.187 302.576Z" fill="white"/>
<path d="M121.187 302.576L156.582 282.094C157.752 281.421 158.698 281.899 158.698 283.167C158.645 283.876 158.426 284.562 158.058 285.171C157.691 285.779 157.185 286.292 156.582 286.669L121.187 307.15C120.027 307.833 119.081 307.345 119.081 306.087C119.132 305.378 119.349 304.69 119.715 304.08C120.081 303.47 120.585 302.955 121.187 302.576Z" fill="#90CAF9"/>
<path d="M259.585 2.89892L170.578 54.2886V292.169L259.585 240.789C260.201 240.39 260.714 239.85 261.082 239.214C261.45 238.579 261.662 237.865 261.702 237.132V4.11807C261.692 2.81114 260.717 2.22595 259.585 2.89892Z" fill="#EBEBEB"/>
<path opacity="0.6" d="M259.585 2.89892L170.578 54.2886V292.169L259.585 240.789C260.201 240.39 260.714 239.85 261.082 239.214C261.45 238.579 261.662 237.865 261.702 237.132V4.11807C261.692 2.81114 260.717 2.22595 259.585 2.89892Z" fill="#FAFAFA"/>
<path d="M170.578 63.4371V81.7341L162.658 90.8826H170.578V109.18L253.772 61.1451V15.4025L170.578 63.4371Z" fill="#90CAF9"/>
<g opacity="0.6">
<path opacity="0.6" d="M181.462 64.071L215.169 44.5646C216.798 43.5893 218.095 44.389 218.095 46.2714C218.041 47.2942 217.749 48.2901 217.241 49.1793C216.733 50.0686 216.023 50.8263 215.169 51.3919L181.462 70.8495C179.824 71.8248 178.536 71.0251 178.536 69.1427C178.595 68.1278 178.89 67.1408 179.398 66.2602C179.906 65.3797 180.613 64.63 181.462 64.071Z" fill="white"/>
</g>
<path d="M179.56 78.8862L244.799 41.2192C245.385 40.8876 245.853 41.1217 245.853 41.7557C245.828 42.1105 245.719 42.4544 245.536 42.7594C245.353 43.0644 245.101 43.322 244.799 43.5113L179.56 81.1294C178.975 81.461 178.507 81.2269 178.507 80.593C178.539 80.2466 178.651 79.9125 178.834 79.6165C179.017 79.3204 179.265 79.0705 179.56 78.8862Z" fill="#90CAF9"/>
<path d="M179.56 78.8862L244.799 41.2192C245.385 40.8876 245.853 41.1217 245.853 41.7557C245.828 42.1105 245.719 42.4544 245.536 42.7594C245.353 43.0644 245.101 43.322 244.799 43.5113L179.56 81.1294C178.975 81.461 178.507 81.2269 178.507 80.593C178.539 80.2466 178.651 79.9125 178.834 79.6165C179.017 79.3204 179.265 79.0705 179.56 78.8862Z" fill="#90CAF9"/>
<path opacity="0.6" d="M179.56 78.8862L244.799 41.2192C245.385 40.8876 245.853 41.1217 245.853 41.7557C245.828 42.1105 245.719 42.4544 245.536 42.7594C245.353 43.0644 245.101 43.322 244.799 43.5113L179.56 81.1294C178.975 81.461 178.507 81.2269 178.507 80.593C178.539 80.2466 178.651 79.9125 178.834 79.6165C179.017 79.3204 179.265 79.0705 179.56 78.8862Z" fill="white"/>
<path d="M179.56 85.7134L244.799 48.0465C245.385 47.7051 245.853 47.949 245.853 48.5829C245.828 48.9364 245.719 49.279 245.536 49.5824C245.353 49.8859 245.1 50.1417 244.799 50.3288L179.56 87.9956C178.975 88.337 178.507 88.0932 178.507 87.4592C178.532 87.1057 178.641 86.7632 178.824 86.4597C179.007 86.1562 179.259 85.9005 179.56 85.7134Z" fill="#90CAF9"/>
<path opacity="0.6" d="M179.56 85.7134L244.799 48.0465C245.385 47.7051 245.853 47.949 245.853 48.5829C245.828 48.9364 245.719 49.279 245.536 49.5824C245.353 49.8859 245.1 50.1417 244.799 50.3288L179.56 87.9956C178.975 88.337 178.507 88.0932 178.507 87.4592C178.532 87.1057 178.641 86.7632 178.824 86.4597C179.007 86.1562 179.259 85.9005 179.56 85.7134Z" fill="white"/>
<path opacity="0.6" d="M179.56 92.5407L244.799 54.8738C245.385 54.5422 245.853 54.7762 245.853 55.4102C245.828 55.765 245.719 56.1089 245.536 56.4139C245.353 56.719 245.101 56.9766 244.799 57.1658L179.56 94.8327C178.975 95.1643 178.507 94.9302 178.507 94.2962C178.532 93.9414 178.641 93.5975 178.824 93.2925C179.007 92.9875 179.259 92.7299 179.56 92.5407Z" fill="white"/>
<path d="M182.018 111.754L186.592 109.121C187.568 108.575 188.28 109.014 188.28 110.096V115.344C188.247 115.929 188.078 116.499 187.785 117.008C187.491 117.516 187.083 117.948 186.592 118.27L182.047 120.893C181.072 121.43 180.36 120.991 180.36 119.918V114.68C180.387 114.097 180.551 113.528 180.839 113.019C181.127 112.511 181.531 112.077 182.018 111.754Z" fill="#90CAF9"/>
<path opacity="0.2" d="M182.018 111.754L186.592 109.121C187.568 108.575 188.28 109.014 188.28 110.096V115.344C188.247 115.929 188.078 116.499 187.785 117.008C187.491 117.516 187.083 117.948 186.592 118.27L182.047 120.893C181.072 121.43 180.36 120.991 180.36 119.918V114.68C180.387 114.097 180.551 113.528 180.839 113.019C181.127 112.511 181.531 112.077 182.018 111.754Z" fill="white"/>
<path d="M194.327 106.936L221.792 91.0679C222.962 90.3949 223.908 90.8728 223.908 92.1407C223.855 92.8496 223.636 93.536 223.268 94.1443C222.9 94.7526 222.395 95.2657 221.792 95.6421L194.327 111.511C193.156 112.184 192.21 111.706 192.21 110.438C192.263 109.729 192.482 109.043 192.85 108.434C193.218 107.826 193.724 107.313 194.327 106.936Z" fill="#90CAF9"/>
<path opacity="0.8" d="M194.327 106.936L221.792 91.0679C222.962 90.3949 223.908 90.8728 223.908 92.1407C223.855 92.8496 223.636 93.536 223.268 94.1443C222.9 94.7526 222.395 95.2657 221.792 95.6421L194.327 111.511C193.156 112.184 192.21 111.706 192.21 110.438C192.263 109.729 192.482 109.043 192.85 108.434C193.218 107.826 193.724 107.313 194.327 106.936Z" fill="white"/>
<path d="M181.384 128.14L250.632 88.1517C251.217 87.8104 251.685 88.0542 251.685 88.6784C251.661 89.0334 251.553 89.3776 251.369 89.6827C251.186 89.9879 250.934 90.2453 250.632 90.434L181.384 130.422C180.799 130.763 180.331 130.52 180.331 129.886C180.356 129.532 180.465 129.19 180.648 128.886C180.831 128.583 181.083 128.327 181.384 128.14Z" fill="#90CAF9"/>
<path d="M181.384 134.996L250.632 95.0082C251.217 94.6766 251.685 94.9107 251.685 95.5446C251.66 95.8995 251.551 96.2433 251.368 96.5484C251.185 96.8534 250.933 97.111 250.632 97.3002L181.384 137.288C180.799 137.62 180.331 137.386 180.331 136.752C180.356 136.397 180.464 136.053 180.648 135.748C180.831 135.443 181.083 135.186 181.384 134.996Z" fill="#90CAF9"/>
<path d="M181.384 141.863L250.632 101.874C251.217 101.533 251.685 101.777 251.685 102.401C251.661 102.756 251.553 103.1 251.369 103.406C251.186 103.711 250.934 103.968 250.632 104.157L181.384 144.145C180.799 144.486 180.331 144.242 180.331 143.618C180.355 143.263 180.463 142.919 180.646 142.614C180.83 142.309 181.082 142.051 181.384 141.863Z" fill="#90CAF9"/>
<path d="M181.384 148.739L250.632 108.75C251.217 108.419 251.685 108.653 251.685 109.287C251.66 109.642 251.551 109.986 251.368 110.291C251.185 110.596 250.933 110.853 250.632 111.042L181.384 151.031C180.799 151.362 180.331 151.128 180.331 150.494C180.356 150.139 180.464 149.796 180.648 149.49C180.831 149.185 181.083 148.928 181.384 148.739Z" fill="#90CAF9"/>
<path d="M181.384 128.14L250.632 88.1517C251.217 87.8104 251.685 88.0542 251.685 88.6784C251.661 89.0334 251.553 89.3776 251.369 89.6827C251.186 89.9879 250.934 90.2453 250.632 90.434L181.384 130.422C180.799 130.763 180.331 130.52 180.331 129.886C180.356 129.532 180.465 129.19 180.648 128.886C180.831 128.583 181.083 128.327 181.384 128.14Z" fill="#E0E0E0"/>
<path d="M181.384 134.996L250.632 95.0082C251.217 94.6766 251.685 94.9107 251.685 95.5446C251.66 95.8995 251.551 96.2433 251.368 96.5484C251.185 96.8534 250.933 97.111 250.632 97.3002L181.384 137.288C180.799 137.62 180.331 137.386 180.331 136.752C180.356 136.397 180.464 136.053 180.648 135.748C180.831 135.443 181.083 135.186 181.384 134.996Z" fill="#E0E0E0"/>
<path d="M181.384 141.863L250.632 101.874C251.217 101.533 251.685 101.777 251.685 102.401C251.661 102.756 251.553 103.1 251.369 103.406C251.186 103.711 250.934 103.968 250.632 104.157L181.384 144.145C180.799 144.486 180.331 144.242 180.331 143.618C180.355 143.263 180.463 142.919 180.646 142.614C180.83 142.309 181.082 142.051 181.384 141.863Z" fill="#E0E0E0"/>
<path d="M181.384 148.739L250.632 108.75C251.217 108.419 251.685 108.653 251.685 109.287C251.66 109.642 251.551 109.986 251.368 110.291C251.185 110.596 250.933 110.853 250.632 111.042L181.384 151.031C180.799 151.362 180.331 151.128 180.331 150.494C180.356 150.139 180.464 149.796 180.648 149.49C180.831 149.185 181.083 148.928 181.384 148.739Z" fill="#E0E0E0"/>
<path opacity="0.8" d="M181.384 128.14L250.632 88.1517C251.217 87.8104 251.685 88.0542 251.685 88.6784C251.661 89.0334 251.553 89.3776 251.369 89.6827C251.186 89.9879 250.934 90.2453 250.632 90.434L181.384 130.422C180.799 130.763 180.331 130.52 180.331 129.886C180.356 129.532 180.465 129.19 180.648 128.886C180.831 128.583 181.083 128.327 181.384 128.14Z" fill="#E0E0E0"/>
<path opacity="0.8" d="M181.384 134.996L250.632 95.0082C251.217 94.6766 251.685 94.9107 251.685 95.5446C251.66 95.8995 251.551 96.2433 251.368 96.5484C251.185 96.8534 250.933 97.111 250.632 97.3002L181.384 137.288C180.799 137.62 180.331 137.386 180.331 136.752C180.356 136.397 180.464 136.053 180.648 135.748C180.831 135.443 181.083 135.186 181.384 134.996Z" fill="#E0E0E0"/>
<path opacity="0.8" d="M181.384 141.863L250.632 101.874C251.217 101.533 251.685 101.777 251.685 102.401C251.661 102.756 251.553 103.1 251.369 103.406C251.186 103.711 250.934 103.968 250.632 104.157L181.384 144.145C180.799 144.486 180.331 144.242 180.331 143.618C180.355 143.263 180.463 142.919 180.646 142.614C180.83 142.309 181.082 142.051 181.384 141.863Z" fill="#E0E0E0"/>
<path opacity="0.8" d="M181.384 148.739L250.632 108.75C251.217 108.419 251.685 108.653 251.685 109.287C251.66 109.642 251.551 109.986 251.368 110.291C251.185 110.596 250.933 110.853 250.632 111.042L181.384 151.031C180.799 151.362 180.331 151.128 180.331 150.494C180.356 150.139 180.464 149.796 180.648 149.49C180.831 149.185 181.083 148.928 181.384 148.739Z" fill="#E0E0E0"/>
<path d="M181.384 177.881L250.632 137.893C251.217 137.552 251.685 137.796 251.685 138.42C251.661 138.775 251.553 139.119 251.369 139.424C251.186 139.729 250.934 139.987 250.632 140.175L181.384 180.163C180.799 180.505 180.331 180.261 180.331 179.627C180.356 179.274 180.465 178.931 180.648 178.628C180.831 178.324 181.083 178.068 181.384 177.881Z" fill="#E0E0E0"/>
<path d="M181.384 184.738L250.632 144.75C251.217 144.418 251.685 144.652 251.685 145.286C251.66 145.641 251.551 145.985 251.368 146.29C251.185 146.595 250.933 146.852 250.632 147.042L181.384 187.03C180.799 187.361 180.331 187.127 180.331 186.493C180.356 186.138 180.464 185.795 180.648 185.49C180.831 185.185 181.083 184.927 181.384 184.738Z" fill="#E0E0E0"/>
<path d="M181.384 191.604L250.632 151.616C251.217 151.274 251.685 151.518 251.685 152.142C251.661 152.498 251.553 152.842 251.369 153.147C251.186 153.452 250.934 153.709 250.632 153.898L181.384 193.886C180.799 194.228 180.331 193.984 180.331 193.36C180.355 193.005 180.463 192.66 180.646 192.355C180.83 192.05 181.082 191.793 181.384 191.604Z" fill="#E0E0E0"/>
<path d="M181.384 198.48L250.632 158.492C251.217 158.16 251.685 158.394 251.685 159.028C251.66 159.383 251.551 159.727 251.368 160.032C251.185 160.337 250.933 160.595 250.632 160.784L181.384 200.772C180.799 201.104 180.331 200.87 180.331 200.236C180.356 199.881 180.464 199.537 180.648 199.232C180.831 198.927 181.083 198.669 181.384 198.48Z" fill="#E0E0E0"/>
<path opacity="0.8" d="M181.384 177.881L250.632 137.893C251.217 137.552 251.685 137.796 251.685 138.42C251.661 138.775 251.553 139.119 251.369 139.424C251.186 139.729 250.934 139.987 250.632 140.175L181.384 180.163C180.799 180.505 180.331 180.261 180.331 179.627C180.356 179.274 180.465 178.931 180.648 178.628C180.831 178.324 181.083 178.068 181.384 177.881Z" fill="#E0E0E0"/>
<path opacity="0.8" d="M181.384 184.738L250.632 144.75C251.217 144.418 251.685 144.652 251.685 145.286C251.66 145.641 251.551 145.985 251.368 146.29C251.185 146.595 250.933 146.852 250.632 147.042L181.384 187.03C180.799 187.361 180.331 187.127 180.331 186.493C180.356 186.138 180.464 185.795 180.648 185.49C180.831 185.185 181.083 184.927 181.384 184.738Z" fill="#E0E0E0"/>
<path opacity="0.8" d="M181.384 191.604L250.632 151.616C251.217 151.274 251.685 151.518 251.685 152.142C251.661 152.498 251.553 152.842 251.369 153.147C251.186 153.452 250.934 153.709 250.632 153.898L181.384 193.886C180.799 194.228 180.331 193.984 180.331 193.36C180.355 193.005 180.463 192.66 180.646 192.355C180.83 192.05 181.082 191.793 181.384 191.604Z" fill="#E0E0E0"/>
<path opacity="0.8" d="M181.384 198.48L250.632 158.492C251.217 158.16 251.685 158.394 251.685 159.028C251.66 159.383 251.551 159.727 251.368 160.032C251.185 160.337 250.933 160.595 250.632 160.784L181.384 200.772C180.799 201.104 180.331 200.87 180.331 200.236C180.356 199.881 180.464 199.537 180.648 199.232C180.831 198.927 181.083 198.669 181.384 198.48Z" fill="#E0E0E0"/>
<path d="M181.384 228.598L250.632 188.61C251.217 188.268 251.685 188.512 251.685 189.136C251.661 189.491 251.553 189.836 251.369 190.141C251.186 190.446 250.934 190.703 250.632 190.892L181.384 230.88C180.799 231.221 180.331 230.978 180.331 230.344C180.356 229.99 180.465 229.648 180.648 229.344C180.831 229.041 181.083 228.785 181.384 228.598Z" fill="#E0E0E0"/>
<path d="M181.384 235.454L250.632 195.466C251.217 195.135 251.685 195.369 251.685 196.003C251.66 196.358 251.551 196.701 251.368 197.006C251.185 197.311 250.933 197.569 250.632 197.758L181.384 237.746C180.799 238.078 180.331 237.844 180.331 237.21C180.356 236.855 180.464 236.511 180.648 236.206C180.831 235.901 181.083 235.644 181.384 235.454Z" fill="#E0E0E0"/>
<path d="M181.384 242.321L250.632 202.333C251.217 201.991 251.685 202.235 251.685 202.859C251.661 203.214 251.553 203.558 251.369 203.864C251.186 204.169 250.934 204.426 250.632 204.615L181.384 244.603C180.799 244.944 180.331 244.7 180.331 244.076C180.355 243.721 180.463 243.377 180.646 243.072C180.83 242.767 181.082 242.509 181.384 242.321Z" fill="#E0E0E0"/>
<path d="M181.384 249.197L250.632 209.209C251.217 208.877 251.685 209.111 251.685 209.745C251.66 210.1 251.551 210.444 251.368 210.749C251.185 211.054 250.933 211.311 250.632 211.501L181.384 251.489C180.799 251.82 180.331 251.586 180.331 250.952C180.356 250.598 180.464 250.254 180.648 249.949C180.831 249.644 181.083 249.386 181.384 249.197Z" fill="#E0E0E0"/>
<path opacity="0.8" d="M181.384 228.598L250.632 188.61C251.217 188.268 251.685 188.512 251.685 189.136C251.661 189.491 251.553 189.836 251.369 190.141C251.186 190.446 250.934 190.703 250.632 190.892L181.384 230.88C180.799 231.221 180.331 230.978 180.331 230.344C180.356 229.99 180.465 229.648 180.648 229.344C180.831 229.041 181.083 228.785 181.384 228.598Z" fill="#E0E0E0"/>
<path opacity="0.8" d="M181.384 235.454L250.632 195.466C251.217 195.135 251.685 195.369 251.685 196.003C251.66 196.358 251.551 196.701 251.368 197.006C251.185 197.311 250.933 197.569 250.632 197.758L181.384 237.746C180.799 238.078 180.331 237.844 180.331 237.21C180.356 236.855 180.464 236.511 180.648 236.206C180.831 235.901 181.083 235.644 181.384 235.454Z" fill="#E0E0E0"/>
<path opacity="0.8" d="M181.384 242.321L250.632 202.333C251.217 201.991 251.685 202.235 251.685 202.859C251.661 203.214 251.553 203.558 251.369 203.864C251.186 204.169 250.934 204.426 250.632 204.615L181.384 244.603C180.799 244.944 180.331 244.7 180.331 244.076C180.355 243.721 180.463 243.377 180.646 243.072C180.83 242.767 181.082 242.509 181.384 242.321Z" fill="#E0E0E0"/>
<path opacity="0.8" d="M181.384 249.197L250.632 209.209C251.217 208.877 251.685 209.111 251.685 209.745C251.66 210.1 251.551 210.444 251.368 210.749C251.185 211.054 250.933 211.311 250.632 211.501L181.384 251.489C180.799 251.82 180.331 251.586 180.331 250.952C180.356 250.598 180.464 250.254 180.648 249.949C180.831 249.644 181.083 249.386 181.384 249.197Z" fill="#E0E0E0"/>
<path d="M182.018 162.071L186.592 159.448C187.568 158.911 188.28 159.35 188.28 160.423V165.69C188.249 166.276 188.081 166.847 187.788 167.355C187.494 167.864 187.085 168.296 186.592 168.616L182.047 171.239C181.072 171.776 180.36 171.347 180.36 170.264V165.017C180.385 164.43 180.548 163.857 180.836 163.345C181.124 162.833 181.529 162.397 182.018 162.071Z" fill="#90CAF9"/>
<path opacity="0.2" d="M182.018 162.071L186.592 159.448C187.568 158.911 188.28 159.35 188.28 160.423V165.69C188.249 166.276 188.081 166.847 187.788 167.355C187.494 167.864 187.085 168.296 186.592 168.616L182.047 171.239C181.072 171.776 180.36 171.347 180.36 170.264V165.017C180.385 164.43 180.548 163.857 180.836 163.345C181.124 162.833 181.529 162.397 182.018 162.071Z" fill="white"/>
<path d="M194.327 157.253L221.792 141.394C222.962 140.721 223.908 141.199 223.908 142.458C223.857 143.168 223.638 143.856 223.27 144.467C222.903 145.077 222.396 145.591 221.792 145.969L194.327 161.788C193.156 162.461 192.21 161.983 192.21 160.725C192.268 160.022 192.489 159.341 192.856 158.738C193.224 158.135 193.727 157.627 194.327 157.253Z" fill="#90CAF9"/>
<path opacity="0.8" d="M194.327 157.253L221.792 141.394C222.962 140.721 223.908 141.199 223.908 142.458C223.857 143.168 223.638 143.856 223.27 144.467C222.903 145.077 222.396 145.591 221.792 145.969L194.327 161.788C193.156 162.461 192.21 161.983 192.21 160.725C192.268 160.022 192.489 159.341 192.856 158.738C193.224 158.135 193.727 157.627 194.327 157.253Z" fill="white"/>
<path d="M182.018 212.398L186.592 209.774C187.568 209.228 188.28 209.667 188.28 210.75V215.997C188.249 216.583 188.08 217.153 187.787 217.662C187.493 218.17 187.084 218.602 186.592 218.923L182.047 221.546C181.072 222.083 180.36 221.644 180.36 220.571V215.324C180.387 214.74 180.551 214.171 180.839 213.663C181.127 213.154 181.531 212.721 182.018 212.398Z" fill="#90CAF9"/>
<path opacity="0.2" d="M182.018 212.398L186.592 209.774C187.568 209.228 188.28 209.667 188.28 210.75V215.997C188.249 216.583 188.08 217.153 187.787 217.662C187.493 218.17 187.084 218.602 186.592 218.923L182.047 221.546C181.072 222.083 180.36 221.644 180.36 220.571V215.324C180.387 214.74 180.551 214.171 180.839 213.663C181.127 213.154 181.531 212.721 182.018 212.398Z" fill="white"/>
<path d="M194.327 207.629L221.792 191.76C222.962 191.087 223.908 191.565 223.908 192.833C223.856 193.543 223.637 194.231 223.269 194.841C222.902 195.451 222.395 195.966 221.792 196.344L194.327 212.203C193.156 212.876 192.21 212.398 192.21 211.13C192.263 210.421 192.482 209.735 192.85 209.126C193.218 208.518 193.724 208.005 194.327 207.629Z" fill="#90CAF9"/>
<path opacity="0.8" d="M194.327 207.629L221.792 191.76C222.962 191.087 223.908 191.565 223.908 192.833C223.856 193.543 223.637 194.231 223.269 194.841C222.902 195.451 222.395 195.966 221.792 196.344L194.327 212.203C193.156 212.876 192.21 212.398 192.21 211.13C192.263 210.421 192.482 209.735 192.85 209.126C193.218 208.518 193.724 208.005 194.327 207.629Z" fill="white"/>
<path d="M188.484 256.697L193.029 254.073C194.005 253.537 194.726 253.976 194.726 255.049V260.296C194.694 260.883 194.524 261.454 194.229 261.963C193.934 262.471 193.523 262.903 193.029 263.222L188.484 265.845C187.558 266.392 186.797 265.953 186.797 264.87V259.623C186.831 259.037 187.001 258.468 187.294 257.96C187.587 257.452 187.995 257.02 188.484 256.697Z" fill="#90CAF9"/>
<path d="M181.384 274.526L200.14 263.7C200.725 263.368 201.193 263.602 201.193 264.236C201.168 264.591 201.059 264.935 200.876 265.24C200.693 265.545 200.441 265.803 200.14 265.992L181.384 276.818C180.799 277.149 180.331 276.915 180.331 276.281C180.356 275.927 180.464 275.583 180.648 275.278C180.831 274.973 181.083 274.715 181.384 274.526Z" fill="#E0E0E0"/>
<path d="M213.716 242.126L218.261 239.502C219.188 238.966 219.948 239.404 219.948 240.477V245.725C219.917 246.31 219.747 246.881 219.454 247.389C219.161 247.897 218.752 248.33 218.261 248.65L213.716 251.274C212.741 251.811 212.019 251.381 212.019 250.299V245.052C212.052 244.465 212.222 243.894 212.517 243.385C212.812 242.877 213.223 242.445 213.716 242.126Z" fill="#90CAF9"/>
<path d="M206.606 259.954L225.361 249.128C225.947 248.787 226.415 249.031 226.415 249.665C226.389 250.018 226.281 250.361 226.098 250.664C225.915 250.968 225.662 251.224 225.361 251.411L206.606 262.246C206.021 262.588 205.553 262.344 205.553 261.72C205.575 261.363 205.683 261.017 205.866 260.71C206.049 260.403 206.303 260.144 206.606 259.954Z" fill="#E0E0E0"/>
<path d="M238.938 227.554L243.483 224.931C244.409 224.385 245.17 224.823 245.17 225.906V231.153C245.137 231.739 244.967 232.309 244.674 232.817C244.381 233.325 243.973 233.757 243.483 234.079L238.938 236.703C237.962 237.239 237.25 236.8 237.25 235.727V230.48C237.281 229.894 237.449 229.323 237.742 228.814C238.036 228.306 238.445 227.874 238.938 227.554Z" fill="#90CAF9"/>
<path opacity="0.2" d="M188.484 256.697L193.029 254.073C194.005 253.537 194.726 253.976 194.726 255.049V260.296C194.694 260.883 194.524 261.454 194.229 261.963C193.934 262.471 193.523 262.903 193.029 263.222L188.484 265.845C187.558 266.392 186.797 265.953 186.797 264.87V259.623C186.831 259.037 187.001 258.468 187.294 257.96C187.587 257.452 187.995 257.02 188.484 256.697Z" fill="white"/>
<path opacity="0.2" d="M213.716 242.126L218.261 239.502C219.188 238.966 219.948 239.404 219.948 240.477V245.725C219.917 246.31 219.747 246.881 219.454 247.389C219.161 247.897 218.752 248.33 218.261 248.65L213.716 251.274C212.741 251.811 212.019 251.381 212.019 250.299V245.052C212.052 244.465 212.222 243.894 212.517 243.385C212.812 242.877 213.223 242.445 213.716 242.126Z" fill="white"/>
<path opacity="0.2" d="M238.938 227.554L243.483 224.931C244.409 224.385 245.17 224.823 245.17 225.906V231.153C245.137 231.739 244.967 232.309 244.674 232.817C244.381 233.325 243.973 233.757 243.483 234.079L238.938 236.703C237.962 237.239 237.25 236.8 237.25 235.727V230.48C237.281 229.894 237.449 229.323 237.742 228.814C238.036 228.306 238.445 227.874 238.938 227.554Z" fill="white"/>
<path d="M231.828 245.383L250.583 234.557C251.168 234.216 251.636 234.46 251.636 235.084C251.612 235.439 251.504 235.783 251.321 236.088C251.138 236.393 250.885 236.651 250.583 236.839L231.828 247.665C231.252 248.007 230.774 247.763 230.774 247.129C230.802 246.776 230.911 246.434 231.094 246.131C231.277 245.828 231.528 245.572 231.828 245.383Z" fill="#E0E0E0"/>
<path d="M138.889 82.6509C127.946 88.8149 119.081 104.176 119.081 116.953C119.081 129.73 127.946 134.977 138.889 128.657C149.832 122.337 158.698 106.985 158.698 94.345C158.698 81.7049 149.823 76.4771 138.889 82.6509Z" fill="#FAFAFA"/>
<path d="M148.487 122.025L132.628 126.277C132.355 126.366 132.064 126.386 131.781 126.334C131.499 126.282 131.234 126.161 131.01 125.98C130.786 125.8 130.611 125.567 130.5 125.302C130.389 125.037 130.346 124.749 130.375 124.463V97.466C130.431 95.2314 131.177 93.069 132.511 91.2755C133.846 89.482 135.702 88.1455 137.826 87.4495L143.249 85.9962C147.375 84.8941 150.72 87.586 150.72 92.0042V119.011C150.702 119.682 150.478 120.331 150.079 120.87C149.679 121.409 149.123 121.812 148.487 122.025Z" fill="#37474F"/>
<path d="M149.247 129.008L147.579 121.644C147.579 121.644 147.579 111.706 146.165 110.789C144.751 109.872 144.341 109.697 144.341 109.697C146.155 109.072 149.979 108.604 151.169 112.096C152.31 115.392 154.016 123.517 154.826 127.516L149.247 129.008Z" fill="#F28F8F"/>
<path d="M149.111 129.047L143.454 109.784C145.96 108.809 149.179 107.999 150.739 110.584C152.144 112.905 154.387 125.068 154.826 127.516L149.111 129.047Z" fill="#90CAF9"/>
<g opacity="0.4">
<path opacity="0.4" d="M149.111 129.047L143.454 109.784C145.96 108.809 149.179 108 150.739 110.584C152.144 112.905 154.387 125.068 154.826 127.516L149.111 129.047Z" fill="black"/>
</g>
<path d="M149.871 128.842L144.312 130.334C144.536 128.738 145.062 127.198 145.863 125.799C146.976 124.196 148.577 122.995 150.427 122.376C150.027 124.507 149.841 126.673 149.871 128.842Z" fill="#90CAF9"/>
<path d="M149.871 128.842L144.312 130.334C144.536 128.738 145.062 127.198 145.863 125.799C146.976 124.196 148.577 122.995 150.427 122.376C150.027 124.507 149.841 126.673 149.871 128.842Z" fill="#90CAF9"/>
<g opacity="0.7">
<path opacity="0.7" d="M149.871 128.842L144.312 130.334C144.536 128.738 145.062 127.198 145.863 125.799C146.976 124.196 148.577 122.995 150.427 122.376C150.027 124.507 149.841 126.673 149.871 128.842Z" fill="black"/>
</g>
<path d="M148.682 129.164L133.076 133.329L131.36 128.013C131.36 128.013 135.915 117.353 130.287 114.612C130.999 114.076 136.997 111.735 136.997 111.735L143.444 109.784C144.673 109.453 149.637 111.657 150.896 116.543C151.344 118.27 151.188 119.82 148.662 128.813C148.691 128.93 148.682 129.047 148.682 129.164Z" fill="#90CAF9"/>
<path d="M147.394 89.3123C148.467 89.7025 149.793 92.2383 149.667 98.3536C149.559 103.542 147.999 105.181 147.219 105.805C146.05 106.39 144.761 106.694 143.454 106.693V109.784C143.454 109.784 145.483 111.735 145.356 113.217C145.229 114.7 142.43 115.753 140.538 114.876C139.156 114.096 137.961 113.024 137.036 111.735V104.615C136.894 104.779 136.72 104.913 136.525 105.01C136.33 105.106 136.118 105.163 135.901 105.176C135.684 105.19 135.467 105.16 135.262 105.089C135.056 105.018 134.867 104.906 134.705 104.761C134.401 104.553 134.141 104.285 133.942 103.975C133.742 103.664 133.607 103.317 133.544 102.953C133.482 102.589 133.492 102.217 133.576 101.857C133.66 101.498 133.815 101.159 134.032 100.86C135.008 99.5825 136.714 99.3972 137.378 100.675C138.203 98.6709 139.681 97.0042 141.572 95.9445C144.654 94.0719 146.331 92.4041 147.394 89.3123Z" fill="#FFA8A7"/>
<path d="M144.302 98.4998C144.307 98.6847 144.254 98.8665 144.151 99.0201C144.048 99.1737 143.9 99.2918 143.727 99.3581C143.654 99.3835 143.575 99.3906 143.499 99.3789C143.422 99.3672 143.349 99.337 143.287 99.2909C143.224 99.2448 143.174 99.1842 143.14 99.1144C143.107 99.0445 143.09 98.9675 143.093 98.8899C143.089 98.705 143.142 98.5233 143.245 98.3697C143.348 98.216 143.496 98.098 143.668 98.0317C143.742 98.0063 143.82 97.9991 143.897 98.0108C143.974 98.0225 144.046 98.0527 144.109 98.0988C144.171 98.1449 144.221 98.2055 144.255 98.2754C144.289 98.3452 144.305 98.4223 144.302 98.4998Z" fill="#37474F"/>
<path d="M144.458 102.83L145.863 102.928C145.822 103.142 145.71 103.336 145.546 103.479C145.381 103.622 145.174 103.706 144.956 103.718C144.566 103.689 144.341 103.269 144.458 102.83Z" fill="#F28F8F"/>
<path d="M149.257 95.1837L148.038 94.6083C148.11 94.4197 148.25 94.2646 148.43 94.1727C148.61 94.0809 148.818 94.0589 149.013 94.1109C149.1 94.1646 149.176 94.2352 149.236 94.3185C149.295 94.4018 149.338 94.4962 149.36 94.5961C149.383 94.696 149.386 94.7994 149.368 94.9003C149.35 95.0012 149.312 95.0976 149.257 95.1837Z" fill="#37474F"/>
<path d="M142.547 97.466L143.766 96.2274C143.701 96.1616 143.623 96.1103 143.537 96.0767C143.451 96.0432 143.359 96.0283 143.267 96.0329C143.175 96.0375 143.085 96.0615 143.003 96.1034C142.921 96.1454 142.848 96.2042 142.791 96.2761C142.621 96.4177 142.505 96.6124 142.461 96.8285C142.417 97.0446 142.447 97.2694 142.547 97.466Z" fill="#37474F"/>
<path d="M148.974 96.7833C148.98 96.9685 148.927 97.1509 148.824 97.3048C148.721 97.4587 148.572 97.5765 148.399 97.6416C148.325 97.6673 148.245 97.6744 148.168 97.6622C148.09 97.65 148.017 97.619 147.954 97.5717C147.892 97.5245 147.842 97.4626 147.808 97.3914C147.775 97.3202 147.76 97.242 147.765 97.1637C147.762 96.979 147.815 96.7979 147.918 96.6446C148.021 96.4912 148.168 96.3729 148.34 96.3054C148.414 96.2796 148.494 96.2725 148.571 96.2847C148.649 96.2969 148.722 96.328 148.785 96.3752C148.847 96.4225 148.897 96.4844 148.93 96.5556C148.963 96.6267 148.979 96.7049 148.974 96.7833Z" fill="#37474F"/>
<path d="M146.126 97.1734L146.214 101.045L148.135 99.8945L146.126 97.1734Z" fill="#F28F8F"/>
<path d="M143.454 106.693C141.913 106.888 138.733 106.761 138.236 105.551C138.416 106.145 138.813 106.65 139.348 106.966C140.323 107.59 143.454 107.726 143.454 107.726V106.693Z" fill="#F28F8F"/>
<path d="M133.164 133.319L132.511 130.998L134.227 133.036L133.164 133.319Z" fill="#90CAF9"/>
<path d="M131.886 133.66C131.186 130.324 130.237 127.044 129.048 123.848C127.41 119.352 129.243 115.47 130.345 114.612C131.448 113.754 137.056 111.735 137.056 111.735C139.084 117.509 139.64 125.243 139.689 131.573L131.886 133.66Z" fill="#90CAF9"/>
<path opacity="0.4" d="M131.886 133.66C131.186 130.324 130.237 127.044 129.048 123.848C127.41 119.352 129.243 115.47 130.345 114.612C131.448 113.754 137.056 111.735 137.056 111.735C139.084 117.509 139.64 125.243 139.689 131.573L131.886 133.66Z" fill="black"/>
<path d="M129.117 134.401L123.548 135.894C123.392 135.789 123.245 135.671 123.109 135.543C123.109 135.543 125.742 125.38 126.581 122.005C127.42 118.631 128.063 116.309 130.326 114.612C134.393 117.255 132.511 124.599 132.511 124.599L129.117 134.401Z" fill="#90CAF9"/>
<path opacity="0.4" d="M129.117 134.401L123.548 135.894C123.392 135.789 123.245 135.671 123.109 135.543C123.109 135.543 125.742 125.38 126.581 122.005C127.42 118.631 128.063 116.309 130.326 114.612C134.393 117.255 132.511 124.599 132.511 124.599L129.117 134.401Z" fill="black"/>
<path d="M48.0285 69.4548V50.1337C47.97 46.3884 50.4083 42.6335 55.3532 39.7855C65.1064 34.1384 80.9651 34.1384 90.7378 39.7855C95.6827 42.6335 98.121 46.3884 98.0625 50.1337V69.3865C98.0625 73.1122 95.6632 79.7737 90.7378 82.6119C80.9846 88.259 65.1259 88.259 55.3532 82.6119C50.4766 79.8029 48.0382 73.1903 48.0285 69.4938V69.4548Z" fill="#EBEBEB"/>
<path d="M73.0455 26.1603L114.331 49.9971L73.0455 73.834L31.7601 49.9971L73.0455 26.1603Z" fill="#F5F5F5"/>
<path d="M52.3882 61.9058L72.7236 50.2995C72.8075 50.2515 72.9 50.2204 72.9959 50.2082C73.0918 50.1959 73.1892 50.2026 73.2825 50.228C73.3758 50.2534 73.4631 50.2968 73.5396 50.356C73.6161 50.4151 73.6802 50.4887 73.7282 50.5726C73.7762 50.6565 73.8073 50.749 73.8195 50.8449C73.8318 50.9408 73.8251 51.0382 73.7997 51.1315C73.7744 51.2247 73.7309 51.3121 73.6717 51.3886C73.6126 51.4651 73.539 51.5292 73.4551 51.5772L53.8414 62.7446L52.3882 61.9058Z" fill="#E0E0E0"/>
<path d="M114.331 49.9972V51.704L73.0455 75.5311V73.834L114.331 49.9972Z" fill="#E6E6E6"/>
<path d="M31.7601 49.9972V51.704L73.0455 75.5311V73.834L31.7601 49.9972Z" fill="#F0F0F0"/>
<path d="M51.3641 63.0177L52.6223 63.7394C52.8125 63.4287 53.0774 63.1706 53.3928 62.9884L53.8317 62.7348L52.398 61.9155C51.9745 62.2 51.621 62.5769 51.3641 63.0177Z" fill="#E0E0E0"/>
<path d="M98.1112 61.067L73.0455 78.0864L48.048 61.1061L73.0455 75.531L98.1112 61.067Z" fill="#E0E0E0"/>
<path d="M49.7548 83.0898C50.1046 83.2703 50.4926 83.3645 50.8862 83.3645C51.2798 83.3645 51.6677 83.2703 52.0176 83.0898L53.8804 95.1155C53.8804 97.388 47.9797 97.388 47.9797 95.1155L49.7548 83.0898Z" fill="#F5F5F5"/>
<path d="M49.6475 89.956L49.2769 96.5492C49.1552 96.5123 49.0376 96.4633 48.9258 96.4029L49.6475 89.956Z" fill="#EBEBEB"/>
<path d="M52.4369 96.598L51.6567 85.8694L52.8173 96.4419C52.6937 96.5014 52.5667 96.5536 52.4369 96.598Z" fill="#EBEBEB"/>
<path d="M51.1105 96.8126H50.7399L50.9349 88.298L51.1105 96.8126Z" fill="#EBEBEB"/>
<path d="M50.8764 84.0944C51.3088 84.0836 51.7274 83.9406 52.0761 83.6847C52.2243 83.5753 52.325 83.4133 52.3577 83.232C52.3903 83.0506 52.3524 82.8637 52.2516 82.7094C52.1452 82.5576 51.9837 82.4533 51.8016 82.4187C51.6194 82.3841 51.431 82.4219 51.2763 82.5241C51.1835 82.6141 51.0593 82.6644 50.9301 82.6644C50.8008 82.6644 50.6766 82.6141 50.5838 82.5241C50.508 82.4566 50.4189 82.4056 50.3222 82.3744C50.2256 82.3431 50.1235 82.3324 50.0225 82.3428C49.9215 82.3532 49.8237 82.3845 49.7354 82.4348C49.6472 82.485 49.5704 82.5531 49.5099 82.6347C49.4494 82.7162 49.4065 82.8095 49.384 82.9086C49.3616 83.0076 49.36 83.1103 49.3793 83.2099C49.3987 83.3096 49.4386 83.4042 49.4965 83.4876C49.5545 83.5711 49.6291 83.6415 49.7158 83.6945C50.0515 83.9456 50.4573 84.0854 50.8764 84.0944Z" fill="#E0E0E0"/>
<path d="M50.9253 82.2217C51.0209 82.223 51.1158 82.2053 51.2044 82.1696C51.2931 82.1339 51.3739 82.081 51.4419 82.0138C51.51 81.9467 51.564 81.8667 51.6009 81.7785C51.6378 81.6903 51.6568 81.5956 51.6567 81.5V64.4514C51.6577 64.0681 51.7591 63.6917 51.9507 63.3597C52.1424 63.0278 52.4176 62.7518 52.7491 62.5593L73.4552 50.7579C73.6196 50.6637 73.7404 50.5087 73.7915 50.3262C73.8426 50.1437 73.8199 49.9484 73.7283 49.7826C73.6826 49.7002 73.621 49.6277 73.547 49.5693C73.4731 49.5109 73.3883 49.4677 73.2976 49.4423C73.2069 49.4169 73.1121 49.4098 73.0186 49.4213C72.9251 49.4328 72.8348 49.4628 72.7529 49.5095L51.9981 61.3304C51.4449 61.6498 50.9852 62.1089 50.6651 62.6618C50.3451 63.2146 50.1758 63.8418 50.1743 64.4807V81.5293C50.178 81.6241 50.2004 81.7172 50.2402 81.8033C50.28 81.8895 50.3364 81.9669 50.4062 82.0312C50.4759 82.0955 50.5577 82.1455 50.6467 82.1782C50.7358 82.2109 50.8305 82.2257 50.9253 82.2217Z" fill="#FAFAFA"/>
<path d="M52.5248 81.5C52.5267 81.1833 52.4345 80.8731 52.26 80.6087C52.0854 80.3444 51.8362 80.1379 51.5441 80.0153C51.252 79.8928 50.9301 79.8597 50.6192 79.9203C50.3083 79.9809 50.0224 80.1325 49.7977 80.3558C49.573 80.5791 49.4197 80.8641 49.3572 81.1746C49.2947 81.4852 49.3258 81.8073 49.4466 82.1001C49.5673 82.393 49.7723 82.6433 50.0356 82.8195C50.2988 82.9957 50.6085 83.0898 50.9252 83.0898C51.1348 83.0911 51.3426 83.0509 51.5366 82.9716C51.7306 82.8923 51.907 82.7754 52.0557 82.6276C52.2043 82.4799 52.3223 82.3042 52.4028 82.1107C52.4833 81.9171 52.5248 81.7096 52.5248 81.5Z" fill="#F5F5F5"/>
<path d="M49.3452 81.5878C49.4118 81.7528 49.5132 81.9015 49.6425 82.0238C49.7718 82.1461 49.9259 82.2391 50.0943 82.2965C50.2627 82.3539 50.4416 82.3743 50.6186 82.3563C50.7957 82.3384 50.9668 82.2825 51.1203 82.1925C51.3161 82.0745 51.4782 81.9079 51.5907 81.7088C51.7032 81.5097 51.7623 81.2849 51.7623 81.0563C51.7623 80.8276 51.7032 80.6028 51.5907 80.4037C51.4782 80.2046 51.3161 80.038 51.1203 79.92C51.4186 79.9612 51.6992 80.0863 51.9292 80.2807C52.1592 80.4751 52.3293 80.7309 52.4196 81.0182C52.5099 81.3056 52.5167 81.6127 52.4393 81.9037C52.3618 82.1948 52.2032 82.4579 51.9821 82.6623C51.7609 82.8667 51.4862 83.0041 51.1899 83.0585C50.8937 83.1129 50.5881 83.082 50.3087 82.9694C50.0293 82.8568 49.7877 82.6672 49.612 82.4226C49.4362 82.178 49.3335 81.8885 49.3159 81.5878H49.3452Z" fill="#EBEBEB"/>
<path d="M333.485 72.0882L325.946 67.748L330.091 66.8702L334.217 69.7474L333.485 72.0882Z" fill="#E0E0E0"/>
<path d="M320.289 33.2412C320.289 21.5373 313.121 16.1048 304.314 21.1862L291.303 28.6962C282.525 33.7776 275.337 47.4711 275.337 59.214C275.337 59.6919 275.337 60.1893 275.337 60.6087C275.337 60.872 275.337 61.0963 275.337 61.3499C275.337 61.6035 275.386 61.8083 275.405 62.0326C275.425 62.257 275.464 62.5496 275.503 62.8032C275.699 64.1891 276.046 65.5496 276.536 66.8605C276.741 67.3481 276.956 67.8358 277.19 68.2454C277.298 68.4716 277.422 68.69 277.561 68.8989L277.687 69.1037C277.904 69.4531 278.156 69.7799 278.438 70.079C278.594 70.2546 278.741 70.4399 278.906 70.6057L279.414 71.0934C279.589 71.2299 279.755 71.3957 279.94 71.5323C280.115 71.6734 280.301 71.8005 280.496 71.9126L281.072 72.2443C281.817 72.6466 282.625 72.9202 283.461 73.0538C283.525 73.0381 283.592 73.0381 283.656 73.0538C283.881 73.0538 284.085 73.1025 284.31 73.1025C284.547 73.122 284.785 73.122 285.022 73.1025C285.649 73.1094 286.274 73.0406 286.885 72.8977C287.25 72.8251 287.611 72.7339 287.967 72.6246C289.107 72.2755 290.201 71.7909 291.225 71.1812L304.236 63.6712C305.127 63.1534 305.981 62.5733 306.791 61.9351C306.791 61.7791 306.791 61.6425 306.791 61.4962C306.791 61.3499 306.791 61.0378 306.791 60.8623C306.791 60.4721 306.791 60.0723 306.791 59.6724C306.762 49.6948 312.77 37.9227 320.289 33.2412Z" fill="#E0E0E0"/>
<path d="M322.484 24.8046L314.925 20.4547C314.974 20.4547 315.695 25.7117 315.695 25.7117L321.304 26.3749L322.484 24.8046Z" fill="#E0E0E0"/>
<path d="M287.557 75.9212L280.574 71.9614L284.778 70.1571L287.557 75.9212Z" fill="#E0E0E0"/>
<path d="M291.303 71.2982C291.253 74.1885 290.324 76.9952 288.64 79.3446C288.328 79.7542 288.806 80.1151 289.157 79.9298C290.751 79.1026 292.164 77.9652 293.312 76.5844C295.518 73.9774 297.06 70.8754 297.808 67.5432L291.303 71.2982Z" fill="#E0E0E0"/>
<path d="M288.718 79.9103L296.277 84.2602C296.277 84.2602 300.52 80.6808 300.52 73.4341L292.317 72.8782C292.317 72.8782 292.122 77.5987 288.718 79.9103Z" fill="#E0E0E0"/>
<path d="M308.849 58.5897C308.849 58.9539 308.849 59.305 308.849 59.6431C308.849 59.8381 308.849 60.004 308.849 60.1893C308.849 60.3746 308.849 60.5306 308.907 60.7062C308.966 60.8817 308.907 61.0963 308.976 61.2914C309.089 62.1554 309.291 63.0052 309.58 63.8272C309.622 63.977 309.674 64.1236 309.736 64.2661C309.808 64.462 309.889 64.6541 309.98 64.8415C310.056 65.0228 310.144 65.1987 310.243 65.3682C310.321 65.5381 310.412 65.7013 310.517 65.8559L310.614 66.0119C310.786 66.2806 310.975 66.538 311.18 66.7824C311.286 66.9246 311.404 67.0583 311.531 67.1823L311.902 67.5432C312.028 67.6618 312.161 67.7725 312.301 67.8748C312.435 67.978 312.575 68.0725 312.721 68.1576C312.867 68.2454 313.004 68.3332 313.16 68.4112L313.608 68.6258L314.076 68.7916C314.362 68.878 314.652 68.9496 314.945 69.0062H315.091C315.253 69.021 315.416 69.021 315.578 69.0062C315.753 69.026 315.93 69.026 316.105 69.0062C316.524 69.006 316.943 68.9635 317.354 68.8794C317.683 68.8235 318.008 68.7486 318.329 68.6551C319.185 68.3927 320.007 68.0292 320.777 67.5724L330.53 61.9351C331.4 61.433 332.22 60.8484 332.978 60.1893C333.251 59.9552 333.524 59.7016 333.797 59.448C334.289 58.99 334.755 58.5049 335.192 57.9948L335.816 57.4291C335.982 57.234 336.138 57.0292 336.304 56.8244C336.344 56.7535 336.394 56.688 336.45 56.6293C337.1 55.7707 337.699 54.8751 338.245 53.9472C338.391 53.7034 338.528 53.4498 338.674 53.1962C338.82 52.9426 338.957 52.6891 339.093 52.4257C339.23 52.1624 339.357 51.899 339.493 51.6455L339.864 50.8457C339.991 50.5824 340.108 50.2995 340.225 50.0459C340.43 49.5778 340.615 49.0706 340.781 48.622C340.781 48.5342 340.849 48.4464 340.878 48.3586C340.986 48.0855 341.073 47.8124 341.161 47.5394C341.337 47.0127 341.493 46.486 341.649 45.9398C341.992 44.6579 342.249 43.3546 342.419 42.0385C342.419 41.8142 342.468 41.5997 342.497 41.3753C342.527 41.151 342.497 40.9949 342.546 40.7999C342.595 40.6048 342.546 40.4098 342.546 40.2147C342.546 39.8506 342.546 39.4897 342.546 39.1321C342.546 30.3542 337.172 26.2481 330.559 30.0616L320.806 35.7087C314.223 39.5027 308.849 49.7728 308.849 58.5897Z" fill="#E0E0E0"/>
<path d="M346.067 33.8068L338.567 29.4959L335.738 31.4953L344.487 36.7913L346.067 33.8068Z" fill="#E0E0E0"/>
<path d="M320.319 72.4978L312.779 68.1576L318.69 66.3923L320.319 72.4978Z" fill="#E0E0E0"/>
<path d="M329.116 62.8811C329.116 64.4417 331.067 66.5679 333.3 66.9677C333.602 67.0263 333.524 67.6895 333.164 67.9431C331.832 68.6661 330.297 68.9203 328.804 68.6648C327.834 68.6359 326.89 68.3497 326.067 67.8356C325.244 67.3214 324.573 66.5978 324.122 65.7388L329.116 62.8811Z" fill="#90CAF9"/>
<path d="M311.863 25.5263L298.842 33.0461C290.064 38.1275 282.886 51.821 282.886 63.5541C282.886 64.0418 282.886 64.5294 282.886 64.9586C282.886 65.2219 282.886 65.4462 282.886 65.6998C282.886 65.9534 282.934 66.1484 282.964 66.3728C282.993 66.5971 283.022 66.9092 283.061 67.153C283.237 68.5338 283.564 69.8912 284.037 71.2006C284.241 71.698 284.456 72.1759 284.69 72.5953C284.798 72.8187 284.922 73.0338 285.061 73.239C285.102 73.3102 285.147 73.3787 285.197 73.4438C285.409 73.8124 285.657 74.1588 285.938 74.4777C286.095 74.6532 286.251 74.8483 286.416 75.0044L286.914 75.492C287.089 75.6286 287.265 75.7944 287.44 75.9309C287.617 76.0698 287.803 76.1969 287.996 76.3113L288.582 76.6429C289.324 77.0437 290.129 77.3173 290.961 77.4524C291.025 77.4309 291.093 77.4309 291.156 77.4524C291.381 77.4524 291.595 77.4524 291.81 77.4524C292.047 77.4669 292.285 77.4669 292.522 77.4524C293.149 77.4551 293.774 77.3864 294.385 77.2476C294.75 77.175 295.111 77.0838 295.467 76.9745C296.604 76.6224 297.697 76.1414 298.725 75.5408C298.677 78.4299 297.744 81.2347 296.053 83.5774C295.74 83.9968 296.218 84.3577 296.579 84.1724C298.175 83.3443 299.588 82.2033 300.734 80.8173C302.934 78.21 304.476 75.1128 305.23 71.7858L304.255 72.3222L311.697 68.0308C312.417 67.6158 313.111 67.1565 313.774 66.6556C313.717 66.408 313.675 66.1573 313.647 65.9046C313.647 65.7388 313.589 65.495 313.569 65.2414C313.534 65.0251 313.511 64.8069 313.501 64.5879V64.4709C313.491 64.3085 313.491 64.1456 313.501 63.9832C313.501 63.6126 313.501 63.2225 313.501 62.8324C313.501 52.9621 319.353 41.8337 326.882 37.474L327.711 36.9864C327.633 25.7019 320.543 20.5132 311.863 25.5263Z" fill="#F0F0F0"/>
<path d="M338.147 34.3823L328.394 40.0196C321.791 43.8429 316.408 54.113 316.408 62.9299C316.408 63.2908 316.408 63.6419 316.408 63.9833C316.408 64.3246 316.408 64.3441 316.408 64.5295C316.408 64.7148 316.408 64.8708 316.456 65.0464C316.472 65.2394 316.498 65.4315 316.534 65.6218C316.642 66.49 316.844 67.3437 317.139 68.1674C317.176 68.3185 317.229 68.4655 317.295 68.6063C317.361 68.7996 317.439 68.9885 317.529 69.172C317.607 69.3554 317.695 69.5345 317.792 69.7084C317.873 69.8786 317.968 70.0417 318.075 70.1961C318.098 70.2514 318.128 70.3038 318.163 70.3521C318.348 70.6252 318.534 70.8788 318.729 71.1226C318.841 71.2626 318.962 71.3961 319.09 71.5225L319.46 71.8834C319.587 72.002 319.72 72.1127 319.86 72.215C319.989 72.3203 320.126 72.4149 320.27 72.4978C320.416 72.5856 320.553 72.6734 320.709 72.7514L321.157 72.966L321.626 73.1318C321.911 73.2182 322.201 73.2898 322.494 73.3464H322.64C322.802 73.3612 322.965 73.3612 323.127 73.3464C323.305 73.3711 323.486 73.3711 323.664 73.3464C324.083 73.3488 324.501 73.3096 324.912 73.2293C325.241 73.1727 325.567 73.0978 325.888 73.005C326.745 72.7463 327.567 72.3827 328.336 71.9224L331.632 70.0303C332.09 70.8801 332.763 71.5939 333.586 72.0992C334.408 72.6045 335.349 72.8833 336.314 72.9075C337.808 73.1592 339.343 72.9016 340.674 72.176C341.025 71.9516 341.112 71.2884 340.8 71.2007C338.567 70.8008 336.626 68.6746 336.626 67.1141L338.108 66.2558C338.977 65.7513 339.797 65.1668 340.556 64.51C340.83 64.2759 341.103 64.0223 341.366 63.7687C341.861 63.3108 342.33 62.8257 342.77 62.3155C342.946 62.1107 343.122 61.9156 343.297 61.6815C343.473 61.4474 343.619 61.2914 343.785 61.0866L343.931 60.8915C344.581 60.0328 345.18 59.1373 345.726 58.2094L346.165 57.4584C346.311 57.2048 346.447 56.9512 346.584 56.6879C346.721 56.4245 346.838 56.1612 346.974 55.9076L347.354 55.1079C347.481 54.8348 347.589 54.5617 347.706 54.3081C347.91 53.8399 348.105 53.3328 348.271 52.8841L348.359 52.6208C348.466 52.3477 348.564 52.0746 348.642 51.8015C348.827 51.2651 348.973 50.7482 349.139 50.202C349.482 48.9201 349.74 47.6168 349.91 46.3007C349.91 46.0764 349.959 45.8618 349.978 45.6375C349.998 45.4132 349.978 45.2474 350.027 45.0621C350.076 44.8767 350.027 44.6719 350.027 44.4769C350.027 44.116 350.027 43.7454 350.027 43.3845C350.134 34.6359 344.75 30.5688 338.147 34.3823Z" fill="#F0F0F0"/>
<path d="M259.79 163.398C256.103 162.247 252.319 165.231 249.842 171.259C247.365 177.286 242.166 192.618 241.396 196.705C240.625 200.792 258.064 209.686 257.576 209.452C257.089 209.218 259.79 163.398 259.79 163.398Z" fill="#263238"/>
<path d="M251.685 305.268C251.159 305.463 251.032 306.458 250.954 308.428C250.895 309.92 250.573 312.524 252.319 313.041C254.065 313.558 256.63 313.295 257.752 311.89C259.146 310.135 260.092 308.594 262.082 306.448C263.818 304.595 265.681 302.859 266.383 300.255C267.017 297.894 266.491 296.88 264.881 296.197C262.677 295.222 259.205 298.324 257.479 298.811C255.986 299.231 252.202 305.073 251.685 305.268Z" fill="#263238"/>
<path d="M251.685 303.444V305.863C252.593 306.444 253.642 306.766 254.72 306.795C255.797 306.824 256.862 306.559 257.8 306.029C257.908 305.795 258.434 302.566 258.434 302.566L251.685 303.444Z" fill="#FFA8A7"/>
<path d="M271.279 319.215C271.279 319.215 270.587 321.322 270.216 323.116C269.914 324.579 269.495 327.018 270.002 328.129C270.509 329.241 272.518 329.943 275.61 329.914C277.619 329.914 280.75 331.27 282.886 332.46C285.022 333.65 289.713 334.186 292.044 333.913C294.794 333.591 297.652 331.962 298.101 330.851C298.549 329.739 297.954 328.52 291.459 325.75C291.4 325.75 282.427 322.824 279.277 319.342L271.279 319.215Z" fill="#263238"/>
<path d="M271.279 316.601C271.279 316.601 271.279 318.396 271.279 319.42C271.279 320.444 272.489 321.975 275.629 321.868C277.834 321.79 279.365 321.195 279.277 319.381V316.757L271.279 316.601Z" fill="#FFA8A7"/>
<path d="M250.105 271.327C250.644 267.04 251.601 262.816 252.963 258.716C252.963 258.716 252.105 247.841 251.685 237.532C251.237 226.394 251.685 212.388 251.5 209.618C251.5 209.618 287.44 202.342 288.084 215.217C288.728 228.091 286.66 260.862 286.241 266.518C285.821 272.175 284.836 277.179 283.666 286.347C282.496 295.515 279.277 316.757 279.277 316.757C278.034 317.391 276.654 317.708 275.259 317.681C273.864 317.653 272.497 317.283 271.279 316.601C271.279 316.601 268.753 290.853 269.017 284.328C269.222 279.481 270.055 274.682 271.494 270.049L270.216 250.201C269.612 240.965 268.978 236.547 268.831 232.519L268.061 232.129C268.061 232.129 267.271 248.065 266.851 253.722C266.432 259.379 265.525 264.802 263.926 275.306C262.502 284.416 258.278 303.698 258.278 303.698C254.172 305.921 251.724 303.415 251.724 303.415C251.724 303.415 249.013 279.227 250.105 271.327Z" fill="#455A64"/>
<path d="M268.831 232.548C268.831 232.548 260.112 228.247 255.752 224.375C255.752 224.375 259.8 230.08 265.125 232.616C265.125 232.616 267.017 252.405 267.008 252.015L268.1 232.509L268.831 232.548Z" fill="#37474F"/>
<path d="M276.595 159.321L274.469 171.025L263.896 170.254L266.11 156.98L276.595 159.321Z" fill="#FFA8A7"/>
<path d="M252.729 169.396C253.772 166.216 257.81 162.754 261.848 163.544C267.854 164.56 273.772 166.037 279.55 167.962C283.247 169.279 286.612 172.478 286.924 184.65L288.796 220.893L284.32 221.868L282.759 213.656L282.037 221.868C277.356 223.039 269.231 222.073 263.896 220.893C252.778 218.464 251.441 213.851 251.441 213.851C251.441 213.851 251.295 193.457 251.627 184.65C251.939 177.12 252.007 171.542 252.729 169.396Z" fill="#37474F"/>
<path d="M284.417 145.452C284.417 145.452 286.982 149.246 286.65 149.646C286.058 150.045 285.396 150.333 284.7 150.494L284.417 145.452Z" fill="#FFA8A7"/>
<path d="M276.595 133.436C279.063 134.684 283.325 136.986 284.495 146.008C285.704 155.273 284.115 158.258 282.866 159.487C282.018 160.316 277.414 160.364 275.112 159.672C272.187 158.804 265.73 156.336 262.765 151.577C259.273 145.978 258.493 138.478 262.433 135.494C267.963 131.3 274.508 132.382 276.595 133.436Z" fill="#FFA8A7"/>
<path d="M285.012 136.537C284.202 138.761 282.837 144.203 277.161 146.476C277.161 146.476 276.351 143.004 273.435 143.374C270.519 143.745 270.021 147.461 271.816 149.772C273.61 152.084 275.346 151.245 275.346 151.245C275.346 151.245 275.737 156.219 272.421 158.472C272.421 158.472 268.412 161.008 264.169 159.057C262.219 158.18 259.556 153.605 257.976 149.85C254.621 141.911 254.143 135.542 259.205 133.533C259.829 129.925 261.458 128.569 264.725 127.896C271.757 126.443 277.073 131.066 282.983 130.256C286.075 129.827 285.938 134.001 285.012 136.537Z" fill="#37474F"/>
<path d="M259.088 134.743L255.772 132.695C255.9 132.465 256.074 132.263 256.282 132.103C256.491 131.942 256.73 131.825 256.985 131.759C257.239 131.693 257.505 131.679 257.765 131.718C258.026 131.757 258.275 131.849 258.499 131.987C258.723 132.126 258.917 132.308 259.069 132.523C259.22 132.738 259.327 132.982 259.382 133.239C259.437 133.497 259.439 133.763 259.389 134.021C259.338 134.279 259.236 134.525 259.088 134.743Z" fill="#37474F"/>
<path d="M275.815 163.583L277.024 167.084C277.024 167.084 276.137 168.645 272.362 168.723C268.588 168.801 264.559 167.601 263.311 165.992C263.027 165.677 262.816 165.303 262.695 164.896C262.573 164.489 262.544 164.061 262.609 163.642C262.609 163.642 264.111 160.325 265.535 160.472L265.301 161.915C265.301 161.915 265.623 163.095 269.046 164.002C274.371 165.417 275.815 163.583 275.815 163.583Z" fill="#455A64"/>
<path d="M306.147 186.854C307.669 185.108 308.254 181.236 310.282 178.583C312.311 175.931 313.062 173.99 313.862 175.15C314.925 176.682 312.526 179.754 313.062 180.027C313.599 180.3 315.578 184.377 315.783 186.62C315.988 188.863 310.039 194.52 310.039 194.52L306.147 186.854Z" fill="#FFA8A7"/>
<path d="M275.815 163.583C276.06 163.578 276.302 163.64 276.515 163.762C276.728 163.884 276.904 164.061 277.024 164.276C277.621 165.353 278.155 166.463 278.624 167.601L277.024 167.084L275.815 163.583Z" fill="#455A64"/>
<path d="M312.896 179.715C312.896 179.715 320.084 179.091 321.128 179.715C322.172 180.339 321.86 183.45 321.128 185.362C320.397 187.274 316.729 188.512 313.325 190.814C313.325 190.463 312.896 179.715 312.896 179.715Z" fill="#FFA8A7"/>
<path d="M278.624 167.64C281.715 168.723 284.417 169.962 287.304 175.384C291.01 182.348 298.032 193.486 298.032 193.486L306.118 186.357C306.118 186.357 307.337 185.177 309.61 188.932C310.275 189.942 310.697 191.094 310.841 192.296C310.985 193.498 310.847 194.717 310.439 195.856C310.439 195.856 301.105 206.809 299.32 208.477C297.535 210.145 294.58 208.848 292.658 206.224C290.737 203.6 278.594 188.434 278.594 188.434C278.594 188.434 272.001 179.676 278.624 167.64Z" fill="#37474F"/>
<path d="M362.023 149.431H338.996C338.127 149.431 337.293 149.086 336.679 148.471C336.064 147.857 335.719 147.023 335.719 146.154V109.57C335.719 106.691 336.863 103.93 338.898 101.894C340.934 99.8581 343.695 98.7144 346.574 98.7144H354.474C357.348 98.7222 360.102 99.8693 362.131 101.904C364.161 103.939 365.3 106.696 365.3 109.57V146.154C365.3 147.023 364.955 147.857 364.341 148.471C363.726 149.086 362.892 149.431 362.023 149.431Z" fill="#37474F"/>
<path d="M335.114 136.947C332.881 143.53 329.135 162.471 329.135 162.471C329.135 162.471 321.333 172.01 318.787 174.321C317.393 175.609 314.252 177.92 314.252 177.92L319.958 182.114C325.109 178.152 329.948 173.799 334.431 169.094C335.429 168.032 336.128 166.727 336.46 165.309L340.361 148.573C340.361 148.573 340.361 135.113 342.419 133.348C344.477 131.583 345.072 131.212 345.072 131.212C342.429 131.017 336.87 131.768 335.114 136.947Z" fill="#F28F8F"/>
<path d="M346.291 131.017C342.653 130.598 337.991 130.676 335.719 134.743C333.446 138.81 329.662 159.838 329.662 159.838C329.662 159.838 333.242 162.617 337.104 162.569L346.291 131.017Z" fill="#90CAF9"/>
<path d="M336.177 150.611C336.832 153.746 337.085 156.951 336.928 160.15C336.645 164.363 333.739 171.717 333.739 171.717C333.739 171.717 336.011 174.214 342.419 173.209C347.637 172.4 345.794 156.629 342.8 153.605C341.053 151.801 338.685 150.731 336.177 150.611Z" fill="#90CAF9"/>
<path opacity="0.3" d="M336.177 150.611C336.832 153.746 337.085 156.951 336.928 160.15C336.645 164.363 333.739 171.717 333.739 171.717C333.739 171.717 336.011 174.214 342.419 173.209C347.637 172.4 345.794 156.629 342.8 153.605C341.053 151.801 338.685 150.731 336.177 150.611Z" fill="black"/>
<path d="M348.232 261.993C348.274 262.712 348.093 263.427 347.715 264.041C346.751 265.635 345.616 267.12 344.331 268.469C342.527 270.42 339.825 272.712 337.884 274.399C336.811 275.374 336.772 276.759 338.313 277.257C341.186 277.956 344.217 277.534 346.789 276.077C348.739 275.043 351.451 270.225 353.05 269.542C354.894 268.713 355.918 268.303 356.542 267.455C357.014 266.972 357.309 266.344 357.378 265.673C357.447 265.002 357.286 264.327 356.922 263.758C356.054 262.139 354.747 259.652 354.211 259.935L354.377 260.442C353.957 261.759 350.368 263.29 348.525 262.929L348.232 261.993Z" fill="#37474F"/>
<path d="M367.027 206.965C367.856 198.187 370.235 184.065 367.797 173.609L335.416 175.326C334.519 185.635 333.466 217.821 334.597 221.507C335.904 225.857 347.579 255.965 348.252 262.022C348.298 262.733 348.117 263.44 347.735 264.041C346.771 265.639 345.636 267.127 344.35 268.479C343.473 269.454 342.4 270.429 341.268 271.405C341.174 271.544 341.117 271.705 341.103 271.873C341.103 272.848 343.56 273.151 345.004 272.731C346.804 272.096 348.355 270.904 349.432 269.327C350.261 268.225 352.124 266.109 353.333 264.519C353.737 264.028 354.081 263.491 354.357 262.919C354.68 262.205 354.736 261.399 354.513 260.647L354.435 260.403C353.802 258.429 353.409 256.385 353.265 254.317C352.816 247.675 351.675 232.333 350.622 228.247C349.89 225.269 348.779 222.397 347.315 219.703L351.012 190.941C351.012 190.941 351.402 216.299 352.553 222.765C353.46 227.944 353.811 234.421 354.874 243.306C355.849 251.811 356.981 266.791 356.981 266.791C357.01 266.797 357.04 266.797 357.069 266.791V273.95H363.125V269.795C363.125 267.92 363.282 266.047 363.594 264.197C364.569 258.54 366.597 245.598 367.017 241.219C367.68 234.274 365.174 225.545 365.174 225.545C365.174 225.545 366.217 215.529 367.027 206.965Z" fill="#FFA8A7"/>
<path d="M355.615 131.319C355.615 131.319 364.325 132.295 365.369 132.792C357.195 138.537 363.818 151.323 363.818 151.323L360.687 161.145C364.169 165.602 367.173 168.255 369.036 173.141C371.103 178.603 372.937 186.727 372.449 203.376C364.647 209.228 340.908 208.594 331.661 203.376C331.661 203.376 333.222 188.678 335.065 177.257C336.285 169.718 339.162 161.506 338.674 158.726C335.007 147.451 334.773 145.423 335.436 142.906C337.26 135.825 344.477 131.037 346.252 131.037L355.615 131.319Z" fill="#90CAF9"/>
<path opacity="0.6" d="M355.615 131.319C355.615 131.319 364.325 132.295 365.369 132.792C357.195 138.537 363.818 151.323 363.818 151.323L360.687 161.145C364.169 165.602 367.173 168.255 369.036 173.141C371.103 178.603 372.937 186.727 372.449 203.376C364.647 209.228 340.908 208.594 331.661 203.376C331.661 203.376 333.222 188.678 335.065 177.257C336.285 169.718 339.162 161.506 338.674 158.726C335.007 147.451 334.773 145.423 335.436 142.906C337.26 135.825 344.477 131.037 346.252 131.037L355.615 131.319Z" fill="white"/>
<path d="M357.01 270.917V270.049C356.249 272.965 354.728 275.628 352.602 277.764C350.651 279.529 348.018 281.577 347.335 283.557C346.652 285.537 350.466 286.425 352.982 286.171C355.42 285.873 357.667 284.698 359.302 282.865C360.902 281.031 360.872 279.783 361.614 278.768C362.355 277.754 364.081 276.642 364.481 275.472C364.606 274.38 364.486 273.274 364.13 272.234C363.847 271.151 363.535 269.952 363.155 270.049V270.722C362.277 271.412 361.189 271.781 360.073 271.766C359.224 271.785 357 271.6 357.01 270.917Z" fill="#37474F"/>
<path d="M363.125 270.703C362.248 271.393 361.16 271.761 360.043 271.746C359.146 271.746 356.961 271.6 356.971 270.917V270.049C356.21 272.965 354.689 275.628 352.563 277.764L351.09 279.081C350.056 280.231 350.349 281.236 352.777 281.441C355.206 281.646 357.342 280.183 359.175 277.93C360.739 275.664 362.062 273.242 363.125 270.703Z" fill="#FFA8A7"/>
<path d="M340.576 104.693C339.015 105.62 337.084 109.57 337.27 117.782C337.435 124.765 339.698 126.492 340.839 126.989C341.98 127.486 344.165 127.184 346.291 126.833V131.017C346.291 131.017 343.365 134.44 343.531 136.362C343.697 138.283 347.784 138.732 350.544 136.859C352.537 135.314 354.252 133.441 355.615 131.319L355.567 121.693C355.567 121.693 356.825 122.902 358.951 121.049C360.707 119.518 361.292 116.924 359.926 115.539C359.572 115.205 359.143 114.962 358.675 114.828C358.207 114.694 357.714 114.674 357.237 114.769C356.759 114.865 356.312 115.073 355.932 115.376C355.551 115.68 355.249 116.07 355.05 116.514C355.05 116.514 353.87 113.227 348.964 111.637C344.536 110.165 342.127 108.497 340.576 104.693Z" fill="#FFA8A7"/>
<path d="M345.072 116.036C345.072 116.208 345.123 116.376 345.218 116.519C345.313 116.663 345.448 116.775 345.606 116.843C345.764 116.91 345.938 116.93 346.107 116.899C346.276 116.868 346.433 116.788 346.557 116.669C346.681 116.55 346.768 116.398 346.806 116.23C346.844 116.062 346.832 115.887 346.772 115.726C346.711 115.565 346.605 115.426 346.466 115.325C346.326 115.224 346.161 115.166 345.989 115.158C345.871 115.156 345.754 115.176 345.644 115.219C345.534 115.262 345.434 115.326 345.349 115.407C345.264 115.489 345.195 115.586 345.148 115.694C345.1 115.802 345.075 115.918 345.072 116.036Z" fill="#37474F"/>
<path d="M344.838 121.947L342.8 122.6C342.836 122.736 342.898 122.863 342.985 122.975C343.071 123.086 343.179 123.178 343.302 123.247C343.425 123.315 343.561 123.358 343.701 123.372C343.84 123.387 343.982 123.373 344.116 123.332C344.392 123.238 344.62 123.041 344.755 122.784C344.889 122.526 344.919 122.226 344.838 121.947Z" fill="#F28F8F"/>
<path d="M337.874 113.334L339.649 112.106C339.574 111.986 339.476 111.882 339.359 111.801C339.243 111.721 339.112 111.664 338.973 111.636C338.834 111.608 338.691 111.608 338.553 111.637C338.414 111.666 338.283 111.722 338.167 111.803C337.929 111.971 337.766 112.224 337.711 112.51C337.657 112.795 337.715 113.091 337.874 113.334Z" fill="#37474F"/>
<path d="M347.628 113.998L345.843 112.769C345.918 112.649 346.016 112.546 346.132 112.465C346.248 112.384 346.379 112.327 346.518 112.298C346.656 112.269 346.799 112.268 346.938 112.295C347.076 112.323 347.208 112.377 347.325 112.457C347.561 112.628 347.724 112.882 347.78 113.168C347.836 113.454 347.782 113.75 347.628 113.998Z" fill="#37474F"/>
<path d="M338.284 115.392C338.282 115.565 338.331 115.734 338.425 115.878C338.519 116.023 338.653 116.137 338.811 116.206C338.969 116.275 339.143 116.296 339.313 116.266C339.483 116.236 339.64 116.157 339.765 116.039C339.89 115.92 339.978 115.768 340.017 115.6C340.056 115.432 340.044 115.256 339.984 115.095C339.924 114.933 339.818 114.793 339.678 114.692C339.539 114.59 339.373 114.532 339.201 114.524C338.964 114.519 338.735 114.607 338.564 114.77C338.392 114.932 338.292 115.156 338.284 115.392Z" fill="#37474F"/>
<path d="M342.419 114.895L342.283 120.181L339.503 119.323L342.419 114.895Z" fill="#F28F8F"/>
<path d="M346.291 126.833C348.535 126.531 353.119 125.204 353.879 123.38C353.59 124.304 353.025 125.117 352.26 125.711C350.875 126.891 346.291 128.228 346.291 128.228V126.833Z" fill="#F28F8F"/>
<path d="M362.199 155.79L356.045 164.119L360.687 161.145L362.199 155.79Z" fill="#90CAF9"/>
<path d="M313.716 177.92C312.399 179.617 311.589 182.914 310.897 184.026C310.205 185.138 309.375 186.103 310.897 186.308C312.419 186.513 314.642 183.538 315.471 181.734C315.891 180.716 316.683 179.897 317.685 179.442C316.973 179.198 317.344 176.34 316.846 175.94C316.846 175.94 314.252 177.003 313.716 177.92Z" fill="#F28F8F"/>
<path d="M313.326 190.794C314.701 189.77 314.749 188.512 315.013 186.513C315.276 184.513 320.787 182.348 320.962 183.84C321.138 185.333 321.635 186.581 319.987 188.395C318.339 190.209 315.842 192.14 313.326 190.794Z" fill="#F28F8F"/>
<path d="M355.615 131.319C355.615 131.319 363.769 132.031 365.369 132.792C366.968 133.553 369.631 138.156 367.251 144.837C364.871 151.518 362.706 159.379 362.95 160.959C363.194 162.539 368.88 170.713 368.88 170.713C367.311 171.871 365.537 172.721 363.652 173.219L360.726 166.86L361.409 173.619C358.47 174.334 355.45 174.662 352.426 174.594C352.426 174.594 349.666 148.631 355.615 131.319Z" fill="#90CAF9"/>
<path d="M375.707 163.164C376.36 159.321 375.707 158.063 374.361 154.298L367.534 158.716C368.094 160.137 368.423 161.639 368.509 163.164C368.451 164.276 366.939 175.297 365.525 179.139C365.27 179.823 364.769 180.386 364.12 180.719C362.714 181.578 361.439 182.636 360.336 183.86C359.292 184.835 358.454 185.011 358.561 185.342C358.722 185.702 359.01 185.989 359.37 186.15C359.73 186.31 360.137 186.331 360.512 186.21C361.361 185.935 362.176 185.561 362.94 185.099C362.263 186.533 361.361 187.85 360.268 189C357.761 191.672 357.537 193.408 362.218 193.769C365.144 193.994 367.592 192.355 370.235 186.064C371.055 183.758 371.729 181.403 372.254 179.013C373.678 173.561 375.063 167.036 375.707 163.164Z" fill="#FFA8A7"/>
<path d="M365.369 132.792C368.655 134.265 369.592 137.171 370.811 141.443C372.03 145.715 375.853 158.531 375.853 158.531C375.853 158.531 372.576 162.432 368.051 161.34L362.199 147.129C362.199 147.129 359.468 137.854 365.369 132.792Z" fill="#90CAF9"/>
</svg>
