<svg width="400" height="391" viewBox="0 0 400 391" fill="none" xmlns="http://www.w3.org/2000/svg">
<path d="M58.5052 359.795C136.497 400.544 262.945 400.544 340.937 359.795C418.928 319.046 418.937 252.993 340.937 212.244C262.936 171.495 136.497 171.504 58.4959 212.244C-19.5048 252.984 -19.4955 319.037 58.5052 359.795Z" fill="#F5F5F5"/>
<path d="M157.052 324.408C178.071 334.426 212.141 334.426 233.114 324.408C254.087 314.39 254.133 298.157 233.114 288.139C212.095 278.121 178.034 278.121 157.052 288.139C136.07 298.157 135.996 314.399 157.052 324.408Z" fill="#EBEBEB"/>
<path d="M339.007 299.613L263.873 342.978C263.25 343.293 262.562 343.458 261.864 343.458C261.167 343.458 260.479 343.293 259.856 342.978L165.938 288.733C165.696 288.651 165.485 288.495 165.336 288.287C165.187 288.079 165.107 287.829 165.107 287.573C165.107 287.317 165.187 287.068 165.336 286.86C165.485 286.652 165.696 286.496 165.938 286.414L241.073 243.049C241.695 242.734 242.383 242.569 243.081 242.569C243.779 242.569 244.467 242.734 245.089 243.049L339.035 297.294C339.276 297.38 339.485 297.538 339.632 297.748C339.778 297.958 339.855 298.208 339.852 298.464C339.849 298.72 339.766 298.968 339.614 299.174C339.463 299.381 339.251 299.534 339.007 299.613Z" fill="#EBEBEB"/>
<path d="M359.915 61.2331V81.1484C359.915 81.1484 351.734 84.9793 336.725 84.9793C321.717 84.9793 313.536 81.1391 313.536 81.1391V61.6598L329.193 17.349C328.98 18.7403 329.796 20.1317 331.633 21.2263C332.977 22.0555 334.504 22.5409 336.079 22.6396C337.655 22.7383 339.231 22.4472 340.668 21.7921C341.071 21.6335 341.462 21.4443 341.836 21.2263C343.784 20.1039 344.619 18.5641 344.239 17.0985L359.915 61.2331Z" fill="#F5F5F5"/>
<path opacity="0.5" d="M359.915 61.2331V81.1484C359.915 81.1484 351.734 84.9793 336.725 84.9793C321.717 84.9793 313.536 81.1391 313.536 81.1391V61.6598L329.193 17.349C328.98 18.7403 329.796 20.1317 331.633 21.2263C332.977 22.0555 334.504 22.5409 336.079 22.6396C337.655 22.7383 339.231 22.4472 340.668 21.7921C341.071 21.6335 341.462 21.4443 341.836 21.2263C343.784 20.1039 344.619 18.5641 344.239 17.0985L359.915 61.2331Z" fill="white"/>
<path d="M358.116 200.835C356.771 202.606 355.067 204.073 353.116 205.139C344.044 210.38 329.342 210.38 320.279 205.139C318.325 204.074 316.618 202.607 315.27 200.835C314.224 199.443 313.605 197.777 313.489 196.039V206.382C313.656 209.684 315.91 212.958 320.279 215.481C329.342 220.713 344.044 220.713 353.116 215.481C357.643 212.866 359.915 209.434 359.915 206.001V195.668C359.881 197.538 359.25 199.348 358.116 200.835Z" fill="#F5F5F5"/>
<path d="M358.116 190.492C356.771 192.263 355.067 193.73 353.116 194.796C352.578 195.102 352.031 195.39 351.465 195.659C342.903 199.74 330.483 199.74 321.93 195.659C321.365 195.39 320.808 195.102 320.279 194.796C318.325 193.731 316.618 192.264 315.27 190.492C314.224 189.104 313.605 187.441 313.489 185.706V196.039C313.605 197.777 314.224 199.443 315.27 200.835C316.618 202.607 318.325 204.074 320.279 205.139C329.342 210.38 344.044 210.38 353.116 205.139C355.067 204.073 356.771 202.606 358.116 200.835C359.25 199.348 359.881 197.538 359.915 195.668V185.326C359.881 187.196 359.251 189.006 358.116 190.492Z" fill="#EBEBEB"/>
<path d="M358.116 180.15C356.77 181.922 355.066 183.391 353.116 184.463C352.578 184.769 352.031 185.047 351.465 185.326C342.903 189.407 330.483 189.407 321.93 185.326C321.365 185.047 320.808 184.769 320.279 184.463C318.326 183.391 316.62 181.922 315.27 180.15C314.224 178.761 313.605 177.098 313.489 175.363V185.706C313.605 187.44 314.224 189.104 315.27 190.492C316.618 192.264 318.325 193.731 320.279 194.796C320.808 195.102 321.365 195.39 321.93 195.659C330.483 199.74 342.903 199.74 351.465 195.659C352.031 195.39 352.578 195.102 353.116 194.796C355.067 193.73 356.771 192.263 358.116 190.492C359.251 189.006 359.881 187.195 359.915 185.326V174.983C359.883 176.853 359.252 178.664 358.116 180.15Z" fill="#F5F5F5"/>
<path d="M313.489 61.6226V175.363C313.605 177.098 314.224 178.761 315.27 180.15C316.62 181.922 318.326 183.391 320.279 184.463C320.808 184.769 321.365 185.047 321.93 185.325C324.173 186.371 326.534 187.14 328.962 187.617L324.76 67.7446L313.489 61.6226Z" fill="#F5F5F5"/>
<path d="M348.636 67.7447L344.424 187.617C346.852 187.14 349.213 186.371 351.455 185.326C352.021 185.047 352.569 184.769 353.107 184.463C355.057 183.391 356.76 181.922 358.106 180.15C359.243 178.664 359.873 176.853 359.906 174.983V61.233L348.636 67.7447Z" fill="#F5F5F5"/>
<path d="M313.489 61.6226V175.363C313.605 177.098 314.224 178.761 315.27 180.15C316.62 181.922 318.326 183.391 320.279 184.463C320.808 184.769 321.365 185.047 321.93 185.325C324.173 186.371 326.534 187.14 328.962 187.617L324.76 67.7446L313.489 61.6226Z" fill="#E0E0E0"/>
<path d="M348.636 67.7447L344.424 187.617C346.852 187.14 349.213 186.371 351.455 185.326C352.021 185.047 352.569 184.769 353.107 184.463C355.057 183.391 356.76 181.922 358.106 180.15C359.243 178.664 359.873 176.853 359.906 174.983V61.233L348.636 67.7447Z" fill="#E0E0E0"/>
<path d="M324.76 67.7447V186.476C326.134 186.951 327.537 187.335 328.961 187.626C331.508 188.14 334.1 188.398 336.698 188.396C339.295 188.394 341.886 188.136 344.434 187.626C345.858 187.335 347.262 186.951 348.636 186.476V67.7447H324.76Z" fill="#EBEBEB"/>
<path d="M341.799 21.1799C341.425 21.398 341.034 21.5871 340.631 21.7457C339.194 22.4009 337.618 22.692 336.042 22.5933C334.467 22.4946 332.939 22.0092 331.596 21.1799C329.741 20.1225 328.943 18.694 329.156 17.3026L334.499 2.34063C334.675 1.90311 334.979 1.529 335.371 1.26744C335.764 1.00588 336.226 0.869092 336.698 0.875042C337.17 0.868494 337.634 1.00492 338.028 1.26643C338.422 1.52795 338.728 1.90237 338.905 2.34063L344.192 17.0336C344.554 18.4992 343.747 20.0575 341.799 21.1799Z" fill="#E0E0E0"/>
<path d="M353.116 215.481C345.324 219.98 333.377 220.602 324.416 217.337C323.915 217.163 323.424 216.969 322.941 216.752L322.274 216.474C321.578 216.159 320.91 215.815 320.279 215.454C315.91 212.931 313.656 209.656 313.489 206.354V234.534C313.322 238.096 315.576 241.686 320.279 244.394C320.836 244.719 321.42 245.025 322.023 245.322C322.246 245.433 322.487 245.517 322.71 245.619C323.099 245.786 323.479 245.962 323.878 246.11C324.277 246.259 324.5 246.333 324.806 246.435C325.112 246.537 325.465 246.676 325.808 246.778C326.151 246.88 326.568 246.992 326.949 247.094C327.329 247.196 327.533 247.261 327.83 247.325C328.127 247.39 328.711 247.52 329.156 247.604C329.407 247.604 329.657 247.715 329.908 247.752C330.409 247.845 330.919 247.91 331.429 247.984L332.032 248.067C332.598 248.132 333.163 248.179 333.729 248.216H334.175C334.796 248.262 335.418 248.281 336.03 248.29H336.327C336.994 248.29 337.662 248.29 338.33 248.29H338.479C339.184 248.29 339.888 248.207 340.593 248.142C344.725 247.791 348.749 246.638 352.439 244.747C352.643 244.635 352.856 244.543 353.06 244.422C357.587 241.806 359.859 238.374 359.859 234.942V206.001C359.915 209.434 357.642 212.866 353.116 215.481Z" fill="#E0E0E0"/>
<path d="M73.0869 231.918C70.4062 231.241 56.0935 223.097 54.6372 222.104C53.1809 221.112 50.3054 219.062 50.3054 215.528C50.3054 212.402 50.63 182.923 53.1902 168.685C54.0312 164.255 55.7694 160.045 58.2977 156.312C60.8261 152.58 64.0912 149.403 67.8924 146.979C76.7972 141.46 85.7484 137.462 93.2897 140.597C100.831 143.733 107.714 149.493 110.682 156.45C113.65 163.407 115.682 177.339 115.895 182.728C116.108 188.118 115.895 206.595 115.895 208.237C115.895 209.879 115.598 212.012 106.758 217.513C97.9184 223.013 85.7113 229.571 81.936 231.269C79.128 232.41 76.0315 232.638 73.0869 231.918Z" fill="#37474F"/>
<path d="M70.8792 150.81C70.0629 151.274 67.7069 150.114 67.3544 149.53C67.0019 148.946 66.9091 143.89 68.6715 141.098C70.434 138.306 81.4259 133.158 84.1437 133.538C85.1616 133.704 86.135 134.076 87.0043 134.631C87.8736 135.186 88.6204 135.913 89.199 136.766C89.533 137.481 89.904 142.183 89.199 143.148C88.4941 144.113 85.9803 142.629 85.7577 142.221C85.5351 141.812 86.5832 138.371 84.8301 137.657C83.2161 137.008 75.5542 140.263 72.4375 142.879C71.0833 144.02 71.1482 146.849 71.2131 148.25C71.2781 149.651 71.2873 150.569 70.8792 150.81Z" fill="#455A64"/>
<path d="M68.6716 183.999C70.2485 168.685 73.0869 159.743 88.0674 153.073C103.048 146.404 108.864 152.081 110.988 157.192C113.771 164.353 115.691 177.525 115.895 182.728C116.108 188.118 115.895 206.595 115.895 208.237C115.895 209.879 115.598 212.012 106.758 217.513C97.9184 223.013 85.7113 229.571 81.9361 231.269C79.131 232.42 76.0344 232.657 73.0869 231.946C72.4949 231.766 71.918 231.54 71.3616 231.269C66.6958 225.277 67.2246 197.987 68.6716 183.999Z" fill="#455A64"/>
<path d="M103.595 147.09C99.6807 144.799 93.2618 143.287 83.8376 147.489C66.9926 154.994 62.7164 164.39 61.0189 180.882C60.7128 183.906 60.2583 187.505 60.0914 191.373L58.7 190.529C58.8948 186.355 59.3029 182.784 59.6276 179.556C61.4827 162.943 66.4639 153.76 82.5575 146.59C91.4716 142.62 97.3247 143.139 101.202 145.096C102.035 145.718 102.833 146.384 103.595 147.09Z" fill="#263238"/>
<path d="M104.18 147.517C100.274 145.226 93.8463 143.714 84.4313 147.916C67.5771 155.42 63.3009 164.817 61.6034 181.309C61.2973 184.333 60.8428 187.932 60.6758 191.8L59.2845 190.956C59.4792 186.782 59.8874 183.211 60.212 179.983C62.0672 163.37 67.0484 154.177 83.142 147.016C92.0561 143.046 98.0668 143.705 101.944 145.653C102.724 146.232 103.47 146.854 104.18 147.517Z" fill="#455A64"/>
<path d="M98.7254 162.08L93.633 159.168C93.3817 159.027 93.0849 158.99 92.807 159.067C92.5292 159.143 92.2927 159.326 92.1488 159.576L86.9265 168.657C86.781 168.907 86.7403 169.204 86.8133 169.484C86.8863 169.764 87.067 170.003 87.3161 170.15L92.3436 173.081C92.5935 173.227 92.8908 173.268 93.1707 173.195C93.4505 173.122 93.6901 172.941 93.837 172.692L99.1243 163.555C99.1968 163.433 99.244 163.297 99.2631 163.156C99.2823 163.015 99.273 162.871 99.2359 162.734C99.1987 162.596 99.1344 162.468 99.0467 162.355C98.959 162.243 98.8498 162.15 98.7254 162.08Z" fill="#263238"/>
<path d="M93.2619 172.043L98.2802 163.388C98.3163 163.326 98.3398 163.258 98.3491 163.187C98.3584 163.116 98.3534 163.043 98.3343 162.974C98.3153 162.905 98.2827 162.84 98.2383 162.784C98.194 162.728 98.1388 162.681 98.0761 162.646L93.4382 160.012C93.3125 159.941 93.1641 159.923 93.0252 159.961C92.8863 160 92.768 160.091 92.6961 160.216L87.7335 168.833C87.663 168.959 87.6449 169.107 87.6831 169.246C87.7213 169.385 87.8127 169.503 87.9376 169.575L92.492 172.237C92.5548 172.277 92.6251 172.304 92.6984 172.315C92.7718 172.327 92.8468 172.324 92.9188 172.305C92.9909 172.287 93.0584 172.255 93.1174 172.209C93.1764 172.164 93.2256 172.107 93.2619 172.043Z" fill="#455A64"/>
<path d="M94.3379 167.906C94.4716 167.825 94.5848 167.714 94.6685 167.582C94.7521 167.45 94.8041 167.3 94.8203 167.145V162.999C94.8203 162.73 94.6069 162.646 94.3379 162.795C94.2042 162.875 94.0911 162.986 94.0074 163.118C93.9237 163.25 93.8717 163.4 93.8556 163.555V167.701C93.8556 167.97 94.0689 168.054 94.3379 167.906Z" fill="#37474F"/>
<path d="M91.6479 169.464C91.7813 169.38 91.8941 169.268 91.9777 169.134C92.0612 169.001 92.1134 168.85 92.1302 168.694V164.557C92.1302 164.288 91.9076 164.195 91.6479 164.353C91.5132 164.433 91.3993 164.543 91.3155 164.675C91.2316 164.808 91.1803 164.958 91.1655 165.114V169.26C91.1934 169.52 91.3789 169.612 91.6479 169.464Z" fill="#37474F"/>
<path d="M75.61 196.948C75.61 196.948 78.133 199.026 79.9511 206.855C81.7691 214.684 82.8637 224.544 80.8787 225.731C78.8936 226.919 76.0274 224.433 75.3131 223.579C73.8476 221.826 74.2093 203.219 75.61 196.948Z" fill="#263238"/>
<path d="M75.6099 196.948C75.6099 196.948 78.1329 199.026 79.951 206.855C81.769 214.684 82.8636 224.544 80.8786 225.731L111.489 207.68C113.492 206.493 113.984 196.132 112.175 188.303C110.979 183.155 108.78 180.706 107.426 179.63C107.115 179.39 106.74 179.249 106.348 179.224C105.956 179.199 105.566 179.292 105.228 179.491L75.6099 196.948Z" fill="#37474F"/>
<path d="M106.795 180.827C108.261 181.55 110.747 183.545 111.869 188.841C112.058 189.562 112.041 190.322 111.82 191.033C111.599 191.745 111.182 192.38 110.617 192.867C109.597 193.59 87.6871 206.048 84.7837 207.782C82.2792 209.276 80.9806 207.291 80.4333 206.048C79.5058 203.84 78.708 202.124 78.0216 200.807C77.4975 199.371 76.6792 198.059 75.6192 196.957L104.81 180.91C105.109 180.735 105.446 180.635 105.792 180.621C106.139 180.606 106.483 180.677 106.795 180.827Z" fill="#263238"/>
<path d="M61.0375 192.663C61.4615 194.257 61.7378 195.887 61.8631 197.533C61.8631 197.867 61.4086 198.043 61.2787 198.043C60.2179 197.829 59.2361 197.329 58.4403 196.596C58.589 195.193 58.8433 193.804 59.2009 192.44L61.0375 192.663Z" fill="#263238"/>
<path d="M61.9837 191.355C61.9837 191.005 61.8798 190.662 61.6851 190.371C61.4904 190.079 61.2137 189.852 60.89 189.718C60.5663 189.584 60.21 189.549 59.8664 189.617C59.5227 189.686 59.207 189.854 58.9592 190.102C58.7115 190.35 58.5427 190.666 58.4744 191.009C58.406 191.353 58.4411 191.709 58.5752 192.033C58.7093 192.357 58.9364 192.633 59.2277 192.828C59.5191 193.023 59.8616 193.127 60.212 193.127C60.6819 193.127 61.1325 192.94 61.4648 192.608C61.797 192.275 61.9837 191.825 61.9837 191.355Z" fill="#263238"/>
<path d="M84.1437 137.573C86.0823 137.388 87.9097 137.573 88.3735 139.512C88.8373 141.451 88.6703 143.222 88.3735 143.464C87.3912 143.339 86.4746 142.904 85.7577 142.221C85.5351 141.803 86.5832 138.371 84.8301 137.657C84.6151 137.585 84.3882 137.557 84.1622 137.573H84.1437Z" fill="#263238"/>
<path d="M105.413 179.389C105.713 179.212 106.052 179.112 106.4 179.097C106.748 179.083 107.094 179.154 107.408 179.305C108.873 180.029 111.359 182.023 112.481 187.32C112.67 188.041 112.652 188.8 112.431 189.512C112.209 190.223 111.793 190.858 111.229 191.346C110.209 192.069 88.3085 204.527 85.4052 206.261C82.9007 207.755 81.5928 205.77 81.0455 204.527C78.0123 198.182 75.6099 196.948 75.6099 196.948L105.413 179.389Z" fill="#37474F"/>
<path d="M100.163 287.304L75.6006 273.131C74.9592 272.711 74.4253 272.147 74.0419 271.483C73.6585 270.819 73.4362 270.075 73.3929 269.309V269.588C73.4347 268.822 73.6564 268.077 74.04 267.413C74.4235 266.749 74.9582 266.185 75.6006 265.766L124.995 237.252C125.677 236.904 126.432 236.723 127.198 236.723C127.963 236.723 128.718 236.904 129.401 237.252L153.963 251.435C154.606 251.85 155.142 252.413 155.526 253.075C155.909 253.738 156.13 254.482 156.171 255.247V254.969C156.13 255.734 155.91 256.478 155.528 257.142C155.146 257.806 154.613 258.371 153.972 258.79L104.578 287.304C103.894 287.652 103.138 287.834 102.371 287.834C101.603 287.834 100.847 287.652 100.163 287.304Z" fill="#90CAF9"/>
<path opacity="0.7" d="M100.163 287.304L75.6006 273.131C74.9592 272.711 74.4253 272.147 74.0419 271.483C73.6585 270.819 73.4362 270.075 73.3929 269.309V269.588C73.4347 268.822 73.6564 268.077 74.04 267.413C74.4235 266.749 74.9582 266.185 75.6006 265.766L124.995 237.252C125.677 236.904 126.432 236.723 127.198 236.723C127.963 236.723 128.718 236.904 129.401 237.252L153.963 251.435C154.606 251.85 155.142 252.413 155.526 253.075C155.909 253.738 156.13 254.482 156.171 255.247V254.969C156.13 255.734 155.91 256.478 155.528 257.142C155.146 257.806 154.613 258.371 153.972 258.79L104.578 287.304C103.894 287.652 103.138 287.834 102.371 287.834C101.603 287.834 100.847 287.652 100.163 287.304Z" fill="black"/>
<path d="M102.324 250.312L75.5635 265.766C74.9211 266.185 74.3864 266.749 74.0028 267.413C73.6193 268.077 73.3976 268.822 73.3558 269.588V269.309C73.3991 270.075 73.6214 270.819 74.0048 271.483C74.3882 272.147 74.9221 272.711 75.5635 273.131L100.126 287.304C100.805 287.666 101.565 287.848 102.334 287.833L102.324 250.312Z" fill="#90CAF9"/>
<path opacity="0.7" d="M102.324 250.312L75.5635 265.766C74.9211 266.185 74.3864 266.749 74.0028 267.413C73.6193 268.077 73.3976 268.822 73.3558 269.588V269.309C73.3991 270.075 73.6214 270.819 74.0048 271.483C74.3882 272.147 74.9221 272.711 75.5635 273.131L100.126 287.304C100.805 287.666 101.565 287.848 102.334 287.833L102.324 250.312Z" fill="black"/>
<path d="M75.5914 268.317L100.145 282.5C100.83 282.842 101.586 283.021 102.352 283.021C103.119 283.021 103.875 282.842 104.56 282.5L153.954 253.976C155.178 253.271 155.178 252.121 153.954 251.435L129.391 237.252C128.709 236.904 127.954 236.723 127.188 236.723C126.423 236.723 125.668 236.904 124.985 237.252L75.5914 265.766C74.367 266.471 74.367 267.612 75.5914 268.317Z" fill="#90CAF9"/>
<path opacity="0.5" d="M75.5914 268.317L100.145 282.5C100.83 282.842 101.586 283.021 102.352 283.021C103.119 283.021 103.875 282.842 104.56 282.5L153.954 253.976C155.178 253.271 155.178 252.121 153.954 251.435L129.391 237.252C128.709 236.904 127.954 236.723 127.188 236.723C126.423 236.723 125.668 236.904 124.985 237.252L75.5914 265.766C74.367 266.471 74.367 267.612 75.5914 268.317Z" fill="black"/>
<path d="M75.5914 263.651V266.007L101.081 280.728C101.47 280.951 101.909 281.068 102.357 281.068C102.804 281.068 103.244 280.951 103.632 280.728L153.954 251.667V249.236L102.352 274.281L75.5914 263.651Z" fill="#90CAF9"/>
<path d="M100.154 277.834L75.5914 263.651C74.9479 263.233 74.4125 262.669 74.0288 262.005C73.6451 261.341 73.424 260.595 73.3837 259.829V255.293C73.424 254.527 73.6451 253.782 74.0288 253.118C74.4125 252.453 74.9479 251.889 75.5914 251.472L124.985 222.949C125.668 222.601 126.423 222.419 127.188 222.419C127.954 222.419 128.709 222.601 129.391 222.949L153.954 237.131C154.597 237.549 155.133 238.113 155.516 238.777C155.9 239.441 156.121 240.187 156.162 240.953V245.498C156.115 246.248 155.891 246.975 155.507 247.62C155.123 248.266 154.59 248.81 153.954 249.208L104.56 277.806C103.88 278.158 103.126 278.344 102.36 278.349C101.594 278.354 100.838 278.177 100.154 277.834Z" fill="#90CAF9"/>
<path opacity="0.6" d="M100.154 277.834L75.5914 263.651C74.9479 263.233 74.4125 262.669 74.0288 262.005C73.6451 261.341 73.424 260.595 73.3837 259.829V255.293C73.424 254.527 73.6451 253.782 74.0288 253.118C74.4125 252.453 74.9479 251.889 75.5914 251.472L124.985 222.949C125.668 222.601 126.423 222.419 127.188 222.419C127.954 222.419 128.709 222.601 129.391 222.949L153.954 237.131C154.597 237.549 155.133 238.113 155.516 238.777C155.9 239.441 156.121 240.187 156.162 240.953V245.498C156.115 246.248 155.891 246.975 155.507 247.62C155.123 248.266 154.59 248.81 153.954 249.208L104.56 277.806C103.88 278.158 103.126 278.344 102.36 278.349C101.594 278.354 100.838 278.177 100.154 277.834Z" fill="black"/>
<path d="M102.324 236.018L75.5635 251.472C74.9201 251.889 74.3846 252.453 74.0009 253.118C73.6172 253.782 73.3961 254.527 73.3558 255.293V259.829C73.3961 260.595 73.6172 261.341 74.0009 262.005C74.3846 262.669 74.9201 263.233 75.5635 263.651L100.126 277.834C100.801 278.196 101.558 278.378 102.324 278.363V236.018Z" fill="#90CAF9"/>
<path opacity="0.7" d="M102.324 236.018L75.5635 251.472C74.9201 251.889 74.3846 252.453 74.0009 253.118C73.6172 253.782 73.3961 254.527 73.3558 255.293V259.829C73.3961 260.595 73.6172 261.341 74.0009 262.005C74.3846 262.669 74.9201 263.233 75.5635 263.651L100.126 277.834C100.801 278.196 101.558 278.378 102.324 278.363V236.018Z" fill="black"/>
<path d="M75.5914 254.013L100.145 268.196C100.829 268.544 101.585 268.725 102.352 268.725C103.12 268.725 103.876 268.544 104.56 268.196L153.954 239.682C155.178 238.977 155.178 237.827 153.954 237.131L129.391 222.949C128.709 222.601 127.954 222.419 127.188 222.419C126.423 222.419 125.668 222.601 124.985 222.949L75.5914 251.472C74.367 252.177 74.367 253.318 75.5914 254.013Z" fill="#90CAF9"/>
<path opacity="0.5" d="M75.5914 254.013L100.145 268.196C100.829 268.544 101.585 268.725 102.352 268.725C103.12 268.725 103.876 268.544 104.56 268.196L153.954 239.682C155.178 238.977 155.178 237.827 153.954 237.131L129.391 222.949C128.709 222.601 127.954 222.419 127.188 222.419C126.423 222.419 125.668 222.601 124.985 222.949L75.5914 251.472C74.367 252.177 74.367 253.318 75.5914 254.013Z" fill="black"/>
<path d="M109.847 242.743C107.129 244.32 107.129 246.852 109.847 248.411C111.375 249.179 113.062 249.579 114.773 249.579C116.483 249.579 118.17 249.179 119.698 248.411C122.416 246.852 122.416 244.32 119.698 242.743C118.171 241.97 116.484 241.568 114.773 241.568C113.061 241.568 111.374 241.97 109.847 242.743Z" fill="#90CAF9"/>
<path d="M149.956 244.404C149.704 244.568 149.494 244.79 149.344 245.052C149.195 245.313 149.108 245.606 149.093 245.906C149.093 246.463 149.483 246.695 149.956 246.426C150.208 246.261 150.417 246.039 150.567 245.778C150.717 245.517 150.803 245.224 150.819 244.923C150.819 244.367 150.429 244.135 149.956 244.404Z" fill="#90CAF9"/>
<path d="M149.956 247.734C149.704 247.899 149.494 248.121 149.344 248.382C149.195 248.643 149.108 248.936 149.093 249.236C149.093 249.793 149.483 250.025 149.956 249.756C150.211 249.595 150.423 249.373 150.573 249.111C150.724 248.85 150.808 248.555 150.819 248.253C150.819 247.697 150.429 247.465 149.956 247.734Z" fill="#90CAF9"/>
<path d="M89.8669 306.051C89.7534 306.051 89.6417 306.022 89.5422 305.967L65.7403 292.137C65.1241 291.78 64.6125 291.267 64.2569 290.65C63.9012 290.033 63.7141 289.334 63.7141 288.622C63.7141 287.909 63.9012 287.21 64.2569 286.593C64.6125 285.976 65.1241 285.463 65.7403 285.106L83.1882 275.032C83.3363 274.957 83.5075 274.942 83.6667 274.989C83.8259 275.036 83.961 275.143 84.0441 275.286C84.1272 275.43 84.1522 275.6 84.1137 275.762C84.0753 275.923 83.9765 276.064 83.8375 276.155L66.3989 286.201C65.9837 286.447 65.6397 286.797 65.4008 287.217C65.1618 287.636 65.0362 288.111 65.0362 288.594C65.0362 289.077 65.1618 289.551 65.4008 289.971C65.6397 290.39 65.9837 290.741 66.3989 290.987L90.2008 304.799C90.2808 304.841 90.351 304.899 90.4069 304.97C90.4627 305.041 90.5029 305.123 90.5248 305.21C90.5467 305.298 90.5498 305.389 90.534 305.478C90.5181 305.567 90.4836 305.652 90.4327 305.726C90.3769 305.827 90.2947 305.91 90.195 305.967C90.0953 306.025 89.9818 306.054 89.8669 306.051Z" fill="#90CAF9"/>
<path d="M119.68 292.694L114.522 271.99C114.449 271.705 114.352 271.425 114.235 271.155L115.737 270.942L112.463 269.087C111.776 268.713 111 268.534 110.219 268.569C109.438 268.603 108.681 268.849 108.029 269.281L86.5555 281.711C85.0812 282.677 83.8551 283.976 82.9768 285.504C82.0985 287.032 81.5926 288.745 81.5001 290.505V315.401C81.5001 317.386 81.9825 318.75 82.975 319.223L86.0546 321.004L85.3125 319.037L85.4795 318.972C89.0136 317.284 90.2936 314.205 91.3511 311.153L95.4417 299.326C96.4992 296.274 99.1521 292.777 101.323 291.506C103.493 290.236 106.591 291.506 108.187 294.289L110.246 297.888C110.875 299.031 111.822 299.965 112.973 300.578L116.108 302.433L115.311 301.19C115.963 301.192 116.603 301.019 117.166 300.69C119.309 299.41 120.459 295.848 119.68 292.694Z" fill="#90CAF9"/>
<path opacity="0.7" d="M119.68 292.694L114.522 271.99C114.449 271.705 114.352 271.425 114.235 271.155L115.737 270.942L112.463 269.087C111.776 268.713 111 268.534 110.219 268.569C109.438 268.603 108.681 268.849 108.029 269.281L86.5555 281.711C85.0812 282.677 83.8551 283.976 82.9768 285.504C82.0985 287.032 81.5926 288.745 81.5001 290.505V315.401C81.5001 317.386 81.9825 318.75 82.975 319.223L86.0546 321.004L85.3125 319.037L85.4795 318.972C89.0136 317.284 90.2936 314.205 91.3511 311.153L95.4417 299.326C96.4992 296.274 99.1521 292.777 101.323 291.506C103.493 290.236 106.591 291.506 108.187 294.289L110.246 297.888C110.875 299.031 111.822 299.965 112.973 300.578L116.108 302.433L115.311 301.19C115.963 301.192 116.603 301.019 117.166 300.69C119.309 299.41 120.459 295.848 119.68 292.694Z" fill="black"/>
<path d="M114.235 271.155L115.737 270.942L112.463 269.087C111.776 268.713 111 268.534 110.219 268.569C109.438 268.603 108.681 268.849 108.029 269.281L86.5554 281.711C85.356 282.459 84.3311 283.455 83.55 284.633L88.6611 287.75L114.8 272.983L114.55 271.99C114.467 271.704 114.362 271.425 114.235 271.155Z" fill="#90CAF9"/>
<path opacity="0.5" d="M114.235 271.155L115.737 270.942L112.463 269.087C111.776 268.713 111 268.534 110.219 268.569C109.438 268.603 108.681 268.849 108.029 269.281L86.5554 281.711C85.356 282.459 84.3311 283.455 83.55 284.633L88.6611 287.75L114.8 272.983L114.55 271.99C114.467 271.704 114.362 271.425 114.235 271.155Z" fill="black"/>
<path d="M120.44 302.619C118.242 303.89 115.153 302.619 113.548 299.836L111.498 296.237C109.893 293.454 106.86 292.184 104.625 293.454C102.389 294.725 99.8014 298.213 98.7439 301.274L94.6625 313.091C93.6051 316.143 92.3157 319.223 88.7816 320.911C86.1102 322.191 84.8208 320.577 84.8208 317.349V292.434C84.9165 290.675 85.4248 288.963 86.3046 287.437C87.1845 285.911 88.4112 284.614 89.8855 283.65L111.396 271.174C111.976 270.768 112.649 270.517 113.353 270.444C114.056 270.371 114.767 270.479 115.417 270.758C116.068 271.037 116.636 271.477 117.068 272.036C117.501 272.596 117.784 273.257 117.889 273.957L123.047 294.67C123.807 297.768 122.648 301.348 120.44 302.619Z" fill="#90CAF9"/>
<path opacity="0.6" d="M120.44 302.619C118.242 303.89 115.153 302.619 113.548 299.836L111.498 296.237C109.893 293.454 106.86 292.184 104.625 293.454C102.389 294.725 99.8014 298.213 98.7439 301.274L94.6625 313.091C93.6051 316.143 92.3157 319.223 88.7816 320.911C86.1102 322.191 84.8208 320.577 84.8208 317.349V292.434C84.9165 290.675 85.4248 288.963 86.3046 287.437C87.1845 285.911 88.4112 284.614 89.8855 283.65L111.396 271.174C111.976 270.768 112.649 270.517 113.353 270.444C114.056 270.371 114.767 270.479 115.417 270.758C116.068 271.037 116.636 271.477 117.068 272.036C117.501 272.596 117.784 273.257 117.889 273.957L123.047 294.67C123.807 297.768 122.648 301.348 120.44 302.619Z" fill="black"/>
<path d="M112.101 278.344L112.639 281.396L115.023 279.875L115.552 282.926L113.177 284.457L113.715 287.509L111.341 289.03L110.803 285.978L108.428 287.509L107.89 284.447L110.265 282.926L109.727 279.875L112.101 278.344Z" fill="#263238"/>
<path d="M112.788 278.706L113.326 281.757L115.7 280.236L116.238 283.288L113.864 284.818L114.402 287.87L112.027 289.392L111.489 286.34L109.114 287.861L108.576 284.809L110.951 283.288L110.413 280.236L112.788 278.706Z" fill="#90CAF9"/>
<path d="M94.1059 289.15C94.1694 289.58 94.1169 290.019 93.9538 290.422C93.7907 290.825 93.523 291.177 93.1783 291.442C92.5197 291.859 91.8704 291.516 91.722 290.672C91.6556 290.242 91.7067 289.802 91.87 289.398C92.0333 288.995 92.3027 288.643 92.6496 288.381C93.2989 287.963 93.9761 288.306 94.1059 289.15Z" fill="#263238"/>
<path d="M95.182 295.254C95.2485 295.684 95.1974 296.124 95.0341 296.527C94.8708 296.931 94.6014 297.282 94.2544 297.545C93.5959 297.962 92.9465 297.619 92.7981 296.784C92.7306 296.354 92.7813 295.914 92.9447 295.51C93.108 295.107 93.378 294.755 93.7257 294.493C94.375 294.067 95.0336 294.41 95.182 295.254Z" fill="#263238"/>
<path d="M97.0186 290.672C97.0861 291.102 97.0355 291.542 96.8721 291.946C96.7087 292.349 96.4388 292.701 96.0911 292.963C95.4325 293.389 94.7832 293.046 94.6348 292.202C94.5673 291.772 94.6179 291.332 94.7813 290.928C94.9447 290.525 95.2146 290.173 95.5623 289.911C96.2209 289.494 96.8702 289.828 97.0186 290.672Z" fill="#263238"/>
<path d="M92.2693 293.723C92.3368 294.154 92.2861 294.594 92.1228 294.997C91.9594 295.401 91.6894 295.753 91.3417 296.015C90.6831 296.441 90.0338 296.098 89.8854 295.254C89.8189 294.824 89.87 294.384 90.0334 293.98C90.1967 293.577 90.466 293.225 90.813 292.963C91.4716 292.545 92.1209 292.879 92.2693 293.723Z" fill="#263238"/>
<path d="M94.1523 289.178C94.2188 289.608 94.1677 290.048 94.0044 290.452C93.8411 290.855 93.5717 291.207 93.2247 291.469C92.5662 291.887 91.9168 291.553 91.7684 290.709C91.7009 290.279 91.7516 289.838 91.915 289.435C92.0783 289.031 92.3483 288.68 92.696 288.418C93.3546 287.991 93.9761 288.334 94.1523 289.178Z" fill="#263238"/>
<path d="M95.2284 295.282C95.2959 295.712 95.2452 296.152 95.0818 296.556C94.9185 296.959 94.6485 297.311 94.3008 297.573C93.6422 297.999 92.9929 297.656 92.8445 296.812C92.777 296.382 92.8276 295.942 92.991 295.538C93.1544 295.135 93.4244 294.783 93.7721 294.521C94.4306 294.104 95.08 294.438 95.2284 295.282Z" fill="#263238"/>
<path d="M97.065 290.709C97.1307 291.137 97.0792 291.576 96.9159 291.978C96.7526 292.379 96.4836 292.729 96.1374 292.991C95.4881 293.417 94.8295 293.074 94.6811 292.23C94.6166 291.8 94.6687 291.361 94.8319 290.958C94.995 290.555 95.2633 290.203 95.6087 289.939C96.2673 289.522 96.9166 289.865 97.065 290.709Z" fill="#263238"/>
<path d="M92.3157 293.76C92.3822 294.191 92.3311 294.631 92.1678 295.034C92.0045 295.437 91.7351 295.789 91.3881 296.052C90.7388 296.469 90.0802 296.126 89.9318 295.282C89.8684 294.852 89.9209 294.413 90.084 294.01C90.247 293.607 90.5147 293.255 90.8594 292.991C91.518 292.573 92.1673 292.916 92.3157 293.76Z" fill="#263238"/>
<path d="M94.1987 289.206C94.2662 289.636 94.2156 290.076 94.0522 290.48C93.8888 290.884 93.6188 291.235 93.2711 291.497C92.6218 291.924 91.9632 291.581 91.8148 290.736C91.7504 290.307 91.8024 289.867 91.9656 289.464C92.1287 289.061 92.397 288.709 92.7424 288.445C93.401 288.028 94.0503 288.362 94.1987 289.206Z" fill="#263238"/>
<path d="M95.2747 295.319C95.3404 295.747 95.2889 296.186 95.1256 296.588C94.9623 296.989 94.6933 297.339 94.3471 297.601C93.6978 298.027 93.0392 297.684 92.8908 296.84C92.8264 296.41 92.8784 295.971 93.0416 295.568C93.2047 295.165 93.473 294.813 93.8184 294.549C94.477 294.132 95.1263 294.475 95.2747 295.319Z" fill="#263238"/>
<path d="M97.1207 290.737C97.1851 291.167 97.1331 291.606 96.9699 292.009C96.8068 292.412 96.5385 292.764 96.1931 293.028C95.5345 293.445 94.8852 293.102 94.7368 292.267C94.6693 291.837 94.7199 291.397 94.8833 290.993C95.0467 290.59 95.3167 290.238 95.6644 289.976C96.3137 289.549 96.9723 289.893 97.1207 290.737Z" fill="#263238"/>
<path d="M92.3714 293.788C92.4358 294.218 92.3838 294.657 92.2206 295.06C92.0575 295.463 91.7892 295.815 91.4438 296.079C90.7852 296.497 90.1359 296.163 89.9875 295.319C89.92 294.889 89.9706 294.448 90.134 294.045C90.2974 293.641 90.5674 293.29 90.9151 293.028C91.5644 292.601 92.223 292.944 92.3714 293.788Z" fill="#263238"/>
<path d="M94.2543 289.243C94.3188 289.673 94.2667 290.112 94.1036 290.515C93.9404 290.918 93.6722 291.27 93.3268 291.534C92.6682 291.952 92.0189 291.609 91.8704 290.764C91.8047 290.336 91.8562 289.897 92.0195 289.496C92.1829 289.094 92.4519 288.744 92.798 288.483C93.4473 288.056 94.1059 288.427 94.2543 289.243Z" fill="#263238"/>
<path d="M95.3303 295.347C95.3948 295.777 95.3427 296.216 95.1796 296.619C95.0164 297.022 94.7482 297.374 94.4028 297.638C93.7442 298.055 93.0948 297.721 92.9464 296.877C92.8789 296.447 92.9296 296.007 93.093 295.603C93.2564 295.2 93.5263 294.848 93.874 294.586C94.5233 294.159 95.1819 294.503 95.3303 295.347Z" fill="#263238"/>
<path d="M97.167 290.764C97.2345 291.194 97.1838 291.635 97.0205 292.038C96.8571 292.442 96.5871 292.793 96.2394 293.055C95.5808 293.482 94.9315 293.139 94.7831 292.295C94.7166 291.865 94.7678 291.425 94.9311 291.021C95.0944 290.618 95.3637 290.266 95.7107 290.004C96.3693 289.586 97.0186 289.92 97.167 290.764Z" fill="#263238"/>
<path d="M92.4177 293.816C92.4852 294.246 92.4346 294.687 92.2712 295.09C92.1078 295.494 91.8378 295.845 91.4901 296.107C90.8316 296.534 90.1822 296.191 90.0338 295.347C89.9674 294.917 90.0185 294.477 90.1818 294.073C90.3451 293.67 90.6145 293.318 90.9614 293.055C91.62 292.638 92.2693 292.972 92.4177 293.816Z" fill="#263238"/>
<path d="M94.3008 289.271C94.3672 289.701 94.3161 290.141 94.1528 290.544C93.9895 290.948 93.7201 291.299 93.3732 291.562C92.7146 291.98 92.0653 291.646 91.9169 290.801C91.8494 290.371 91.9 289.931 92.0634 289.527C92.2268 289.124 92.4967 288.772 92.8445 288.51C93.503 288.084 94.1524 288.427 94.3008 289.271Z" fill="#263238"/>
<path d="M95.3768 295.374C95.4443 295.805 95.3936 296.245 95.2302 296.648C95.0668 297.052 94.7969 297.404 94.4492 297.666C93.7906 298.092 93.1413 297.749 92.9929 296.905C92.9264 296.475 92.9775 296.035 93.1408 295.631C93.3041 295.228 93.5735 294.876 93.9205 294.614C94.579 294.196 95.2283 294.53 95.3768 295.374Z" fill="#263238"/>
<path d="M97.2134 290.801C97.2789 291.231 97.2273 291.671 97.064 292.074C96.9008 292.478 96.632 292.829 96.2858 293.093C95.6272 293.51 94.9779 293.167 94.8295 292.323C94.763 291.893 94.8142 291.453 94.9775 291.049C95.1408 290.646 95.4102 290.294 95.7571 290.032C96.4157 289.614 97.065 289.957 97.2134 290.801Z" fill="#263238"/>
<path d="M92.4641 293.853C92.5306 294.283 92.4795 294.723 92.3162 295.127C92.1529 295.53 91.8835 295.882 91.5365 296.144C90.8872 296.562 90.2287 296.219 90.0802 295.375C90.0165 294.946 90.069 294.508 90.2321 294.107C90.3953 293.706 90.6632 293.355 91.0078 293.093C91.6664 292.666 92.3157 293.009 92.4641 293.853Z" fill="#263238"/>
<path d="M94.3472 289.299C94.4147 289.729 94.3641 290.169 94.2007 290.573C94.0373 290.976 93.7673 291.328 93.4196 291.59C92.7703 292.017 92.1117 291.673 91.9633 290.829C91.8989 290.399 91.9509 289.96 92.1141 289.557C92.2772 289.154 92.5455 288.802 92.8909 288.538C93.5495 288.121 94.1988 288.427 94.3472 289.299Z" fill="#263238"/>
<path d="M95.4232 295.412C95.4886 295.842 95.437 296.281 95.2738 296.684C95.1106 297.088 94.8417 297.439 94.4956 297.703C93.8463 298.12 93.1877 297.777 93.0393 296.933C92.9748 296.503 93.0269 296.064 93.19 295.661C93.3532 295.258 93.6215 294.906 93.9669 294.642C94.6255 294.224 95.2748 294.567 95.4232 295.412Z" fill="#263238"/>
<path d="M97.2597 290.829C97.3262 291.259 97.2751 291.699 97.1118 292.103C96.9485 292.506 96.6791 292.858 96.3321 293.12C95.6828 293.538 95.0243 293.204 94.8758 292.36C94.8104 291.93 94.862 291.49 95.0252 291.087C95.1884 290.684 95.4573 290.332 95.8034 290.069C96.462 289.642 97.1113 289.985 97.2597 290.829Z" fill="#263238"/>
<path d="M92.5198 293.881C92.5843 294.311 92.5322 294.75 92.3691 295.153C92.2059 295.556 91.9376 295.908 91.5922 296.172C90.9336 296.59 90.2843 296.256 90.1359 295.412C90.0684 294.981 90.1191 294.541 90.2825 294.137C90.4458 293.734 90.7158 293.382 91.0635 293.12C91.7128 292.694 92.3714 293.065 92.5198 293.881Z" fill="#263238"/>
<path d="M94.4028 289.354C94.4673 289.784 94.4152 290.224 94.2521 290.627C94.0889 291.03 93.8207 291.382 93.4753 291.646C92.8167 292.063 92.1674 291.72 92.0189 290.885C91.9515 290.455 92.0021 290.014 92.1655 289.611C92.3289 289.207 92.5988 288.856 92.9465 288.594C93.5958 288.149 94.2544 288.492 94.4028 289.354Z" fill="#263238"/>
<path d="M95.4788 295.439C95.5432 295.869 95.4912 296.309 95.328 296.712C95.1649 297.115 94.8966 297.467 94.5512 297.731C93.8926 298.148 93.2433 297.814 93.0949 296.97C93.0274 296.54 93.0781 296.099 93.2414 295.696C93.4048 295.292 93.6748 294.941 94.0225 294.679C94.6718 294.252 95.3304 294.595 95.4788 295.439Z" fill="#263238"/>
<path d="M97.3154 290.857C97.3809 291.287 97.3293 291.727 97.1661 292.13C97.0028 292.533 96.734 292.885 96.3878 293.148C95.7293 293.575 95.0799 293.232 94.9315 292.388C94.8651 291.958 94.9162 291.518 95.0795 291.114C95.2428 290.711 95.5122 290.359 95.8591 290.096C96.5084 289.679 97.167 290.013 97.3154 290.857Z" fill="#263238"/>
<path d="M92.5662 293.909C92.6337 294.339 92.583 294.779 92.4197 295.183C92.2563 295.586 91.9863 295.938 91.6386 296.2C90.98 296.627 90.3307 296.283 90.1823 295.439C90.1158 295.009 90.1669 294.569 90.3302 294.166C90.4935 293.763 90.763 293.411 91.1099 293.148C91.7685 292.731 92.4178 293.065 92.5662 293.909Z" fill="#263238"/>
<path d="M94.4492 289.354C94.5167 289.785 94.466 290.225 94.3026 290.628C94.1392 291.032 93.8693 291.384 93.5216 291.646C92.863 292.072 92.2137 291.729 92.0653 290.885C91.9978 290.455 92.0484 290.014 92.2118 289.611C92.3752 289.207 92.6452 288.856 92.9929 288.594C93.6514 288.176 94.3007 288.52 94.4492 289.354Z" fill="#263238"/>
<path d="M95.5251 295.467C95.5926 295.897 95.542 296.338 95.3786 296.741C95.2152 297.145 94.9453 297.496 94.5976 297.758C93.939 298.185 93.2897 297.842 93.1412 296.998C93.0748 296.568 93.1259 296.128 93.2892 295.724C93.4525 295.321 93.7219 294.969 94.0688 294.707C94.7274 294.289 95.3767 294.623 95.5251 295.467Z" fill="#263238"/>
<path d="M97.3618 290.894C97.4283 291.324 97.3772 291.764 97.2139 292.168C97.0506 292.571 96.7812 292.923 96.4342 293.185C95.7756 293.603 95.1263 293.26 94.9779 292.415C94.9122 291.987 94.9637 291.548 95.127 291.147C95.2903 290.745 95.5593 290.395 95.9055 290.134C96.5641 289.707 97.2134 290.05 97.3618 290.894Z" fill="#263238"/>
<path d="M92.6126 293.992C92.679 294.422 92.6279 294.862 92.4646 295.266C92.3013 295.669 92.0319 296.021 91.685 296.284C91.0357 296.701 90.3771 296.358 90.2287 295.523C90.1612 295.093 90.2118 294.652 90.3752 294.249C90.5386 293.845 90.8085 293.494 91.1562 293.232C91.8148 292.759 92.4641 293.065 92.6126 293.992Z" fill="#263238"/>
<path d="M94.4956 289.401C94.5613 289.829 94.5098 290.268 94.3465 290.67C94.1832 291.071 93.9141 291.422 93.568 291.683C92.9094 292.109 92.2601 291.766 92.1117 290.922C92.0452 290.492 92.0963 290.052 92.2596 289.649C92.4229 289.245 92.6923 288.894 93.0393 288.631C93.6979 288.214 94.3472 288.557 94.4956 289.401Z" fill="#263238"/>
<path d="M95.5715 295.504C95.638 295.934 95.5869 296.374 95.4236 296.778C95.2603 297.181 94.9909 297.533 94.644 297.795C93.9946 298.213 93.3361 297.87 93.1876 297.026C93.1219 296.597 93.1734 296.158 93.3367 295.757C93.5001 295.355 93.7691 295.005 94.1152 294.744C94.7738 294.317 95.4231 294.66 95.5715 295.504Z" fill="#263238"/>
<path d="M97.4082 290.922C97.4747 291.352 97.4236 291.792 97.2603 292.196C97.097 292.599 96.8276 292.951 96.4806 293.213C95.8313 293.631 95.1728 293.297 95.0243 292.453C94.9589 292.023 95.0105 291.583 95.1737 291.18C95.3369 290.777 95.6058 290.425 95.9519 290.161C96.6105 289.735 97.2598 290.078 97.4082 290.922Z" fill="#263238"/>
<path d="M92.6589 293.992C92.7264 294.422 92.6758 294.863 92.5124 295.266C92.349 295.67 92.0791 296.021 91.7314 296.283C91.082 296.71 90.4327 296.367 90.275 295.523C90.2096 295.093 90.2612 294.653 90.4244 294.25C90.5876 293.847 90.8565 293.495 91.2026 293.232C91.8612 292.786 92.5105 293.13 92.6589 293.992Z" fill="#263238"/>
<path d="M94.5419 289.429C94.6084 289.859 94.5572 290.299 94.3939 290.702C94.2306 291.105 93.9613 291.457 93.6143 291.72C92.965 292.137 92.3064 291.794 92.158 290.959C92.0925 290.529 92.1441 290.089 92.3074 289.686C92.4706 289.283 92.7394 288.931 93.0856 288.668C93.7442 288.241 94.3935 288.585 94.5419 289.429Z" fill="#263238"/>
<path d="M95.618 295.532C95.6844 295.962 95.6333 296.402 95.47 296.806C95.3067 297.209 95.0373 297.561 94.6904 297.823C94.0411 298.241 93.3918 297.907 93.2433 297.063C93.1758 296.633 93.2265 296.192 93.3899 295.789C93.5533 295.385 93.8232 295.034 94.1709 294.772C94.8202 294.345 95.4695 294.688 95.618 295.532Z" fill="#263238"/>
<path d="M97.4639 290.95C97.5293 291.38 97.4777 291.82 97.3145 292.223C97.1513 292.626 96.8824 292.978 96.5363 293.241C95.8777 293.668 95.2284 293.325 95.08 292.48C95.0135 292.05 95.0646 291.61 95.2279 291.207C95.3912 290.804 95.6606 290.452 96.0076 290.189C96.6569 289.772 97.3154 290.115 97.4639 290.95Z" fill="#263238"/>
<path d="M92.7146 293.992C92.7783 294.421 92.7258 294.859 92.5627 295.26C92.3995 295.661 92.1316 296.012 91.787 296.274C91.1284 296.701 90.4791 296.358 90.3307 295.514C90.2642 295.084 90.3153 294.644 90.4786 294.24C90.6419 293.837 90.9113 293.485 91.2583 293.223C91.9076 292.824 92.5661 293.167 92.7146 293.992Z" fill="#263238"/>
<path d="M94.5975 289.456C94.663 289.886 94.6114 290.326 94.4482 290.729C94.2849 291.132 94.0161 291.484 93.6699 291.748C93.0114 292.174 92.3621 291.831 92.2136 290.987C92.1472 290.557 92.1983 290.117 92.3616 289.714C92.5249 289.31 92.7943 288.959 93.1412 288.696C93.7905 288.278 94.4491 288.612 94.5975 289.456Z" fill="#263238"/>
<path d="M95.6735 295.56C95.739 295.99 95.6874 296.43 95.5241 296.833C95.3609 297.236 95.0921 297.588 94.7459 297.851C94.0873 298.278 93.438 297.935 93.2896 297.091C93.2231 296.66 93.2743 296.22 93.4376 295.817C93.6009 295.414 93.8702 295.062 94.2172 294.799C94.9036 294.382 95.5251 294.725 95.6735 295.56Z" fill="#263238"/>
<path d="M97.5103 290.987C97.5767 291.417 97.5256 291.857 97.3623 292.26C97.199 292.664 96.9296 293.015 96.5827 293.278C95.9241 293.696 95.2748 293.352 95.1264 292.518C95.0589 292.087 95.1095 291.647 95.2729 291.244C95.4363 290.84 95.7063 290.488 96.054 290.226C96.7589 289.8 97.3618 290.143 97.5103 290.987Z" fill="#263238"/>
<path d="M92.7609 294.039C92.8274 294.469 92.7762 294.909 92.6129 295.312C92.4496 295.716 92.1803 296.067 91.8333 296.33C91.1747 296.747 90.5254 296.404 90.377 295.569C90.3095 295.139 90.3602 294.699 90.5235 294.295C90.6869 293.892 90.9569 293.54 91.3046 293.278C91.9632 292.851 92.6125 293.195 92.7609 294.039Z" fill="#263238"/>
<path d="M94.644 289.494C94.7094 289.924 94.6578 290.363 94.4946 290.766C94.3314 291.17 94.0626 291.521 93.7164 291.785C93.0578 292.202 92.4085 291.859 92.2601 291.015C92.1936 290.585 92.2447 290.145 92.408 289.741C92.5713 289.338 92.8407 288.986 93.1877 288.724C93.8463 288.306 94.4956 288.65 94.644 289.494Z" fill="#263238"/>
<path d="M95.72 295.597C95.7865 296.027 95.7353 296.467 95.572 296.87C95.4087 297.274 95.1393 297.625 94.7924 297.888C94.1338 298.306 93.4845 297.962 93.3361 297.128C93.2686 296.697 93.3192 296.257 93.4826 295.853C93.646 295.45 93.916 295.098 94.2637 294.836C94.9037 294.41 95.5716 294.753 95.72 295.597Z" fill="#263238"/>
<path d="M97.5566 291.015C97.6241 291.445 97.5734 291.885 97.4101 292.289C97.2467 292.692 96.9767 293.044 96.629 293.306C95.9797 293.733 95.3211 293.389 95.1727 292.545C95.1072 292.115 95.1588 291.676 95.322 291.272C95.4853 290.869 95.7541 290.517 96.1003 290.254C96.7589 289.827 97.4082 290.171 97.5566 291.015Z" fill="#263238"/>
<path d="M92.8073 294.067C92.8748 294.497 92.8241 294.937 92.6608 295.341C92.4974 295.744 92.2274 296.096 91.8797 296.358C91.2304 296.784 90.5718 296.441 90.4234 295.597C90.3589 295.167 90.411 294.728 90.5742 294.325C90.7373 293.922 91.0056 293.57 91.351 293.306C92.0096 292.889 92.6589 293.223 92.8073 294.067Z" fill="#263238"/>
<path d="M112.101 278.344L112.788 278.706L110.413 280.236L109.727 279.875L112.101 278.344Z" fill="#263238"/>
<path d="M110.265 282.926L110.951 283.288L108.576 284.809L107.89 284.447L110.265 282.926Z" fill="#263238"/>
<path d="M113.326 281.758L113.196 281.043L115.023 279.875L115.7 280.236L113.326 281.758Z" fill="#263238"/>
<path d="M107.89 284.448L108.576 284.809L109.114 287.861L108.428 287.509L107.89 284.448Z" fill="#263238"/>
<path d="M111.341 289.03L112.027 289.391L111.489 286.34L110.932 286.701L111.341 289.03Z" fill="#263238"/>
<path d="M94.644 289.494C94.7094 289.924 94.6578 290.363 94.4946 290.766C94.3314 291.17 94.0626 291.521 93.7164 291.785C93.0578 292.202 92.4085 291.859 92.2601 291.015C92.1936 290.585 92.2447 290.145 92.408 289.741C92.5713 289.338 92.8407 288.986 93.1877 288.724C93.8463 288.306 94.4956 288.65 94.644 289.494Z" fill="#90CAF9"/>
<path d="M95.72 295.597C95.7865 296.027 95.7353 296.467 95.572 296.87C95.4087 297.274 95.1393 297.625 94.7924 297.888C94.1338 298.306 93.4845 297.962 93.3361 297.128C93.2686 296.697 93.3192 296.257 93.4826 295.853C93.646 295.45 93.916 295.098 94.2637 294.836C94.9037 294.41 95.5716 294.753 95.72 295.597Z" fill="#90CAF9"/>
<path d="M97.5566 291.015C97.6241 291.445 97.5734 291.885 97.4101 292.289C97.2467 292.692 96.9767 293.044 96.629 293.306C95.9797 293.733 95.3211 293.389 95.1727 292.545C95.1072 292.115 95.1588 291.676 95.322 291.272C95.4853 290.869 95.7541 290.517 96.1003 290.254C96.7589 289.827 97.4082 290.171 97.5566 291.015Z" fill="#90CAF9"/>
<path d="M92.8073 294.067C92.8748 294.497 92.8241 294.937 92.6608 295.341C92.4974 295.744 92.2274 296.096 91.8797 296.358C91.2304 296.784 90.5718 296.441 90.4234 295.597C90.3589 295.167 90.411 294.728 90.5742 294.325C90.7373 293.922 91.0056 293.57 91.351 293.306C92.0096 292.889 92.6589 293.223 92.8073 294.067Z" fill="#90CAF9"/>
<path d="M117.463 30.2703L107.491 36.0213C107.546 35.5844 107.574 35.1445 107.574 34.7041V31.8193C107.574 26.6805 103.966 24.5934 99.523 27.1814C97.6021 28.3582 95.9621 29.9412 94.7181 31.8193C93.9853 25.3262 88.9207 22.9516 82.7615 26.5043C76.1015 30.3537 70.7029 39.7038 70.7029 47.3842V51.7068C70.6605 53.4321 71.0093 55.1445 71.7233 56.7157L63.4399 61.4928C62.1391 62.3423 61.0565 63.4861 60.2797 64.8317C59.503 66.1773 59.054 67.6868 58.969 69.2381C58.969 72.0858 60.9725 73.2453 63.4399 71.8168L117.463 40.6314C118.763 39.7819 119.846 38.6381 120.623 37.2925C121.399 35.9469 121.848 34.4374 121.934 32.886C121.934 30.0013 119.948 28.8418 117.463 30.2703Z" fill="#F0F0F0"/>
<path d="M324.639 289.456L322.784 288.408L324.101 287.814C324.101 287.814 325.131 288.093 325.158 288.139C325.15 288.379 325.125 288.617 325.084 288.853L324.639 289.456Z" fill="#E0E0E0"/>
<path d="M324.639 289.456L322.784 288.408L324.101 287.814C324.101 287.814 325.131 288.093 325.158 288.139C325.15 288.379 325.125 288.617 325.084 288.853L324.639 289.456Z" fill="#90CAF9"/>
<path opacity="0.1" d="M324.639 289.456L322.784 288.408L324.101 287.814C324.101 287.814 325.131 288.093 325.158 288.139C325.15 288.379 325.125 288.617 325.084 288.853L324.639 289.456Z" fill="white"/>
<path d="M255.608 324.231C256.43 324.648 257.339 324.865 258.261 324.865C259.183 324.865 260.091 324.648 260.914 324.231L320.409 289.911L231.361 238.485L229.283 237.289L169.788 271.61C168.331 272.454 168.331 273.836 169.788 274.671L255.608 324.231Z" fill="#90CAF9"/>
<path opacity="0.8" d="M255.608 324.231C256.43 324.648 257.339 324.865 258.261 324.865C259.183 324.865 260.091 324.648 260.914 324.231L320.409 289.911L231.361 238.485L229.283 237.289L169.788 271.61C168.331 272.454 168.331 273.836 169.788 274.671L255.608 324.231Z" fill="white"/>
<path d="M277.954 259.338L298.704 271.276L312.135 263.521L327.728 272.556V283.789C327.728 285.152 326.197 287.091 325.641 286.776C324.611 287.024 323.611 287.379 322.654 287.833C321.094 288.72 319.645 289.792 318.341 291.024L270.663 263.502L277.954 259.338Z" fill="#E0E0E0"/>
<path d="M277.954 259.338L298.704 271.276L312.135 263.521L327.728 272.556V283.789C327.728 285.152 326.197 287.091 325.641 286.776C324.611 287.024 323.611 287.379 322.654 287.833C321.094 288.72 319.645 289.792 318.341 291.024L270.663 263.502L277.954 259.338Z" fill="#90CAF9"/>
<path opacity="0.1" d="M277.954 259.338L298.704 271.276L312.135 263.521L327.728 272.556V283.789C327.728 285.152 326.197 287.091 325.641 286.776C324.611 287.024 323.611 287.379 322.654 287.833C321.094 288.72 319.645 289.792 318.341 291.024L270.663 263.502L277.954 259.338Z" fill="white"/>
<path d="M260.942 324.222L264.531 322.145L318.396 291.052C318.437 290.349 318.693 289.675 319.129 289.122C319.765 288.277 320.567 287.57 321.485 287.045C322.253 286.574 323.127 286.303 324.027 286.256C324.629 286.248 325.216 286.441 325.696 286.803C326.398 285.427 326.739 283.895 326.689 282.351H328.73C328.73 285.134 327.802 287.991 326.661 288.64L325.631 289.243C325.047 289.577 324.583 289.596 324.583 289.243V288.696C324.583 288.084 323.656 288.111 322.505 288.779C321.355 289.447 320.437 290.467 320.437 291.08V291.636C320.437 291.952 319.639 292.657 318.674 293.213L266.581 323.295L260.942 326.541C260.125 326.964 259.217 327.177 258.298 327.163V324.807C259.215 324.844 260.126 324.643 260.942 324.222Z" fill="#90CAF9"/>
<path opacity="0.6" d="M260.942 324.222L264.531 322.145L318.396 291.052C318.437 290.349 318.693 289.675 319.129 289.122C319.765 288.277 320.567 287.57 321.485 287.045C322.253 286.574 323.127 286.303 324.027 286.256C324.629 286.248 325.216 286.441 325.696 286.803C326.398 285.427 326.739 283.895 326.689 282.351H328.73C328.73 285.134 327.802 287.991 326.661 288.64L325.631 289.243C325.047 289.577 324.583 289.596 324.583 289.243V288.696C324.583 288.084 323.656 288.111 322.505 288.779C321.355 289.447 320.437 290.467 320.437 291.08V291.636C320.437 291.952 319.639 292.657 318.674 293.213L266.581 323.295L260.942 326.541C260.125 326.964 259.217 327.177 258.298 327.163V324.807C259.215 324.844 260.126 324.643 260.942 324.222Z" fill="white"/>
<path d="M168.675 273.094V275.496C168.705 275.817 168.819 276.124 169.004 276.388C169.19 276.651 169.44 276.862 169.732 276.999L249.94 323.304L255.571 326.551C256.387 326.973 257.295 327.186 258.214 327.172V324.816C257.289 324.838 256.375 324.617 255.562 324.176L251.981 322.107L169.732 274.606C169.439 274.468 169.188 274.256 169.002 273.991C168.817 273.725 168.704 273.416 168.675 273.094Z" fill="#90CAF9"/>
<path opacity="0.1" d="M168.675 273.094V275.496C168.705 275.817 168.819 276.124 169.004 276.388C169.19 276.651 169.44 276.862 169.732 276.999L249.94 323.304L255.571 326.551C256.387 326.973 257.295 327.186 258.214 327.172V324.816C257.289 324.838 256.375 324.617 255.562 324.176L251.981 322.107L169.732 274.606C169.439 274.468 169.188 274.256 169.002 273.991C168.817 273.725 168.704 273.416 168.675 273.094Z" fill="white"/>
<path d="M258.261 308.982V322.747C258.875 322.766 259.483 322.622 260.023 322.33L266.516 318.564L316.226 289.864V275.505L258.261 308.982Z" fill="white"/>
<path d="M171.263 260.469V271.053C171.295 271.666 171.472 272.262 171.778 272.794C172.084 273.326 172.511 273.778 173.025 274.114L250.015 318.545L256.508 322.311C257.049 322.602 257.656 322.746 258.27 322.729V310.438L171.263 260.469Z" fill="#F0F0F0"/>
<path d="M316.263 289.846C316.312 289.142 316.574 288.469 317.014 287.917C317.653 287.076 318.454 286.373 319.37 285.848C320.133 285.371 321.004 285.096 321.903 285.05C322.507 285.046 323.096 285.238 323.582 285.598V271.266L316.281 275.487L316.263 289.846Z" fill="#455A64"/>
<path d="M319.185 285.969C318.34 286.468 317.602 287.13 317.014 287.917C316.574 288.469 316.312 289.142 316.263 289.846V276.155H319.175L319.185 285.969Z" fill="#F5F5F5"/>
<path d="M231.342 221.64L320.391 273.066V274.262C320.391 274.921 321.318 275.19 322.459 274.504C323.6 273.817 324.537 273.019 324.537 271.879L324.648 270.747L233.902 218.357L233.541 218.143C233.446 218.311 233.392 218.498 233.383 218.691V219.247C233.402 219.934 232.483 221 231.342 221.64Z" fill="#90CAF9"/>
<path opacity="0.6" d="M231.342 221.64L320.391 273.066V274.262C320.391 274.921 321.318 275.19 322.459 274.504C323.6 273.817 324.537 273.019 324.537 271.879L324.648 270.747L233.902 218.357L233.541 218.143C233.446 218.311 233.392 218.498 233.383 218.691V219.247C233.402 219.934 232.483 221 231.342 221.64Z" fill="white"/>
<path d="M260.942 307.452L319.12 273.854C319.853 273.474 320.53 273.159 320.817 273.307L320.437 273.094L231.389 221.668L230.35 221.065C229.883 220.933 229.393 220.901 228.913 220.973C228.433 221.045 227.974 221.219 227.567 221.483L169.843 254.82C168.387 255.664 168.387 257.037 169.843 257.881L255.682 307.452C256.498 307.86 257.399 308.073 258.312 308.073C259.225 308.073 260.125 307.86 260.942 307.452Z" fill="#90CAF9"/>
<path opacity="0.8" d="M260.942 307.452L319.12 273.854C319.853 273.474 320.53 273.159 320.817 273.307L320.437 273.094L231.389 221.668L230.35 221.065C229.883 220.933 229.393 220.901 228.913 220.973C228.433 221.045 227.974 221.219 227.567 221.483L169.843 254.82C168.387 255.664 168.387 257.037 169.843 257.881L255.682 307.452C256.498 307.86 257.399 308.073 258.312 308.073C259.225 308.073 260.125 307.86 260.942 307.452Z" fill="white"/>
<path d="M233.559 218.171L233.921 218.385L324.667 270.803C324.713 270.706 324.779 270.62 324.862 270.552L325.168 270.376L325.826 270.005L326.633 269.532C326.79 269.428 326.977 269.38 327.164 269.397C327.352 269.414 327.528 269.494 327.663 269.625C327.701 269.65 327.736 269.681 327.765 269.717C327.874 269.829 327.965 269.957 328.034 270.098C328.133 270.258 328.214 270.429 328.275 270.608C328.346 270.799 328.405 270.994 328.451 271.192C328.507 271.424 328.544 271.647 328.591 271.888C328.616 272.026 328.631 272.165 328.637 272.305C328.637 272.417 328.637 272.519 328.637 272.648C328.637 272.778 328.637 273.168 328.637 273.437V270.886C328.541 270.048 328.251 269.244 327.791 268.537C327.33 267.83 326.712 267.24 325.984 266.814L240.136 217.244C239.429 216.826 238.635 216.578 237.815 216.519C236.996 216.459 236.175 216.59 235.414 216.901L234.329 217.531L233.865 217.791C233.731 217.888 233.626 218.019 233.559 218.171Z" fill="#90CAF9"/>
<path opacity="0.8" d="M233.559 218.171L233.921 218.385L324.667 270.803C324.713 270.706 324.779 270.62 324.862 270.552L325.168 270.376L325.826 270.005L326.633 269.532C326.79 269.428 326.977 269.38 327.164 269.397C327.352 269.414 327.528 269.494 327.663 269.625C327.701 269.65 327.736 269.681 327.765 269.717C327.874 269.829 327.965 269.957 328.034 270.098C328.133 270.258 328.214 270.429 328.275 270.608C328.346 270.799 328.405 270.994 328.451 271.192C328.507 271.424 328.544 271.647 328.591 271.888C328.616 272.026 328.631 272.165 328.637 272.305C328.637 272.417 328.637 272.519 328.637 272.648C328.637 272.778 328.637 273.168 328.637 273.437V270.886C328.541 270.048 328.251 269.244 327.791 268.537C327.33 267.83 326.712 267.24 325.984 266.814L240.136 217.244C239.429 216.826 238.635 216.578 237.815 216.519C236.996 216.459 236.175 216.59 235.414 216.901L234.329 217.531L233.865 217.791C233.731 217.888 233.626 218.019 233.559 218.171Z" fill="white"/>
<path d="M260.941 307.461L264.541 305.374L305.92 281.498L319.129 273.873C320.057 273.316 320.836 273.121 320.882 273.409V274.003C320.882 274.671 321.81 274.671 322.951 274.003C323.374 273.819 323.744 273.533 324.029 273.17C324.314 272.807 324.505 272.379 324.583 271.925V271.276C324.57 271.131 324.59 270.985 324.643 270.85C324.697 270.714 324.781 270.593 324.889 270.496L325.195 270.32L325.854 269.949L326.661 269.476C326.818 269.372 327.005 269.324 327.192 269.341C327.379 269.358 327.555 269.438 327.691 269.569C327.729 269.595 327.763 269.626 327.793 269.662C327.862 269.734 327.921 269.815 327.969 269.903C328.008 269.943 328.04 269.99 328.062 270.042C328.16 270.203 328.241 270.374 328.303 270.552C328.374 270.743 328.433 270.938 328.479 271.136C328.535 271.368 328.572 271.591 328.618 271.832C328.643 271.97 328.659 272.11 328.665 272.25C328.665 272.361 328.665 272.463 328.665 272.593C328.665 272.723 328.665 273.112 328.665 273.381V282.323H326.624V273.381C326.624 273.168 326.624 272.955 326.624 272.75L326.568 272.24C326.573 272.225 326.573 272.209 326.568 272.194C326.383 273.817 324.834 275.264 323.489 276.025C322.742 276.496 321.885 276.765 321.003 276.804C320.322 276.813 319.662 276.572 319.148 276.127L318.962 276.229L318.61 276.442L266.516 306.524L260.941 309.808C260.138 310.218 259.246 310.426 258.344 310.41V308.054C259.246 308.073 260.138 307.87 260.941 307.461Z" fill="#90CAF9"/>
<path opacity="0.6" d="M260.941 307.461L264.541 305.374L305.92 281.498L319.129 273.873C320.057 273.316 320.836 273.121 320.882 273.409V274.003C320.882 274.671 321.81 274.671 322.951 274.003C323.374 273.819 323.744 273.533 324.029 273.17C324.314 272.807 324.505 272.379 324.583 271.925V271.276C324.57 271.131 324.59 270.985 324.643 270.85C324.697 270.714 324.781 270.593 324.889 270.496L325.195 270.32L325.854 269.949L326.661 269.476C326.818 269.372 327.005 269.324 327.192 269.341C327.379 269.358 327.555 269.438 327.691 269.569C327.729 269.595 327.763 269.626 327.793 269.662C327.862 269.734 327.921 269.815 327.969 269.903C328.008 269.943 328.04 269.99 328.062 270.042C328.16 270.203 328.241 270.374 328.303 270.552C328.374 270.743 328.433 270.938 328.479 271.136C328.535 271.368 328.572 271.591 328.618 271.832C328.643 271.97 328.659 272.11 328.665 272.25C328.665 272.361 328.665 272.463 328.665 272.593C328.665 272.723 328.665 273.112 328.665 273.381V282.323H326.624V273.381C326.624 273.168 326.624 272.955 326.624 272.75L326.568 272.24C326.573 272.225 326.573 272.209 326.568 272.194C326.383 273.817 324.834 275.264 323.489 276.025C322.742 276.496 321.885 276.765 321.003 276.804C320.322 276.813 319.662 276.572 319.148 276.127L318.962 276.229L318.61 276.442L266.516 306.524L260.941 309.808C260.138 310.218 259.246 310.426 258.344 310.41V308.054C259.246 308.073 260.138 307.87 260.941 307.461Z" fill="white"/>
<path d="M168.675 256.323V258.744C168.704 259.066 168.817 259.376 169.002 259.641C169.188 259.906 169.439 260.118 169.732 260.256L249.94 306.561L255.571 309.817C256.387 310.239 257.295 310.453 258.214 310.438V308.082C257.291 308.103 256.377 307.885 255.562 307.452L251.981 305.383L169.732 257.881C169.433 257.74 169.177 257.52 168.991 257.246C168.805 256.972 168.696 256.653 168.675 256.323Z" fill="#90CAF9"/>
<path opacity="0.1" d="M168.675 256.323V258.744C168.704 259.066 168.817 259.376 169.002 259.641C169.188 259.906 169.439 260.118 169.732 260.256L249.94 306.561L255.571 309.817C256.387 310.239 257.295 310.453 258.214 310.438V308.082C257.291 308.103 256.377 307.885 255.562 307.452L251.981 305.383L169.732 257.881C169.433 257.74 169.177 257.52 168.991 257.246C168.805 256.972 168.696 256.653 168.675 256.323Z" fill="white"/>
<path d="M227.493 221.483C227.9 221.219 228.359 221.045 228.839 220.973C229.319 220.901 229.809 220.933 230.276 221.065L231.314 221.668C232.455 221 233.374 219.934 233.374 219.275V218.719C233.383 218.526 233.437 218.339 233.531 218.171C233.604 218.021 233.716 217.892 233.856 217.8L234.32 217.541L235.405 216.91C236.165 216.599 236.987 216.468 237.806 216.528C238.625 216.587 239.419 216.836 240.127 217.253L325.975 266.823L326.067 266.879L265.487 301.858C264.94 302.137 264.334 302.283 263.72 302.283C263.105 302.283 262.5 302.137 261.953 301.858L175.548 251.481L227.493 221.483Z" fill="#263238"/>
<path d="M270.338 296.775L268.047 295.458C268.664 295.243 269.326 295.195 269.967 295.319C270.579 295.634 270.338 296.775 270.338 296.775Z" fill="#90CAF9"/>
<path opacity="0.7" d="M270.338 296.775L268.047 295.458C268.664 295.243 269.326 295.195 269.967 295.319C270.579 295.634 270.338 296.775 270.338 296.775Z" fill="black"/>
<path d="M271.915 295.356C271.654 295.073 271.338 294.848 270.986 294.694C270.634 294.54 270.254 294.46 269.87 294.46C269.485 294.46 269.105 294.54 268.753 294.694C268.401 294.848 268.085 295.073 267.824 295.356C265.589 297.406 265.477 299.437 264.55 299.409C263.622 299.382 263.622 283.037 263.622 283.037L272.444 291.21L271.915 295.356Z" fill="#90CAF9"/>
<path opacity="0.7" d="M271.915 295.356C271.654 295.073 271.338 294.848 270.986 294.694C270.634 294.54 270.254 294.46 269.87 294.46C269.485 294.46 269.105 294.54 268.753 294.694C268.401 294.848 268.085 295.073 267.824 295.356C265.589 297.406 265.477 299.437 264.55 299.409C263.622 299.382 263.622 283.037 263.622 283.037L272.444 291.21L271.915 295.356Z" fill="black"/>
<path d="M179.694 235.944L179.546 235.86L180.956 235.044L241.694 199.981L330.195 257.251C331.652 258.095 331.911 259.319 330.77 259.968L328.702 261.165L271.934 293.992L271.525 293.695L179.694 235.944Z" fill="#90CAF9"/>
<path opacity="0.5" d="M179.694 235.944L179.546 235.86L180.956 235.044L241.694 199.981L330.195 257.251C331.652 258.095 331.911 259.319 330.77 259.968L328.702 261.165L271.934 293.992L271.525 293.695L179.694 235.944Z" fill="black"/>
<path d="M264.355 275.301L268.752 274.374V291.998C266.099 293.13 264.411 294.187 264.114 296.404L264.355 275.301Z" fill="#455A64"/>
<path d="M270.691 292.23L326.93 259.764C327.445 259.429 327.874 258.978 328.182 258.446C328.49 257.914 328.668 257.317 328.702 256.703V239.348L271.915 272.417C271.915 272.417 271.238 274.875 269.225 275.645C267.212 276.414 268.752 277.203 268.752 277.203V292.044C270.486 291.794 270.691 292.23 270.691 292.23Z" fill="#F0F0F0"/>
<path d="M265.505 274.698C266.09 274.364 266.554 274.346 266.554 274.698V275.246C266.554 275.858 267.481 275.83 268.631 275.162C269.782 274.494 270.709 273.474 270.709 272.862V272.305C270.709 271.99 271.498 271.285 272.462 270.728L180.965 218.301L179.546 219.117C179.349 219.326 179.226 219.593 179.193 219.878V220.435C179.193 221.047 178.266 222.076 177.125 222.735C175.984 223.394 175.047 223.431 175.047 222.818V222.262C175.047 221.947 174.583 221.974 174.008 222.308L265.505 274.698Z" fill="#90CAF9"/>
<path opacity="0.6" d="M265.505 274.698C266.09 274.364 266.554 274.346 266.554 274.698V275.246C266.554 275.858 267.481 275.83 268.631 275.162C269.782 274.494 270.709 273.474 270.709 272.862V272.305C270.709 271.99 271.498 271.285 272.462 270.728L180.965 218.301L179.546 219.117C179.349 219.326 179.226 219.593 179.193 219.878V220.435C179.193 221.047 178.266 222.076 177.125 222.735C175.984 223.394 175.047 223.431 175.047 222.818V222.262C175.047 221.947 174.583 221.974 174.008 222.308L265.505 274.698Z" fill="black"/>
<path d="M179.694 219.164L179.546 219.08L180.956 218.264L241.694 183.201L330.195 234.311C331.652 235.155 331.911 236.371 330.77 237.029L328.702 238.216L271.915 272.417L179.694 219.164Z" fill="#90CAF9"/>
<path opacity="0.5" d="M179.694 219.164L179.546 219.08L180.956 218.264L241.694 183.201L330.195 234.311C331.652 235.155 331.911 236.371 330.77 237.029L328.702 238.216L271.915 272.417L179.694 219.164Z" fill="black"/>
<path d="M175.029 221.696L266.507 274.513L263.307 277.017L172.172 224.405C172.394 223.728 172.818 223.136 173.387 222.707L175.029 221.696Z" fill="#90CAF9"/>
<path opacity="0.5" d="M175.029 221.696L266.507 274.513L263.307 277.017L172.172 224.405C172.394 223.728 172.818 223.136 173.387 222.707L175.029 221.696Z" fill="black"/>
<path d="M172.478 248.012C172.421 247.977 172.368 247.936 172.32 247.891C172.278 247.87 172.243 247.838 172.218 247.798C172.143 247.725 172.08 247.641 172.032 247.548C171.991 247.513 171.96 247.468 171.94 247.418C171.84 247.259 171.762 247.087 171.708 246.908C171.631 246.715 171.569 246.517 171.522 246.314C171.467 246.092 171.43 245.869 171.392 245.628C171.36 245.491 171.342 245.351 171.337 245.21V244.867C171.337 244.617 171.337 244.348 171.337 244.079V228.968C171.32 227.382 171.61 225.807 172.19 224.33L263.325 276.943L263.706 300.615L172.58 247.984L172.478 248.012Z" fill="#90CAF9"/>
<path opacity="0.7" d="M172.478 248.012C172.421 247.977 172.368 247.936 172.32 247.891C172.278 247.87 172.243 247.838 172.218 247.798C172.143 247.725 172.08 247.641 172.032 247.548C171.991 247.513 171.96 247.468 171.94 247.418C171.84 247.259 171.762 247.087 171.708 246.908C171.631 246.715 171.569 246.517 171.522 246.314C171.467 246.092 171.43 245.869 171.392 245.628C171.36 245.491 171.342 245.351 171.337 245.21V244.867C171.337 244.617 171.337 244.348 171.337 244.079V228.968C171.32 227.382 171.61 225.807 172.19 224.33L263.325 276.943L263.706 300.615L172.58 247.984L172.478 248.012Z" fill="black"/>
<path opacity="0.79" d="M263.26 276.98C263.26 276.98 191.484 243.392 184.954 240.313C180.64 238.281 178.525 242.548 179.546 246.964C180.473 250.822 184.249 254.802 184.249 254.802L172.515 248.021C172.458 247.986 172.406 247.946 172.357 247.9C172.315 247.88 172.28 247.848 172.255 247.808C172.18 247.735 172.117 247.65 172.069 247.557C172.029 247.522 171.997 247.477 171.977 247.427C171.877 247.268 171.799 247.097 171.745 246.917C171.668 246.724 171.606 246.526 171.559 246.324C171.504 246.101 171.467 245.878 171.429 245.637C171.397 245.5 171.379 245.36 171.374 245.22V244.876C171.374 244.626 171.374 244.357 171.374 244.088V228.968C171.357 227.382 171.647 225.807 172.227 224.33L263.26 276.98Z" fill="#263238"/>
<path d="M262.416 281.59H264.457C264.409 280.048 264.747 278.517 265.44 277.138C265.926 277.498 266.515 277.69 267.119 277.685C268.018 277.639 268.889 277.365 269.652 276.888C270.57 276.366 271.371 275.662 272.008 274.819C272.056 274.761 272.1 274.699 272.137 274.633C272.498 274.12 272.707 273.516 272.74 272.89L326.605 241.797L328.461 240.73L330.798 239.385C331.001 239.292 331.176 239.146 331.301 238.961C331.427 238.776 331.5 238.56 331.512 238.337V235.953C331.502 236.18 331.43 236.401 331.305 236.59C331.179 236.78 331.004 236.932 330.798 237.029L324.611 240.591L272.527 270.673C271.553 271.229 270.765 271.934 270.765 272.25V272.806C270.707 273.159 270.538 273.484 270.282 273.734C269.835 274.271 269.295 274.724 268.687 275.069C267.537 275.737 266.609 275.765 266.609 275.153V274.606C266.609 274.281 266.155 274.309 265.57 274.606L264.541 275.209C263.344 275.951 262.416 278.78 262.416 281.59Z" fill="#90CAF9"/>
<path d="M264.457 281.59V296.701C264.457 296.914 264.457 297.127 264.457 297.332L264.504 297.842C264.499 297.857 264.499 297.873 264.504 297.888C264.689 296.265 266.238 294.818 267.583 294.057C268.333 293.585 269.193 293.316 270.078 293.278C270.759 293.269 271.419 293.51 271.934 293.955L272.11 293.853L272.472 293.64L324.555 263.558L327.552 261.833L328.405 261.332L330.928 259.876C331.094 259.772 331.231 259.628 331.329 259.458C331.426 259.289 331.479 259.097 331.485 258.902V261.285C331.477 261.47 331.427 261.651 331.336 261.812C331.246 261.973 331.119 262.111 330.965 262.213C330.668 262.389 330.353 262.556 330.038 262.751L329.453 263.094L328.451 263.669C328.229 263.809 328.025 263.929 327.83 264.031C327.635 264.133 327.524 264.217 327.394 264.282L326.624 264.736L285.244 288.612L272.036 296.237C271.108 296.794 270.338 296.988 270.282 296.701C270.279 296.667 270.279 296.633 270.282 296.599V296.07C270.282 295.402 269.355 295.402 268.214 296.07C267.791 296.254 267.42 296.54 267.135 296.903C266.85 297.265 266.66 297.693 266.581 298.148V298.797C266.595 298.942 266.574 299.088 266.521 299.223C266.468 299.359 266.384 299.479 266.275 299.576L265.969 299.752L265.32 300.124L264.513 300.597C264.356 300.701 264.169 300.748 263.982 300.731C263.794 300.714 263.619 300.634 263.483 300.504C263.441 300.483 263.406 300.451 263.381 300.411C263.306 300.341 263.244 300.26 263.196 300.17C263.16 300.131 263.128 300.087 263.103 300.04C263.004 299.881 262.926 299.709 262.871 299.53C262.793 299.341 262.731 299.145 262.685 298.945C262.63 298.714 262.593 298.491 262.556 298.25C262.523 298.113 262.504 297.973 262.5 297.832C262.5 297.721 262.5 297.619 262.5 297.489C262.5 297.359 262.5 296.97 262.5 296.701V281.59H264.457Z" fill="#90CAF9"/>
<g opacity="0.6">
<path opacity="0.6" d="M262.416 281.59H264.457C264.409 280.048 264.747 278.517 265.44 277.138C265.926 277.498 266.515 277.69 267.119 277.685C268.018 277.639 268.889 277.365 269.652 276.888C270.57 276.366 271.371 275.662 272.008 274.819C272.056 274.761 272.1 274.699 272.137 274.633C272.498 274.12 272.707 273.516 272.74 272.89L326.605 241.797L328.461 240.73L330.798 239.385C331.001 239.292 331.176 239.146 331.301 238.961C331.427 238.776 331.5 238.56 331.512 238.337V235.953C331.502 236.18 331.43 236.401 331.305 236.59C331.179 236.78 331.004 236.932 330.798 237.029L324.611 240.591L272.527 270.673C271.553 271.229 270.765 271.934 270.765 272.25V272.806C270.707 273.159 270.538 273.484 270.282 273.734C269.835 274.271 269.295 274.724 268.687 275.069C267.537 275.737 266.609 275.765 266.609 275.153V274.606C266.609 274.281 266.155 274.309 265.57 274.606L264.541 275.209C263.344 275.951 262.416 278.78 262.416 281.59Z" fill="black"/>
<path opacity="0.6" d="M264.457 281.59V296.701C264.457 296.914 264.457 297.127 264.457 297.332L264.503 297.842C264.499 297.857 264.499 297.873 264.503 297.888C264.689 296.265 266.238 294.818 267.583 294.057C268.333 293.585 269.193 293.316 270.078 293.278C270.759 293.269 271.419 293.51 271.933 293.955L272.11 293.853L272.471 293.64L324.555 263.558L327.552 261.833L328.405 261.332L330.928 259.876C331.094 259.772 331.231 259.628 331.329 259.458C331.426 259.289 331.479 259.097 331.484 258.902V261.285C331.477 261.47 331.427 261.651 331.336 261.812C331.246 261.973 331.119 262.111 330.965 262.213C330.668 262.389 330.353 262.556 330.037 262.751L329.453 263.094L328.451 263.669C328.229 263.809 328.025 263.929 327.83 264.031C327.635 264.133 327.524 264.217 327.394 264.282L326.624 264.736L285.244 288.612L272.035 296.237C271.108 296.794 270.338 296.988 270.282 296.701C270.279 296.667 270.279 296.633 270.282 296.599V296.07C270.282 295.402 269.355 295.402 268.214 296.07C267.791 296.254 267.42 296.54 267.135 296.903C266.85 297.265 266.66 297.693 266.581 298.148V298.797C266.595 298.942 266.574 299.088 266.521 299.223C266.468 299.359 266.384 299.479 266.275 299.576L265.969 299.752L265.32 300.124L264.513 300.597C264.356 300.701 264.169 300.748 263.982 300.731C263.794 300.714 263.619 300.634 263.483 300.504C263.441 300.483 263.406 300.451 263.381 300.411C263.306 300.341 263.244 300.26 263.196 300.17C263.16 300.131 263.128 300.087 263.103 300.04C263.004 299.881 262.926 299.709 262.871 299.53C262.793 299.341 262.73 299.145 262.685 298.945C262.63 298.714 262.593 298.491 262.556 298.25C262.523 298.113 262.504 297.973 262.5 297.832C262.5 297.721 262.5 297.619 262.5 297.489C262.5 297.359 262.5 296.97 262.5 296.701V281.59H264.457Z" fill="black"/>
</g>
<path d="M172.125 224.358L258.743 274.374L324.212 236.575C324.426 236.503 324.612 236.366 324.744 236.183C324.876 236 324.947 235.78 324.947 235.554C324.947 235.329 324.876 235.109 324.744 234.926C324.612 234.743 324.426 234.606 324.212 234.534L238.503 185.038L180.993 218.264L179.574 219.09C179.382 219.297 179.261 219.56 179.231 219.841V220.398C179.231 221.01 178.303 222.039 177.162 222.698C177.104 222.736 177.042 222.767 176.976 222.791L175.066 221.687L174.138 222.206L174.008 222.271L173.34 222.661C172.772 223.09 172.349 223.682 172.125 224.358Z" fill="#263238"/>
<path d="M319.379 236.946L316.773 235.554L319.148 234.989C319.376 235.255 319.52 235.583 319.561 235.932C319.602 236.28 319.539 236.633 319.379 236.946Z" fill="#E0E0E0"/>
<g style="mix-blend-mode:multiply" opacity="0.5">
<path d="M319.379 236.946L316.773 235.554L319.148 234.989C319.376 235.255 319.52 235.583 319.561 235.932C319.602 236.28 319.539 236.633 319.379 236.946Z" fill="#E0E0E0"/>
</g>
<path d="M250.302 271.73C251.123 272.147 252.03 272.364 252.95 272.364C253.871 272.364 254.778 272.147 255.599 271.73L315.094 237.41L226.046 181.114L223.959 179.908L164.473 219.09C163.016 219.934 163.016 221.307 164.473 222.151L250.302 271.73Z" fill="#90CAF9"/>
<path d="M272.638 201.948L317.589 232.41L293.389 213.858L306.82 206.103L322.441 215.147V231.278C322.441 232.651 320.91 234.59 320.354 234.274C319.324 234.523 318.323 234.877 317.367 235.332C315.806 236.219 314.358 237.29 313.053 238.523L265.385 206.122L272.638 201.948Z" fill="#90CAF9"/>
<path opacity="0.2" d="M272.638 201.948L317.589 232.41L293.389 213.858L306.82 206.103L322.441 215.147V231.278C322.441 232.651 320.91 234.59 320.354 234.274C319.324 234.523 318.323 234.877 317.367 235.332C315.806 236.219 314.358 237.29 313.053 238.523L265.385 206.122L272.638 201.948Z" fill="black"/>
<path d="M252.946 251.592V270.218C253.562 270.232 254.172 270.088 254.717 269.801L261.211 266.035L310.929 237.335V218.097L252.946 251.592Z" fill="white"/>
<path d="M165.947 203.089V218.552C165.981 219.164 166.159 219.76 166.465 220.292C166.771 220.823 167.197 221.276 167.71 221.613L244.699 266.044L251.193 269.81C251.735 270.096 252.342 270.24 252.955 270.228V253.049L165.947 203.089Z" fill="#F0F0F0"/>
<path d="M310.957 237.335C311.003 236.632 311.261 235.959 311.699 235.406C312.333 234.561 313.135 233.856 314.055 233.337C314.821 232.86 315.696 232.585 316.597 232.54C317.181 232.48 317.769 232.617 318.266 232.929V213.877L310.966 218.097L310.957 237.335Z" fill="#455A64"/>
<path d="M313.87 233.449C313.028 233.957 312.292 234.622 311.699 235.406C311.261 235.959 311.003 236.632 310.957 237.335V218.784H313.86L313.87 233.449Z" fill="#F5F5F5"/>
<path d="M226.036 164.279L315.085 215.713V216.901C315.085 217.568 316.012 217.828 317.153 217.151C318.294 216.474 319.24 215.658 319.24 214.517L319.352 213.385L228.606 160.995L228.235 160.782C228.142 160.953 228.091 161.143 228.086 161.338V161.885C228.096 162.544 227.177 163.611 226.036 164.279Z" fill="#90CAF9"/>
<path opacity="0.2" d="M226.036 164.279L315.085 215.713V216.901C315.085 217.568 316.012 217.828 317.153 217.151C318.294 216.474 319.24 215.658 319.24 214.517L319.352 213.385L228.606 160.995L228.235 160.782C228.142 160.953 228.091 161.143 228.086 161.338V161.885C228.096 162.544 227.177 163.611 226.036 164.279Z" fill="black"/>
<path d="M255.599 250.062L313.814 216.474C314.556 216.084 315.233 215.769 315.512 215.917L315.131 215.713L226.083 164.279L225.035 163.685C224.569 163.547 224.078 163.512 223.597 163.584C223.116 163.656 222.657 163.833 222.252 164.102L164.473 197.431C163.016 198.275 163.016 199.657 164.473 200.492L250.321 250.062C251.139 250.475 252.043 250.69 252.96 250.69C253.876 250.69 254.78 250.475 255.599 250.062Z" fill="#90CAF9"/>
<path d="M228.244 160.782L228.615 160.995L319.38 213.385C319.425 213.288 319.492 213.203 319.574 213.134L319.88 212.967L320.53 212.587L321.337 212.114C321.494 212.012 321.681 211.965 321.868 211.982C322.054 211.999 322.23 212.078 322.366 212.207C322.405 212.233 322.439 212.264 322.468 212.3C322.576 212.415 322.669 212.543 322.747 212.68C322.842 212.841 322.92 213.012 322.979 213.19C323.051 213.384 323.113 213.583 323.164 213.784C323.21 214.006 323.257 214.229 323.294 214.47C323.322 214.611 323.341 214.754 323.35 214.897V215.231C323.35 215.481 323.35 215.75 323.35 216.029V213.478C323.257 212.638 322.968 211.831 322.507 211.122C322.047 210.414 321.427 209.822 320.697 209.396L234.849 159.826C234.141 159.409 233.346 159.162 232.527 159.105C231.708 159.047 230.886 159.179 230.127 159.492L229.042 160.123L228.587 160.392C228.438 160.486 228.319 160.622 228.244 160.782Z" fill="#90CAF9"/>
<path d="M255.599 271.73L259.188 269.652L313.053 238.55C313.101 237.847 313.359 237.175 313.795 236.621C314.432 235.779 315.234 235.075 316.151 234.552C316.916 234.082 317.787 233.811 318.684 233.764C319.289 233.752 319.881 233.944 320.363 234.311C321.055 232.928 321.393 231.395 321.346 229.85H323.387C323.387 232.632 322.459 235.489 321.318 236.148L320.289 236.751C319.704 237.085 319.25 237.103 319.25 236.751V236.204C319.25 235.591 318.322 235.619 317.163 236.278C316.003 236.936 315.094 237.975 315.094 238.587V239.135C315.094 239.45 314.306 240.155 313.332 240.721L261.238 270.803L255.599 274.058C254.782 274.481 253.874 274.694 252.955 274.68V272.324C253.873 272.355 254.783 272.151 255.599 271.73Z" fill="#90CAF9"/>
<path opacity="0.4" d="M255.599 271.73L259.188 269.652L313.053 238.55C313.101 237.847 313.359 237.175 313.795 236.621C314.432 235.779 315.234 235.075 316.151 234.552C316.916 234.082 317.787 233.811 318.684 233.764C319.289 233.752 319.881 233.944 320.363 234.311C321.055 232.928 321.393 231.395 321.346 229.85H323.387C323.387 232.632 322.459 235.489 321.318 236.148L320.289 236.751C319.704 237.085 319.25 237.103 319.25 236.751V236.204C319.25 235.591 318.322 235.619 317.163 236.278C316.003 236.936 315.094 237.975 315.094 238.587V239.135C315.094 239.45 314.306 240.155 313.332 240.721L261.238 270.803L255.599 274.058C254.782 274.481 253.874 274.694 252.955 274.68V272.324C253.873 272.355 254.783 272.151 255.599 271.73Z" fill="black"/>
<path d="M255.58 250.071L259.17 247.993L300.55 224.117L313.814 216.474C314.742 215.927 315.521 215.732 315.576 216.019V216.622C315.576 217.281 316.504 217.281 317.645 216.622C318.069 216.437 318.441 216.15 318.726 215.785C319.011 215.421 319.2 214.991 319.278 214.535V213.886C319.264 213.741 319.285 213.595 319.338 213.46C319.391 213.324 319.475 213.203 319.584 213.107L319.89 212.94L320.539 212.559L321.346 212.086C321.503 211.984 321.69 211.937 321.877 211.954C322.064 211.971 322.239 212.05 322.376 212.179C322.414 212.205 322.448 212.236 322.478 212.272C322.55 212.347 322.612 212.431 322.663 212.522C322.698 212.562 322.73 212.606 322.756 212.652C322.852 212.813 322.929 212.984 322.988 213.162C323.061 213.357 323.123 213.555 323.173 213.756C323.22 213.979 323.266 214.201 323.303 214.442C323.331 214.583 323.35 214.726 323.359 214.869V215.203C323.359 215.453 323.359 215.722 323.359 216.001V229.803H321.318V216.075C321.318 215.862 321.318 215.639 321.318 215.435L321.272 214.925C321.086 216.548 319.537 217.995 318.183 218.756C317.437 219.23 316.58 219.499 315.697 219.535C315.017 219.544 314.357 219.303 313.842 218.858L313.666 218.96L313.304 219.173L261.211 249.255L255.571 252.511C254.765 252.923 253.87 253.13 252.964 253.113V250.757C253.88 250.751 254.779 250.515 255.58 250.071Z" fill="#90CAF9"/>
<path opacity="0.4" d="M255.58 250.071L259.17 247.993L300.55 224.117L313.814 216.474C314.742 215.927 315.521 215.732 315.576 216.019V216.622C315.576 217.281 316.504 217.281 317.645 216.622C318.069 216.437 318.441 216.15 318.726 215.785C319.011 215.421 319.2 214.991 319.278 214.535V213.886C319.264 213.741 319.285 213.595 319.338 213.46C319.391 213.324 319.475 213.203 319.584 213.107L319.89 212.94L320.539 212.559L321.346 212.086C321.503 211.984 321.69 211.937 321.877 211.954C322.064 211.971 322.239 212.05 322.376 212.179C322.414 212.205 322.448 212.236 322.478 212.272C322.55 212.347 322.612 212.431 322.663 212.522C322.698 212.562 322.73 212.606 322.756 212.652C322.852 212.813 322.929 212.984 322.988 213.162C323.061 213.357 323.123 213.555 323.173 213.756C323.22 213.979 323.266 214.201 323.303 214.442C323.331 214.583 323.35 214.726 323.359 214.869V215.203C323.359 215.453 323.359 215.722 323.359 216.001V229.803H321.318V216.075C321.318 215.862 321.318 215.639 321.318 215.435L321.272 214.925C321.086 216.548 319.537 217.995 318.183 218.756C317.437 219.23 316.58 219.499 315.697 219.535C315.017 219.544 314.357 219.303 313.842 218.858L313.666 218.96L313.304 219.173L261.211 249.255L255.571 252.511C254.765 252.923 253.87 253.13 252.964 253.113V250.757C253.88 250.751 254.779 250.515 255.58 250.071Z" fill="black"/>
<path d="M163.369 198.933V201.326C163.397 201.648 163.508 201.956 163.692 202.221C163.876 202.487 164.126 202.699 164.417 202.838L244.635 249.143L250.265 252.399C251.079 252.82 251.984 253.033 252.899 253.021V250.665C251.979 250.685 251.068 250.468 250.256 250.034L246.675 247.965L164.473 200.492C164.161 200.361 163.892 200.146 163.697 199.871C163.502 199.595 163.388 199.27 163.369 198.933Z" fill="#90CAF9"/>
<path opacity="0.2" d="M163.369 198.933V201.326C163.397 201.648 163.508 201.956 163.692 202.221C163.876 202.487 164.126 202.699 164.417 202.838L244.635 249.143L250.265 252.399C251.079 252.82 251.984 253.033 252.899 253.021V250.665C251.979 250.685 251.068 250.468 250.256 250.034L246.675 247.965L164.473 200.492C164.161 200.361 163.892 200.146 163.697 199.871C163.502 199.595 163.388 199.27 163.369 198.933Z" fill="black"/>
<path d="M163.369 220.583V222.976C163.397 223.298 163.508 223.606 163.692 223.871C163.876 224.136 164.126 224.349 164.417 224.488L244.672 270.803L250.302 274.058C251.116 274.479 252.021 274.693 252.937 274.68V272.324C252.016 272.344 251.105 272.127 250.293 271.693L246.712 269.625L164.473 222.141C164.161 222.011 163.892 221.796 163.697 221.521C163.502 221.245 163.388 220.92 163.369 220.583Z" fill="#90CAF9"/>
<path opacity="0.2" d="M163.369 220.583V222.976C163.397 223.298 163.508 223.606 163.692 223.871C163.876 224.136 164.126 224.349 164.417 224.488L244.672 270.803L250.302 274.058C251.116 274.479 252.021 274.693 252.937 274.68V272.324C252.016 272.344 251.105 272.127 250.293 271.693L246.712 269.625L164.473 222.141C164.161 222.011 163.892 221.796 163.697 221.521C163.502 221.245 163.388 220.92 163.369 220.583Z" fill="black"/>
<path d="M200.417 136.423L191.901 151.598L204.312 158.203L213.347 144.753L200.417 136.423Z" fill="#FFA8A7"/>
<path d="M230.628 102.242C225.897 101.435 218.736 101.221 214.08 109.208C209.423 117.194 199.387 136.906 199.387 136.906C199.387 136.906 205.249 144.493 213.737 145.875L227.604 123.873L230.628 102.242Z" fill="#90CAF9"/>
<path d="M219.451 288.093H208.858V306.227H219.451V288.093Z" fill="#FFA8A7"/>
<path d="M188.785 283.677L178.192 284.039L177.663 264.847L188.247 264.486L188.785 283.677Z" fill="#FFA8A7"/>
<path d="M208.858 300.995V299.484C207.847 299.919 205.49 308.908 201.288 312.739C197.949 315.79 193.395 319.306 192.235 322.701C191.029 326.235 198.58 328.192 201.697 327.636C205.323 326.996 211.612 324.445 213.189 322.07C214.766 319.696 215.508 316.217 216.788 314.483C218.068 312.748 221.027 310.772 221.723 308.796C222.103 307.693 221.649 305.281 221.12 303.231C220.629 301.376 220.091 299.298 219.451 299.474V300.624C218.681 301.478 216.557 302.322 214.154 302.415C212.605 302.489 208.848 302.183 208.858 300.995Z" fill="#263238"/>
<path d="M178.08 280.774C177.533 280.774 177.088 281.572 175.873 282.88C174.06 284.711 171.953 286.226 169.639 287.36C165.669 289.354 157.98 292.406 154.473 293.992C152.293 294.975 152.395 297.61 154.649 299.112C156.904 300.615 162.339 301.691 168.879 300.226C172.431 299.428 177.069 296.144 180.01 296.32C182.95 296.497 188.432 296.46 190.593 294.966C192.755 293.473 191.892 290.328 191.28 287.545C190.612 284.559 189.657 279.986 188.664 280.19V281.117C187.393 283.047 180.909 283.835 178.108 282.416L178.08 280.774Z" fill="#263238"/>
<path d="M262.12 177.812C264.439 194.184 261.313 197.291 245.757 213.005C237.409 221.436 223.912 233.801 223.912 233.801C223.912 233.801 224.107 239.033 224.209 250.757C224.311 261.082 219.998 294.679 219.998 294.679C219.998 294.679 212.967 297.638 208.143 294.567C208.143 294.567 205.964 269.569 204.786 256.536C203.19 238.912 202.355 230.026 203.255 226.232C204.053 222.884 219.887 202.885 223.541 197.282L189.888 216.836C190.541 221.79 190.869 226.782 190.872 231.779C190.501 245.795 188.775 273.789 188.775 273.789C188.775 273.789 181.076 277.231 177.255 274.263C177.255 274.263 167.561 213.042 167.561 208.014C167.561 200.38 200.713 177.589 206.993 172.284C210.574 169.26 214.562 165.985 214.562 165.985L262.12 177.812Z" fill="#455A64"/>
<path d="M223.541 197.291C220.002 194.425 217.337 190.623 215.852 186.318C216.037 189.127 216.437 191.918 217.048 194.666C217.976 198.302 189.888 216.836 189.888 216.836L223.541 197.291Z" fill="#37474F"/>
<path d="M242.245 72.9621C244.14 64.877 239.122 56.7865 231.036 54.8917C222.951 52.9968 214.861 58.015 212.966 66.1002C211.071 74.1854 216.089 82.2758 224.174 84.1707C232.26 86.0655 240.35 81.0473 242.245 72.9621Z" fill="#263238"/>
<path d="M259.198 111.35C259.198 111.35 262.908 114.393 262.908 124.003V144.753L262.379 179.649C254.959 187.728 221.566 184.667 213.301 167.043C213.301 167.043 213.366 130.208 213.366 121.953C213.366 113.697 218.004 102.984 230.619 102.242L246.963 106.045L259.198 111.35Z" fill="#263238"/>
<path d="M253.595 80.2207C253.595 80.2207 251.156 91.6671 250.182 93.5501C249.532 94.7109 248.458 95.5752 247.185 95.9618L247.352 87.9104L253.595 80.2207Z" fill="#263238"/>
<path d="M250.534 63.821C251.381 63.7258 252.238 63.8241 253.042 64.1085C253.845 64.3929 254.574 64.856 255.172 65.4628C257.176 67.5128 256.053 73.9317 253.558 80.2207L248.966 80.7494L250.534 63.821Z" fill="#263238"/>
<path d="M247.631 80.7494C248.558 81.2967 249.866 79.5343 250.998 78.347C252.129 77.1597 255.84 75.5642 257.686 79.4322C259.532 83.3003 256.053 88.6432 253.141 89.5615C248.113 91.1384 247.352 87.9104 247.352 87.9104L246.972 106.045C242.64 110.887 227.827 109.755 230.619 105.562V99.9968C230.619 99.9968 226.064 100.693 223.847 100.349C220.137 99.7742 217.818 96.8616 216.696 92.8544C214.896 86.4263 214.21 81.241 215.768 68.598C217.447 54.7399 233.559 54.6008 242.26 60.0735C250.961 65.5463 247.631 80.7494 247.631 80.7494Z" fill="#FFA8A7"/>
<path d="M234.821 83.9218H234.042C232.681 83.9218 231.376 83.3813 230.414 82.4194C229.452 81.4574 228.912 80.1527 228.912 78.7922C228.912 77.4318 229.452 76.127 230.414 75.1651C231.376 74.2031 232.681 73.6627 234.042 73.6627H234.83C236.19 73.6627 237.495 74.2031 238.457 75.1651C239.419 76.127 239.96 77.4318 239.96 78.7922C239.96 80.1527 239.419 81.4574 238.457 82.4194C237.495 83.3813 236.19 83.9218 234.83 83.9218H234.821ZM234.042 74.5253C232.91 74.5253 231.825 74.9749 231.024 75.7751C230.224 76.5753 229.775 77.6606 229.775 78.7922C229.775 79.9239 230.224 81.0092 231.024 81.8094C231.825 82.6096 232.91 83.0591 234.042 83.0591H234.83C235.962 83.0591 237.047 82.6096 237.847 81.8094C238.647 81.0092 239.097 79.9239 239.097 78.7922C239.097 77.6606 238.647 76.5753 237.847 75.7751C237.047 74.9749 235.962 74.5253 234.83 74.5253H234.042Z" fill="#263238"/>
<path d="M219.2 83.9218H218.412C217.051 83.9218 215.747 83.3813 214.785 82.4194C213.823 81.4574 213.282 80.1527 213.282 78.7922C213.282 77.4318 213.823 76.127 214.785 75.1651C215.747 74.2031 217.051 73.6627 218.412 73.6627H219.2C220.561 73.6627 221.865 74.2031 222.827 75.1651C223.789 76.127 224.33 77.4318 224.33 78.7922C224.33 80.1527 223.789 81.4574 222.827 82.4194C221.865 83.3813 220.561 83.9218 219.2 83.9218ZM218.412 74.5253C217.28 74.5253 216.195 74.9749 215.395 75.7751C214.594 76.5753 214.145 77.6606 214.145 78.7922C214.145 79.9239 214.594 81.0092 215.395 81.8094C216.195 82.6096 217.28 83.0591 218.412 83.0591H219.2C220.332 83.0591 221.417 82.6096 222.217 81.8094C223.018 81.0092 223.467 79.9239 223.467 78.7922C223.467 77.6606 223.018 76.5753 222.217 75.7751C221.417 74.9749 220.332 74.5253 219.2 74.5253H218.412Z" fill="#263238"/>
<path d="M228.968 77.7812C228.655 77.3561 228.247 77.0099 227.777 76.77C227.307 76.53 226.787 76.4031 226.259 76.3991C225.82 76.3548 225.376 76.4159 224.964 76.5772C224.553 76.7385 224.186 76.9954 223.894 77.3267L223.207 76.8072C223.583 76.3632 224.062 76.0183 224.602 75.8032C225.143 75.588 225.728 75.5091 226.306 75.5736C226.974 75.5802 227.632 75.746 228.224 76.0573C228.816 76.3686 229.325 76.8165 229.71 77.3638L228.968 77.7812Z" fill="#263238"/>
<path d="M250.386 77.7441H239.477V78.6067H250.386V77.7441Z" fill="#263238"/>
<path d="M247.631 82.2985C248.095 82.2985 249.848 79.3859 250.998 78.347C252.584 76.8999 250.534 63.821 250.534 63.821C250.534 63.821 252.065 60.5651 249.004 57.2073C246.833 54.8141 243.197 54.5451 236.991 53.5711C233.735 53.061 228.801 52.1427 225.545 51.5397C221.668 50.8162 218.449 50.0556 215.712 52.4673C214.638 53.3985 213.879 54.6394 213.538 56.0196C213.198 57.3998 213.293 58.8516 213.811 60.1756C214.597 61.8267 215.994 63.1074 217.707 63.7468C217.707 63.7468 219.395 65.2494 225.285 65.9637C231.175 66.6779 240.349 65.8338 241.601 65.6576C243.308 65.4257 243.67 67.0768 244.598 71.6034C245.405 75.5457 246.1 82.2707 247.631 82.2985Z" fill="#263238"/>
<path d="M250.525 64.8785L256.09 61.8823C255.912 61.5082 255.66 61.1741 255.349 60.9C255.038 60.6259 254.675 60.4176 254.282 60.2876C253.888 60.1576 253.472 60.1086 253.06 60.1436C252.647 60.1785 252.245 60.2967 251.879 60.491C251.135 60.9104 250.58 61.5989 250.328 62.415C250.076 63.2311 250.147 64.1127 250.525 64.8785Z" fill="#263238"/>
<path d="M230.628 100.043C230.628 100.043 238.884 98.3828 241.759 96.8523C243.456 95.9662 244.846 94.5891 245.748 92.9008C245.311 94.5826 244.542 96.1598 243.484 97.5387C241.37 100.238 230.619 102.223 230.619 102.223L230.628 100.043Z" fill="#F28F8F"/>
<path d="M232.613 78.6902C232.626 79.0159 232.734 79.3307 232.925 79.5952C233.115 79.8598 233.379 80.0624 233.684 80.1779C233.989 80.2934 234.321 80.3166 234.639 80.2446C234.957 80.1727 235.246 80.0087 235.472 79.7732C235.697 79.5377 235.848 79.2411 235.906 78.9203C235.964 78.5995 235.926 78.2688 235.798 77.9693C235.669 77.6699 235.455 77.4149 235.182 77.2363C234.909 77.0577 234.59 76.9633 234.264 76.9649C234.043 76.9697 233.824 77.0181 233.621 77.1075C233.418 77.1968 233.235 77.3252 233.081 77.4854C232.928 77.6457 232.808 77.8345 232.727 78.0412C232.647 78.248 232.608 78.4685 232.613 78.6902Z" fill="#263238"/>
<path d="M235.266 71.8446L238.809 73.7925C239.048 73.3101 239.096 72.7552 238.943 72.2391C238.79 71.723 238.447 71.2839 237.984 71.0098C237.752 70.8814 237.496 70.8011 237.232 70.7736C236.968 70.7462 236.701 70.7722 236.448 70.8502C236.194 70.9281 235.959 71.0563 235.756 71.2271C235.553 71.398 235.386 71.608 235.266 71.8446Z" fill="#263238"/>
<path d="M231.379 90.1088L227.604 91.528C227.685 91.7814 227.817 92.0159 227.991 92.2172C228.165 92.4185 228.378 92.5826 228.617 92.6995C228.857 92.8165 229.117 92.8839 229.383 92.8978C229.648 92.9116 229.914 92.8717 230.164 92.7802C230.673 92.5787 231.084 92.1877 231.311 91.6896C231.537 91.1914 231.562 90.6247 231.379 90.1088Z" fill="#F28F8F"/>
<path d="M217.438 73.2916L220.666 70.815C220.516 70.5988 220.323 70.4153 220.1 70.2756C219.877 70.1358 219.628 70.0428 219.368 70.0021C219.108 69.9613 218.842 69.9737 218.587 70.0385C218.332 70.1033 218.092 70.2191 217.883 70.379C217.449 70.7141 217.16 71.2037 217.077 71.7461C216.994 72.2885 217.123 72.8421 217.438 73.2916Z" fill="#263238"/>
<path d="M218.857 78.2171C218.87 78.5428 218.978 78.8576 219.169 79.1221C219.359 79.3867 219.623 79.5893 219.928 79.7048C220.233 79.8203 220.565 79.8435 220.883 79.7716C221.201 79.6996 221.49 79.5356 221.716 79.3001C221.941 79.0646 222.092 78.768 222.15 78.4472C222.208 78.1264 222.17 77.7957 222.041 77.4962C221.913 77.1968 221.699 76.9419 221.426 76.7632C221.153 76.5846 220.834 76.4902 220.508 76.4918C220.286 76.4966 220.068 76.5451 219.865 76.6344C219.662 76.7237 219.478 76.8521 219.325 77.0124C219.172 77.1726 219.051 77.3614 218.971 77.5682C218.891 77.7749 218.852 77.9954 218.857 78.2171Z" fill="#263238"/>
<path d="M227.029 76.8906L226.844 86.9178L220.916 85.6099L227.029 76.8906Z" fill="#F28F8F"/>
<path d="M216.9 160.253V161.18C216.899 161.655 216.774 162.12 216.536 162.531C216.298 162.941 215.957 163.282 215.546 163.518L189.786 178.359C189.376 178.596 188.911 178.721 188.437 178.721C187.963 178.721 187.498 178.596 187.087 178.359L139.827 151.079C139.415 150.843 139.074 150.502 138.836 150.092C138.598 149.681 138.473 149.216 138.472 148.741V148.083L188.432 176.921L216.9 160.253Z" fill="#90CAF9"/>
<path opacity="0.6" d="M216.9 160.253V161.18C216.899 161.655 216.774 162.12 216.536 162.531C216.298 162.941 215.957 163.282 215.546 163.518L189.786 178.359C189.376 178.596 188.911 178.721 188.437 178.721C187.963 178.721 187.498 178.596 187.087 178.359L139.827 151.079C139.415 150.843 139.074 150.502 138.836 150.092C138.598 149.681 138.473 149.216 138.472 148.741V148.083L188.432 176.921L216.9 160.253Z" fill="black"/>
<path d="M138.5 148.092L166.523 131.915C166.768 131.773 167.046 131.699 167.33 131.699C167.613 131.699 167.891 131.773 168.137 131.915L216.742 159.984C216.796 160.016 216.84 160.061 216.871 160.116C216.902 160.17 216.919 160.232 216.919 160.295C216.919 160.357 216.902 160.419 216.871 160.473C216.84 160.528 216.796 160.573 216.742 160.605L188.46 176.931L138.5 148.092Z" fill="#90CAF9"/>
<path opacity="0.5" d="M138.5 148.092L166.523 131.915C166.768 131.773 167.046 131.699 167.33 131.699C167.613 131.699 167.891 131.773 168.137 131.915L216.742 159.984C216.796 160.016 216.84 160.061 216.871 160.116C216.902 160.17 216.919 160.232 216.919 160.295C216.919 160.357 216.902 160.419 216.871 160.473C216.84 160.528 216.796 160.573 216.742 160.605L188.46 176.931L138.5 148.092Z" fill="black"/>
<path d="M188.692 174.556L203.802 165.837L159.612 140.328L144.418 149.001L188.692 174.556Z" fill="#263238"/>
<path d="M196.122 150.309L195.844 150.467L188.432 154.743L175.26 147.137L174.991 146.979L182.672 142.545L196.122 150.309Z" fill="#263238"/>
<path d="M195.844 150.467L188.432 154.743L175.26 147.137L182.672 142.861L195.844 150.467Z" fill="#263238"/>
<path opacity="0.7" d="M188.432 176.931V178.73C187.96 178.73 187.496 178.605 187.087 178.369L139.827 151.088C139.415 150.852 139.074 150.512 138.836 150.101C138.598 149.691 138.473 149.225 138.472 148.751V148.092L188.432 176.931Z" fill="black"/>
<path d="M187.662 177.33C187.213 177.509 186.728 177.582 186.246 177.545C185.764 177.508 185.296 177.362 184.88 177.116L137.832 149.957C137.424 149.722 137.072 149.4 136.803 149.014C136.533 148.627 136.353 148.186 136.274 147.721L131.126 116.999C131.097 116.828 131.081 116.654 131.08 116.48C131.074 115.626 131.408 114.806 132.007 114.198L180.9 142.434C181.21 142.604 181.479 142.842 181.686 143.129C181.893 143.416 182.033 143.746 182.097 144.094L187.662 177.33Z" fill="#90CAF9"/>
<path opacity="0.5" d="M187.662 177.33C187.213 177.509 186.728 177.582 186.246 177.545C185.764 177.508 185.296 177.362 184.88 177.116L137.832 149.957C137.424 149.722 137.072 149.4 136.803 149.014C136.533 148.627 136.353 148.186 136.274 147.721L131.126 116.999C131.097 116.828 131.081 116.654 131.08 116.48C131.074 115.626 131.408 114.806 132.007 114.198L180.9 142.434C181.21 142.604 181.479 142.842 181.686 143.129C181.893 143.416 182.033 143.746 182.097 144.094L187.662 177.33Z" fill="black"/>
<path d="M188.432 176.931L188.117 177.116C187.974 177.199 187.825 177.27 187.672 177.33L182.106 144.094C182.048 143.75 181.914 143.423 181.715 143.136C181.517 142.849 181.257 142.61 180.956 142.434L132.063 114.198C132.257 114.007 132.475 113.842 132.712 113.707L181.707 141.989C182.009 142.164 182.268 142.404 182.467 142.691C182.666 142.978 182.799 143.305 182.857 143.649L188.432 176.931Z" fill="#E0E0E0"/>
<path d="M161.17 148.973C160.827 146.923 158.703 144.187 156.43 142.879C154.158 141.571 152.59 142.165 152.943 144.224C153.295 146.283 155.41 149.01 157.683 150.328C159.955 151.645 161.523 151.033 161.17 148.973Z" fill="#90CAF9"/>
<path d="M170.808 168.972C170.71 167.641 170.451 166.327 170.038 165.058C169.315 162.785 167.163 154.029 162.246 152.712C161.662 152.536 161.041 152.517 160.447 152.656C159.083 153.027 158.462 154.446 158.193 155.717C157.942 157.595 157.942 159.497 158.193 161.375C157.437 160.511 156.551 159.769 155.568 159.177C154.696 158.52 153.644 158.145 152.553 158.101C152.401 158.093 152.25 158.123 152.113 158.188C151.975 158.253 151.856 158.35 151.765 158.472C151.588 158.797 151.765 159.205 152.043 159.492C152.535 160.086 153.138 160.587 153.629 161.18C154.014 161.698 154.371 162.237 154.696 162.794C155.317 163.796 156.013 164.742 156.709 165.698C158.045 167.683 159.722 169.416 161.662 170.818C163.893 172.328 166.425 173.338 169.083 173.777C172.672 174.222 176.16 174.167 178.424 173.378L170.808 168.972Z" fill="#FFA8A7"/>
<path d="M258.214 111.619C254.903 109.913 250.061 116.675 251.601 123.743C253.141 130.811 260.728 155.661 260.728 155.661C260.728 155.661 226.454 158.722 223.541 159.084C221.51 159.325 219.237 158.296 217.354 157.674C214.794 156.821 212.206 156.227 209.683 155.3C209.244 155.098 208.766 154.996 208.283 155.003C208.04 155.013 207.807 155.103 207.621 155.259C207.435 155.415 207.306 155.628 207.253 155.865C207.241 156.156 207.315 156.443 207.466 156.691C208.275 158.342 209.492 159.759 211 160.809C211.731 161.241 212.426 161.731 213.078 162.275C213.477 162.674 214.358 163.778 214.006 164.381L200.389 172.219C200.389 172.219 203.524 174.946 214.878 171.764C218.97 170.693 222.964 169.275 226.816 167.525C226.816 167.525 267.203 169.204 274.503 166.996C277.082 166.208 278.009 164.381 276.265 156.069C274.271 146.441 268.548 128.882 267.249 124.244C264.401 114.198 263.724 114.43 258.214 111.619Z" fill="#FFA8A7"/>
<path d="M256.508 110.182C256.508 110.182 261.98 111.721 264.337 114.82C266.693 117.918 275.783 147.888 275.783 147.888C273.407 149.87 270.628 151.312 267.639 152.112C264.65 152.913 261.523 153.054 258.474 152.526C258.474 152.526 251.165 131.794 250.386 126.257C249.004 117.677 253.196 110.924 256.508 110.182Z" fill="#90CAF9"/>
<path d="M226.973 130.292C226.528 127.973 227.975 126.721 230.211 127.509C231.394 127.995 232.446 128.752 233.284 129.718C234.122 130.685 234.721 131.834 235.034 133.075C235.479 135.421 227.409 132.592 226.973 130.292Z" fill="#90CAF9"/>
<path d="M242.269 137.518L235.693 133.334C236.027 135.115 233.624 134.865 231.463 134.113C229.302 133.362 226.658 131.841 226.315 130.06L220.582 129.986C220.054 129.986 220.044 130.672 220.582 131.238C222.002 132.824 225.304 135.635 232.242 138.056C239.18 140.477 241.843 139.725 242.844 138.983C243.169 138.705 242.872 137.898 242.269 137.518Z" fill="#90CAF9"/>
</svg>
