<svg width="40" height="40" viewBox="0 0 40 40" fill="none" xmlns="http://www.w3.org/2000/svg">
<g clip-path="url(#clip0)">
<path d="M19.5312 0C8.54492 0 0 8.54492 0 19.5312C0 32.3486 11.5967 37.8418 13.4277 37.8418C14.6484 37.8418 14.6484 37.2314 14.6484 36.6211V33.5693C10.376 34.79 8.54492 32.3486 7.93457 30.5176C7.93457 30.5176 7.93457 29.9072 6.71387 28.6865C6.10352 28.0762 3.66211 26.8555 6.10352 26.8555C7.93457 26.8555 9.15527 29.2969 9.15527 29.2969C10.9863 31.7383 13.4277 31.1279 14.6484 30.5176C14.6484 29.2969 15.8691 28.0762 15.8691 28.0762C10.9863 27.4658 7.32422 25.6348 7.32422 18.9209C7.32422 16.4795 7.93457 14.6484 9.15527 13.4277C9.15527 13.4277 7.93457 10.9863 9.15527 7.93457C9.15527 7.93457 12.207 7.93457 14.6484 10.376C16.4795 9.15527 22.583 9.15527 24.4141 10.376C26.8555 7.93457 29.9072 7.93457 29.9072 7.93457C31.1279 12.207 29.9072 13.4277 29.9072 13.4277C31.1279 14.6484 31.7383 16.4795 31.7383 18.9209C31.7383 25.6348 27.4658 27.4658 23.1934 28.0762C23.8037 28.6865 24.4141 29.9072 24.4141 31.7383V36.6211C24.4141 37.2314 24.4141 37.8418 25.6348 37.8418C27.4658 37.8418 39.0625 32.3486 39.0625 19.5312C39.0625 8.54492 30.5176 0 19.5312 0Z" fill="#101844"/>
</g>
<defs>
<clipPath id="clip0">
<rect width="39.0625" height="39.0625" fill="white"/>
</clipPath>
</defs>
</svg>
