<svg width="40" height="40" viewBox="0 0 40 40" fill="none" xmlns="http://www.w3.org/2000/svg">
<path d="M25.6348 13.4277C27.2535 13.4277 28.806 12.7847 29.9506 11.6401C31.0953 10.4954 31.7383 8.94297 31.7383 7.32422C31.7383 5.70547 31.0953 4.15301 29.9506 3.00838C28.806 1.86375 27.2535 1.2207 25.6348 1.2207H13.4278C11.809 1.2207 10.2566 1.86375 9.11193 3.00838C7.9673 4.15301 7.32425 5.70547 7.32425 7.32422C7.32425 8.94297 7.9673 10.4954 9.11193 11.6401C10.2566 12.7847 11.809 13.4277 13.4278 13.4277C11.809 13.4277 10.2566 14.0708 9.11193 15.2154C7.9673 16.36 7.32425 17.9125 7.32425 19.5312C7.32425 21.15 7.9673 22.7025 9.11193 23.8471C10.2566 24.9917 11.809 25.6348 13.4278 25.6348C12.2206 25.6348 11.0406 25.9927 10.0368 26.6634C9.03312 27.3341 8.25082 28.2873 7.78885 29.4026C7.32689 30.5178 7.20602 31.7451 7.44153 32.929C7.67703 34.113 8.25834 35.2005 9.11193 36.0541C9.96552 36.9077 11.0531 37.489 12.237 37.7245C13.421 37.96 14.6482 37.8392 15.7635 37.3772C16.8788 36.9152 17.832 36.1329 18.5027 35.1292C19.1733 34.1255 19.5313 32.9454 19.5313 31.7383V13.4277H25.6348Z" fill="#101844"/>
<path d="M25.6348 25.6348C29.0056 25.6348 31.7383 22.9021 31.7383 19.5312C31.7383 16.1604 29.0056 13.4277 25.6348 13.4277C22.2639 13.4277 19.5312 16.1604 19.5312 19.5312C19.5312 22.9021 22.2639 25.6348 25.6348 25.6348Z" fill="#101844"/>
</svg>
