<svg width="40" height="40" viewBox="0 0 40 40" fill="none" xmlns="http://www.w3.org/2000/svg">
<g clip-path="url(#clip0)">
<path d="M7.84583 0.572266C3.53527 0.572266 0.00732422 4.10013 0.00732422 8.41077V32.735C0.00732422 37.0456 3.53519 40.5723 7.84583 40.5723H32.1701C36.4807 40.5723 40.0073 37.0456 40.0073 32.735V8.41077C40.0073 4.10021 36.4807 0.572266 32.1701 0.572266H7.84583ZM9.81733 7.17307C11.8842 7.17307 13.1572 8.5299 13.1965 10.3134C13.1965 12.0576 11.8841 13.4526 9.77735 13.4526H9.73858C7.71109 13.4526 6.40064 12.0577 6.40064 10.3134C6.40064 8.52994 7.75075 7.17307 9.81729 7.17307H9.81733ZM27.6283 15.5091C31.6032 15.5091 34.583 18.1071 34.583 23.6901V34.1126H28.5422V24.3889C28.5422 21.9454 27.6679 20.2784 25.4818 20.2784C23.8129 20.2784 22.8182 21.402 22.3814 22.4874C22.2219 22.8758 22.1827 23.4181 22.1827 23.9614V34.1126H16.1419C16.1419 34.1126 16.2212 17.6409 16.1419 15.9354H22.1839V18.5095C22.9866 17.2709 24.4226 15.5091 27.6283 15.5091V15.5091ZM6.75695 15.9367H12.7977V34.1127H6.75695V15.9367V15.9367Z" fill="#101844"/>
</g>
<defs>
<clipPath id="clip0">
<rect width="39.0625" height="39.0625" fill="white" transform="translate(0 0.5625)"/>
</clipPath>
</defs>
</svg>
